<svg xmlns="http://www.w3.org/2000/svg" xmlns:xlink="http://www.w3.org/1999/xlink" xmlns:lucid="lucid" width="980" height="600"><g transform="translate(-200 -60)" lucid:page-tab-id="0_0"><path d="M540 80h280v160H540z" stroke="#000" stroke-width="2" fill="#d1bcd2"/><use xlink:href="#a" transform="matrix(1,0,0,1,545,85) translate(106.11000000000001 70.65)"/><use xlink:href="#b" transform="matrix(1,0,0,1,545,85) translate(135 88.65)"/><path d="M600 280h160v120H600z" stroke="#000" stroke-width="2" fill="#ffbbb1"/><use xlink:href="#c" transform="matrix(1,0,0,1,605,285) translate(53.859 59.0875)"/><path d="M680 242v18.5" stroke="#000" stroke-width="2" fill="none"/><path d="M681 242.03h-2V241h2z"/><path d="M680 275.76l-4.64-14.26h9.28z" stroke="#000" stroke-width="2"/><path d="M220 480h160v160H220z" stroke="#000" stroke-width="2" fill="#99d5ca"/><use xlink:href="#d" transform="matrix(1,0,0,1,225,485) translate(58.962 70.65)"/><use xlink:href="#b" transform="matrix(1,0,0,1,225,485) translate(75 88.65)"/><path d="M480 480h160v160H480z" stroke="#000" stroke-width="2" fill="#99d5ca"/><use xlink:href="#e" transform="matrix(1,0,0,1,485,485) translate(55.155 61.275)"/><use xlink:href="#f" transform="matrix(1,0,0,1,485,485) translate(75 79.275)"/><use xlink:href="#b" transform="matrix(1,0,0,1,485,485) translate(75 97.275)"/><path d="M740 480h160v160H740z" stroke="#000" stroke-width="2" fill="#99d5ca"/><use xlink:href="#g" transform="matrix(1,0,0,1,745,485) translate(52.428 70.65)"/><use xlink:href="#b" transform="matrix(1,0,0,1,745,485) translate(75 88.65)"/><path d="M1000 480h160v160h-160z" stroke="#000" stroke-width="2" fill="#99d5ca"/><use xlink:href="#h" transform="matrix(1,0,0,1,1005,485) translate(36.54299999999999 61.275)"/><use xlink:href="#f" transform="matrix(1,0,0,1,1005,485) translate(75 79.275)"/><use xlink:href="#b" transform="matrix(1,0,0,1,1005,485) translate(75 97.275)"/><path d="M680 402v38H560v20.5" stroke="#000" stroke-width="2" fill="none"/><path d="M681 402.03h-2V401h2z"/><path d="M560 475.76l-4.64-14.26h9.28z" stroke="#000" stroke-width="2"/><path d="M680 402v38h140v20.5" stroke="#000" stroke-width="2" fill="none"/><path d="M681 402.03h-2V401h2z"/><path d="M820 475.76l-4.64-14.26h9.28z" stroke="#000" stroke-width="2"/><path d="M762 340h318v120.5" stroke="#000" stroke-width="2" fill="none"/><path d="M762.03 341H761v-2h1.03z"/><path d="M1080 475.76l-4.64-14.26h9.28z" stroke="#000" stroke-width="2"/><path d="M598 340H300v120.5" stroke="#000" stroke-width="2" fill="none"/><path d="M599 341h-1.03v-2H599z"/><path d="M300 475.76l-4.64-14.26h9.28z" stroke="#000" stroke-width="2"/><defs><path d="M357-731C138-731 37-570 37-353 37-111 192 49 452 0c46-10 82-34 114-60 38-32-5-100-50-65-38 29-87 56-156 54-162-5-232-127-232-289 0-158 65-284 223-289 85-3 124 39 168 81l50-45c-38-70-111-118-212-118" id="i"/><path d="M106-780c-23 0-43 21-42 44V2l84-1v-737c1-23-19-44-42-44" id="j"/><path d="M273-542C117-542 37-423 37-268c0 158 80 279 237 279 156 0 235-122 235-278s-80-275-236-275zm-2 477c-106 0-144-97-144-202s40-200 145-200c106 0 148 92 148 199 0 109-40 203-149 203" id="k"/><path d="M126-700c-65 0-35 103-42 166-39-2-81-3-81 38s43 38 82 37V0h84v-459c39 1 85 4 85-37 0-42-46-39-86-38-5-64 24-166-42-166" id="l"/><path d="M107-777c-23 0-44 21-43 44V2h84v-342c5-76 50-127 126-127s126 52 126 129v307c-1 22 19 42 41 42 23 0 44-20 43-43v-306c-6-123-69-203-193-203-63 0-115 30-142 70v-263c1-22-19-43-42-43" id="m"/><path d="M149-500c3-54-84-55-84 0V1h84v-501zm-43-196c-20 0-36 16-36 36-1 45 72 46 72-1 0-19-18-35-36-35" id="n"/><path d="M108-543c-23 0-45 20-44 43V1h84v-341c5-76 49-127 125-127s127 52 127 129v307c-1 22 19 42 41 42 23 0 44-20 43-43v-307c-4-125-70-202-195-202-61 0-115 30-141 70 2-39-2-72-40-72" id="o"/><path d="M461-542c-43 0-43 38-41 79-29-45-85-78-153-78-158 0-230 129-230 286 0 153 75 269 227 269 73 0 124-33 154-82 14 150-77 247-229 207-2 25-7 54-4 80 18 7 41 7 64 7 153 0 252-96 252-249v-476c1-21-18-43-40-43zm-42 284c-5 102-37 194-139 194-113 0-154-91-154-203 0-109 43-197 152-197 106 0 147 88 141 206" id="p"/><g id="a"><use transform="matrix(0.018,0,0,0.018,0,0)" xlink:href="#i"/><use transform="matrix(0.018,0,0,0.018,10.44,0)" xlink:href="#j"/><use transform="matrix(0.018,0,0,0.018,13.608,0)" xlink:href="#k"/><use transform="matrix(0.018,0,0,0.018,22.5,0)" xlink:href="#l"/><use transform="matrix(0.018,0,0,0.018,26.964,0)" xlink:href="#m"/><use transform="matrix(0.018,0,0,0.018,35.675999999999995,0)" xlink:href="#n"/><use transform="matrix(0.018,0,0,0.018,38.39399999999999,0)" xlink:href="#o"/><use transform="matrix(0.018,0,0,0.018,47.609999999999985,0)" xlink:href="#p"/></g><path d="M110-720c-27 0-47 14-46 42V0h236c133-6 218-81 218-213 0-102-61-163-157-176 58-22 99-70 99-145 0-118-78-186-197-186H110zm262 190c0 104-102 125-221 116v-228h100c70 5 121 42 121 112zm56 319c0 83-57 134-140 134H150v-268h138c83 5 140 51 140 134" id="q"/><path d="M107-540c-22-1-43 19-43 42V2l85-1c5-117-12-260 11-359 15-67 75-83 125-113 28-27-1-76-38-72-55 5-82 48-100 91 1-17 3-33 3-51 0-22-23-37-43-37" id="r"/><path d="M463-542c-41 0-45 31-44 71-32-41-84-71-151-71-154 0-232 120-232 274C36-112 112 9 268 9c71 0 123-33 150-82V4h85v-504c1-21-18-42-40-42zM273-64c-109 0-147-95-147-205 0-109 42-200 152-200 108 0 143 87 143 194 0 116-32 211-148 211" id="s"/><path d="M462 9c22 0 43-20 42-42v-732h-85v304c-26-48-78-81-147-81-158 0-235 120-235 277C37-115 112 8 262 8c72 0 126-35 156-84-1 44-1 85 44 85zm-43-264c0 104-44 184-148 184-106 0-145-92-145-198s44-194 150-194c112 0 143 96 143 208" id="t"/><g id="c"><use transform="matrix(0.018,0,0,0.018,0,0)" xlink:href="#q"/><use transform="matrix(0.018,0,0,0.018,9.341999999999999,0)" xlink:href="#r"/><use transform="matrix(0.018,0,0,0.018,13.751999999999999,0)" xlink:href="#s"/><use transform="matrix(0.018,0,0,0.018,22.842,0)" xlink:href="#o"/><use transform="matrix(0.018,0,0,0.018,32.058,0)" xlink:href="#t"/></g><path d="M442-680c2-22-18-41-40-40H16v79h159v605c-1 22 21 44 44 44s43-21 42-44v-605c65-9 175 27 181-39" id="u"/><path d="M104-542c-22 0-41 23-40 44v710h84V-66c30 44 84 76 152 76 156 0 229-126 229-282 0-151-75-271-226-271-71 0-127 35-156 82 2-42 2-81-43-81zM291-67c-107 0-143-88-147-195-5-120 44-206 151-206 106 0 145 97 145 203 0 107-43 198-149 198" id="v"/><path d="M226-67c-73 0-105-36-149-66L23-76C65-26 132 8 220 8c107 0 197-48 197-155 0-147-175-146-265-213-55-41 4-107 69-107 64 0 95 40 145 52 42 0 49-57 16-79-38-26-97-48-158-48-99 0-181 47-181 146 0 143 186 129 265 203 57 54-9 126-82 126" id="w"/><g id="d"><use transform="matrix(0.018,0,0,0.018,0,0)" xlink:href="#u"/><use transform="matrix(0.018,0,0,0.018,5.201999999999998,0)" xlink:href="#k"/><use transform="matrix(0.018,0,0,0.018,14.382,0)" xlink:href="#v"/><use transform="matrix(0.018,0,0,0.018,24.048,0)" xlink:href="#w"/></g><path d="M286-720c-75-3-151 7-222-2v687C63-12 85 9 108 9s43-21 42-44v-235h137c139-8 232-83 232-224 0-142-91-220-233-226zm146 225c0 89-59 147-148 147H152v-295h131c90 6 149 59 149 148" id="x"/><g id="e"><use transform="matrix(0.018,0,0,0.018,0,0)" xlink:href="#x"/><use transform="matrix(0.018,0,0,0.018,9.072,0)" xlink:href="#s"/><use transform="matrix(0.018,0,0,0.018,18.162,0)" xlink:href="#o"/><use transform="matrix(0.018,0,0,0.018,27.198,0)" xlink:href="#l"/><use transform="matrix(0.018,0,0,0.018,31.662,0)" xlink:href="#w"/></g><path d="M232-71c-83 0-139-46-207-69L0-55C71-31 152 9 240 9c137 0 232-93 232-230 0-162-167-179-282-237-32-16-62-43-60-90 3-66 56-98 122-101 59-3 86 44 135 44 39 0 50-55 17-78-36-25-93-46-150-46-124 0-217 68-217 192 0 187 221 159 317 251 17 16 26 38 26 66 0 90-58 149-148 149" id="y"/><path d="M399-88c-49 16-121 34-173 8-54-27-92-77-95-153h324c37-1 53-8 53-47 0-148-80-261-229-261-157 0-242 117-242 273C37-84 158 41 354 2c21-4 41-14 64-23zM129-299c15-90 46-171 148-171 94 0 133 80 142 171H129" id="z"/><g id="g"><use transform="matrix(0.018,0,0,0.018,0,0)" xlink:href="#y"/><use transform="matrix(0.018,0,0,0.018,8.783999999999999,0)" xlink:href="#m"/><use transform="matrix(0.018,0,0,0.018,18,0)" xlink:href="#k"/><use transform="matrix(0.018,0,0,0.018,27.846000000000004,0)" xlink:href="#z"/><use transform="matrix(0.018,0,0,0.018,37.116,0)" xlink:href="#w"/></g><path d="M15-55C-15 0 70 39 92-20l51-135h332l63 165 86-25-251-659c-14-32-23-54-67-54-36-1-52 28-61 54zm152-176l142-393 141 393H167" id="A"/><path d="M282-542C120-542 37-427 37-265 37-105 118 8 277 8c63 0 137-11 144-71 2-19-19-40-39-38-37 4-64 31-106 31-104 0-148-95-148-199 0-108 45-191 154-195 44-2 83 25 114 40l41-70c-45-25-87-48-155-48" id="B"/><g id="h"><use transform="matrix(0.018,0,0,0.018,0,0)" xlink:href="#A"/><use transform="matrix(0.018,0,0,0.018,10.548,0)" xlink:href="#B"/><use transform="matrix(0.018,0,0,0.018,17.604,0)" xlink:href="#B"/><use transform="matrix(0.018,0,0,0.018,24.624000000000002,0)" xlink:href="#z"/><use transform="matrix(0.018,0,0,0.018,33.894,0)" xlink:href="#w"/><use transform="matrix(0.018,0,0,0.018,41.922,0)" xlink:href="#k"/><use transform="matrix(0.018,0,0,0.018,51.102000000000004,0)" xlink:href="#r"/><use transform="matrix(0.018,0,0,0.018,56.43000000000001,0)" xlink:href="#n"/><use transform="matrix(0.018,0,0,0.018,59.61600000000001,0)" xlink:href="#z"/><use transform="matrix(0.018,0,0,0.018,68.88600000000001,0)" xlink:href="#w"/></g></defs></g></svg>