<svg xmlns="http://www.w3.org/2000/svg" xmlns:xlink="http://www.w3.org/1999/xlink" xmlns:lucid="lucid" width="1872.34" height="1446.81"><g transform="translate(0 0)" lucid:page-tab-id="0_0"><path d="M866.56 714.17c0-4.42 3.58-8 8-8h144c4.42 0 8 3.58 8 8v64c0 4.42-3.58 8-8 8h-144c-4.42 0-8-3.58-8-8z" stroke="#000" stroke-opacity="0" stroke-width="2" fill="#bcbdbf"/><use xlink:href="#a" transform="matrix(1,0,0,1,871.558061010088,711.1713648918428) translate(4.200617283950606 38.69444444444444)"/><use xlink:href="#b" transform="matrix(1,0,0,1,871.558061010088,711.1713648918428) translate(71.56481481481482 38.69444444444444)"/><use xlink:href="#c" transform="matrix(1,0,0,1,871.558061010088,711.1713648918428) translate(109.50308641975309 38.69444444444444)"/><path d="M1224.8 585.6c.5 5.5-3.57 10.36-9.07 10.86s-10.36-3.56-10.86-9.06 3.55-10.36 9.06-10.86c5.5-.5 10.36 3.55 10.86 9.05z" stroke="#ff9e56" stroke-width="2" fill="#ff9e56"/><path d="M1116.43 685.82l-7.87 13.06-5.25 7.92-4.3 5.96-3.83 4.83-3.5 4.07-3.3 3.5-3.16 3.1-3.04 2.74-2.97 2.47-2.93 2.22-2.9 2-2.88 1.83-2.9 1.67-2.9 1.52-2.96 1.4-3 1.25-3.05 1.14-3.16 1.03-3.24.9-3.35.8-3.5.65-3.65.54-3.85.4-3.08.2-.62-9.98 2.87-.18 3.42-.36 3.25-.48 3.07-.6 2.95-.68 2.83-.8 2.75-.88 2.67-1 2.6-1.1 2.57-1.2 2.54-1.33 2.53-1.45 2.54-1.6 2.55-1.78 2.58-1.97 2.65-2.2 2.73-2.45 2.85-2.8 3.02-3.2 3.24-3.76 3.56-4.5 4.08-5.62 5-7.56 7.72-12.8 13.96-24.2h11.55zm83.95-92.23l-1 .27-3.5 1.13-3.36 1.25-3.27 1.38-3.2 1.5-3.12 1.63-3.1 1.8-3.06 1.94-3.07 2.13-3.08 2.34-3.13 2.6-3.2 2.87-3.3 3.23-3.45 3.68-3.66 4.24-4 5-4.47 6.2-.72 1.08h-12l4.5-6.8 4.74-6.5 4.24-5.36 3.93-4.56 3.75-3.98 3.6-3.53 3.5-3.16 3.45-2.87 3.42-2.6 3.4-2.36 3.44-2.18 3.45-2 3.5-1.83 3.58-1.68 3.66-1.55 3.75-1.4 3.88-1.26 1.2-.34z" fill="#ff9e56"/><path d="M1031.8 751.06l-5.24.1v-10l5.02-.1zM1203.98 584.62l-.1 2.9.86 3.4.83 1.3-5.5 1.35-2.37-9.7 7.06-1.74z" fill="#ff9e56"/><use xlink:href="#d" transform="matrix(1,0,0,1,1102.9155973042689,637.8776364640652) translate(0 12.444444444444446)"/><path d="M1348.77 516.5l-9.16 7.98-9.14 7.34-9.68 7.1-10.74 7.2-12.57 7.7-15.67 8.7-21.33 10.7-30.7 13.8-2.47-5.48 30.6-13.74 21.1-10.58 15.45-8.58 12.36-7.56 10.53-7.07 9.47-6.94 8.96-7.18 8.97-7.82 4.03-3.83h8.7zm66.84-74.22l-25.54 30.48-14.88 16.8h-8l18.34-20.7 25.5-30.43z" fill="#ff9e56"/><path d="M1229.83 586.98l-4.27 1.92.24-3.38-.64-2.83-.08-.16 2.3-1.04zM1414.26 437.24l2.6 2.16.87.36-2.17 2.58-4.6-3.85 2.33-2.78z" fill="#ff9e56"/><use xlink:href="#e" transform="matrix(1,0,0,1,1312.5543743632916,489.5619162091896) translate(0 12.444444444444446)"/><use xlink:href="#f" transform="matrix(1,0,0,1,1312.5543743632916,489.5619162091896) translate(66.41358024691358 12.444444444444446)"/><path d="M1432.48 429.05c.5 5.5-3.55 10.37-9.05 10.87-5.5.5-10.37-3.56-10.87-9.06s3.56-10.36 9.06-10.86 10.36 3.55 10.86 9.05zM1642.65 307.83c.5 5.5-3.56 10.37-9.06 10.86-5.5.5-10.37-3.56-10.87-9.06s3.55-10.36 9.05-10.86c5.5-.5 10.37 3.55 10.87 9.05zM1655.3 447.26c.5 5.5-3.55 10.36-9.05 10.86-5.5.5-10.36-3.55-10.86-9.05-.5-5.5 3.55-10.37 9.05-10.87 5.5-.5 10.36 3.56 10.86 9.06z" stroke="#ff9e56" stroke-width="2" fill="#ff9e56"/><path d="M1503.74 358.62l-11.14 10.1-15.98 15.76-41 44.4-2.22-2.04 41.07-44.45 16.07-15.87 10.6-9.6h4.63zm116.6-47.28l-5.5.4-11.42 1.23-9.66 1.44-8.45 1.63-7.6 1.8-6.97 1.96-6.54 2.13-6.26 2.33-6.06 2.56-5.98 2.83-6.02 3.17-6.16 3.57-2.94 1.87h-5.55l.38-.26 6.56-4.17 6.27-3.64 6.13-3.23 6.1-2.9 6.17-2.6 6.37-2.38 6.66-2.18 7.1-2 7.72-1.82 8.57-1.65 9.8-1.46 11.52-1.24 5.55-.4z" fill="#ff9e56"/><path d="M1435.63 428.85l-2.3 2.5.16-2.37-.4-1.8.33-.37zM1621.72 309.75l.38 1.46-1.8.14-.22-3 1.7-.12z" fill="#ff9e56"/><use xlink:href="#g" transform="matrix(1,0,0,1,1475.3716173121586,338.26828078959124) translate(0.005000000000002558 12.444444444444446)"/><use xlink:href="#f" transform="matrix(1,0,0,1,1475.3716173121586,338.26828078959124) translate(45.76425925925926 12.444444444444446)"/><path d="M1570.7 446.33l8.4 1.18 8.68.86 9.38.52 10.48.15 12.12-.35 13.03-.9.2 2.98-13.1.92-12.24.35-10.6-.15-9.5-.53-8.8-.86-8.53-1.2-5.77-1.07h3.44v-2.42zm-99.88-20.1l9.5.54 8.8.86 8.52 1.2 3.98.73h-1.56v2.77l-2.9-.54-8.4-1.2-8.67-.84-9.38-.52-10.5-.15-12.1.34-13.03.9-.22-2.98 13.08-.92 12.25-.35z" fill="#ff9e56"/><path d="M1435.13 430.35l-1.75.12.1-1.5-.33-1.5 1.77-.1zM1634.4 449.17l.36 1.46-1.77.16-.28-3 1.73-.15z" fill="#ff9e56"/><use xlink:href="#h" transform="matrix(1,0,0,1,1500.057878575561,429.56236230923355) translate(0 12.444444444444446)"/><use xlink:href="#f" transform="matrix(1,0,0,1,1500.057878575561,429.56236230923355) translate(34.5246913580247 12.444444444444446)"/><path d="M1232.96 903.63l9.73 11.3 8.12 8.66 7.2 7.05 6.6 5.94 6.18 5.12 5.9 4.47 5.68 3.94 5.54 3.52 5.44 3.15 5.4 2.83 5.38 2.53 5.4 2.27 5.46 2.03 5.55 1.8 5.67 1.6 5.83 1.35 6.02 1.16 6.26.93 6.55.67 6.88.44 2.4.06-.22 10-2.6-.06-7.3-.46-6.96-.73-6.67-.97-6.43-1.23-6.23-1.46-6.08-1.7-5.94-1.93-5.86-2.17-5.8-2.43-5.75-2.7-5.75-3.03-5.8-3.35-5.9-3.75-6.04-4.2-6.2-4.72-6.52-5.4-6.9-6.2-7.5-7.37-8.43-8.97-10.1-11.7-7.9-10.55h12.5zm-198.7-162.3l7.3.46 6.96.72 6.68.98 6.43 1.23 6.24 1.46 6.07 1.7 5.95 1.92 5.84 2.18 5.8 2.43 5.75 2.7 5.76 3.03 5.8 3.35 5.9 3.76 6.03 4.2 6.22 4.72 6.5 5.4 6.92 6.2 7.5 7.37 8.4 8.97 10.06 11.66 14.05 17.8 35.3 47.1h-12.5l-30.72-41-13.85-17.53-9.77-11.34-8.12-8.66-7.2-7.06-6.6-5.95-6.18-5.12-5.9-4.46-5.68-3.95-5.54-3.53-5.44-3.15-5.4-2.82-5.38-2.53-5.4-2.27-5.46-2.03-5.55-1.8-5.67-1.6-5.83-1.35-6.02-1.15-6.26-.93-6.55-.68-6.88-.44-2.38-.05.2-10z" fill="#ffbd50"/><path d="M1031.8 741.28l-.2 10-5.04-.1v-10zM1366.4 974.56l-.8 1.52-.55 3.48.55 3.47.8 1.53h-6.48v-10z" fill="#ffbd50"/><use xlink:href="#i" transform="matrix(1,0,0,1,1179.8410436471224,880.6797320845517) translate(0 12.444444444444446)"/><use xlink:href="#j" transform="matrix(1,0,0,1,1179.8410436471224,880.6797320845517) translate(35.345679012345684 12.444444444444446)"/><path d="M1385.94 979.56c0 5.52-4.45 10-9.94 10-5.5 0-9.94-4.48-9.94-10s4.45-10 9.94-10c5.5 0 9.94 4.48 9.94 10z" stroke="#ffbd50" stroke-width="2" fill="#ffbd50"/><path d="M1540.2 980.45l-150.2 2.07-.08-6 150.3-2.07zm106.8-1.47l-67.04.92v-6l66.95-.92z" fill="#ffbd50"/><path d="M1390.08 982.52l-3.6.05.48-3-.48-3 3.52-.05zM1649.95 975.94l.48 3-3.52.04-.07-6 3.6-.05z" fill="#ffbd50"/><use xlink:href="#k" transform="matrix(1,0,0,1,1540.208877841827,967.8420446685176) translate(0.004999999999999005 12.444444444444446)"/><path d="M1486.03 1051.5l4.1 4.37 3.58 3.5 3.24 2.9 3 2.5 2.83 2.15 2.73 1.9 2.65 1.68 2.6 1.5 2.6 1.35 2.56 1.2 2.6 1.1 2.6.97 2.67.86 2.72.76 2.8.66 2.9.55 3 .45 3.18.33 3.34.2.62.03-.13 6-.73-.02-3.6-.23-3.4-.35-3.28-.48-3.16-.6-3.05-.7-2.97-.84-2.9-.94-2.85-1.07-2.8-1.18-2.8-1.32-2.8-1.47-2.84-1.63-2.86-1.82-2.94-2.03-3.04-2.3-3.2-2.65-3.4-3.08-3.75-3.68-4.36-4.64-4.25-5.33h7.67zm-95.27-74.86l3.6.22 3.4.36 3.28.48 3.15.6 3.04.72 2.96.83 2.9.94 2.85 1.05 2.8 1.18 2.8 1.32 2.8 1.46 2.84 1.64 2.85 1.82 2.94 2.04 3.03 2.3 3.2 2.66 3.4 3.07 3.76 3.68 4.3 4.62 5.48 6.36 13.88 17.45h-7.66l-10.84-13.63-5.32-6.17-4.15-4.42-3.58-3.5-3.22-2.9-3-2.48-2.84-2.16-2.73-1.9-2.65-1.68-2.6-1.5-2.6-1.36-2.56-1.2-2.58-1.1-2.62-.97-2.65-.86-2.73-.77-2.8-.66-2.9-.55-3.02-.44-3.17-.34-3.34-.2-.6-.02.12-6z" fill="#ffbd50"/><path d="M1390.1 976.62l-.13 6-3.5-.07.5-3-.5-3zM1545.76 1080.52l-.5 3 .5 3h-3.56v-6z" fill="#ffbd50"/><use xlink:href="#l" transform="matrix(1,0,0,1,1451.6201184148945,1031.4257854460075) translate(0.004999999999999005 12.444444444444446)"/><path d="M1670.85 975.94c0 5.52-4.45 10-9.94 10-5.5 0-9.94-4.48-9.94-10s4.45-10 9.95-10c5.5 0 9.95 4.48 9.95 10zM1566.17 1083.52c0 5.52-4.45 10-9.94 10-5.5 0-9.94-4.48-9.94-10 0-5.53 4.44-10 9.93-10 5.5 0 9.94 4.47 9.94 10z" stroke="#ffbd50" stroke-width="2" fill="#ffbd50"/><path d="M538.43 495.16c0 5.52-4.48 10-10 10-5.53 0-10-4.48-10-10 0-5.53 4.47-10 10-10 5.52 0 10 4.47 10 10zM240 370c0 5.52-4.48 10-10 10s-10-4.48-10-10 4.48-10 10-10 10 4.48 10 10zM240 481.93c0 5.52-4.48 10-10 10s-10-4.48-10-10c0-5.53 4.48-10 10-10s10 4.47 10 10zM289.5 618.83c0 5.52-4.47 10-10 10-5.52 0-10-4.48-10-10s4.48-10 10-10c5.53 0 10 4.48 10 10z" stroke="#eb6b6b" stroke-width="2" fill="#eb6b6b"/><path d="M397.33 444.7l11.08 9.2 8.16 6.2 7.02 4.9 6.42 4.06 6.1 3.52 5.9 3.1 5.82 2.73 5.83 2.46 5.9 2.2 6.03 1.96 6.23 1.73 6.5 1.52 6.8 1.3 7.23 1.07 7.72.8 8.32.53 6.1.13-.12 6-6.23-.13-8.57-.54-7.97-.84-7.47-1.1-7.05-1.35-6.73-1.58-6.47-1.8-6.28-2.05-6.13-2.28-6.06-2.55-6.06-2.86-6.12-3.2-6.3-3.64-6.64-4.22-7.23-5.02-8.36-6.36-11.23-9.32-39.66-34.73h9.1zM250.3 367.2l8.58.53 7.96.83 7.47 1.1 7.08 1.35 6.73 1.6 6.48 1.8 6.27 2.04 6.14 2.28 6.05 2.55 6.06 2.84 6.13 3.22 6.3 3.64 6.64 4.2 1.02.72h-11.14l-5.72-3.3-5.9-3.1-5.83-2.73-5.82-2.45-5.9-2.2-6.03-1.96-6.23-1.74-6.5-1.52-6.8-1.3-7.23-1.06-7.72-.8-8.32-.53-6.1-.14.1-6z" fill="#eb6b6b"/><path d="M517.85 492.17l-.06.13-.38 2.87.48 3-3.62-.08.12-6zM244.1 367v6h-3.57l.48-3-.37-2.86-.06-.14z" fill="#eb6b6b"/><use xlink:href="#m" transform="matrix(1,0,0,1,297.884923492457,395.8838991751623) translate(0.005000000000002558 12.444444444444446)"/><use xlink:href="#n" transform="matrix(1,0,0,1,297.884923492457,395.8838991751623) translate(29.25808641975309 12.444444444444446)"/><path d="M406.52 488.03l46.08 2.9 61.87 1.17-.1 6-62.02-1.16-46.26-2.92-9.9-.78v-6.02zm-118.98-8.23v6l-43.6-.82.12-6z" fill="#eb6b6b"/><path d="M517.85 492.16l-.06.14-.38 2.87.48 3-3.62-.07.1-6zM244.1 478.93v6h-3.57l.48-3-.37-2.86-.06-.14z" fill="#eb6b6b"/><use xlink:href="#o" transform="matrix(1,0,0,1,287.5390903371904,476.6327045232065) translate(0.005000000000002558 12.444444444444446)"/><use xlink:href="#p" transform="matrix(1,0,0,1,287.5390903371904,476.6327045232065) translate(62.961790123456794 12.444444444444446)"/><path d="M375.8 589.65l-5.57 4.62-5.1 3.87-4.8 3.34-4.62 2.93-4.5 2.62-4.44 2.32-4.44 2.1-4.46 1.87-4.52 1.7-4.6 1.5-4.76 1.3-4.9 1.16-5.12.98-5.36.8-5.65.58-6 .38-3.37.07-.13-6 3.25-.07 5.75-.36 5.4-.57 5.1-.75 4.88-.93 4.66-1.1 4.5-1.26 4.37-1.42 4.28-1.6 4.23-1.77 4.2-1.98 4.24-2.2 4.28-2.5 4.4-2.78 4.6-3.2 4.9-3.73 2.28-1.9h9.2zm138.68-91.43l-3.24.07-5.76.35-5.4.56-5.1.77-4.87.92-4.66 1.1-4.5 1.24-4.37 1.43-4.3 1.6-4.22 1.77-4.2 1.98-4.23 2.2-4.3 2.48-4.4 2.8-4.6 3.2-4.9 3.72-5.37 4.46-6.24 5.63-8.16 8.03-25.25 26.5h-8.3l29.26-30.7 8.34-8.2 6.43-5.8 5.57-4.6 5.1-3.9 4.8-3.33 4.62-2.93 4.5-2.6 4.45-2.33 4.44-2.08 4.47-1.88 4.52-1.68 4.6-1.5 4.75-1.32 4.9-1.16 5.12-.97 5.36-.8 5.65-.58 6-.38 3.37-.08z" fill="#eb6b6b"/><path d="M517.8 492.3l-.38 2.87.48 2.98-3.5.07-.12-6 3.58-.07zM293.6 621.83h-3.57l.5-3-.4-2.86-.05-.14h3.5z" fill="#eb6b6b"/><use xlink:href="#q" transform="matrix(1,0,0,1,332.48489789266614,569.0166945562725) translate(0 12.444444444444446)"/><use xlink:href="#r" transform="matrix(1,0,0,1,332.48489789266614,569.0166945562725) translate(49 12.444444444444446)"/><path d="M663.76 890.1l-9.85 9.65-8.4 7.58-7.62 6.32-7.13 5.4-6.8 4.75-6.6 4.2-6.5 3.73-6.4 3.35-6.4 3-6.44 2.72-6.52 2.43-6.65 2.16-6.82 1.9-7.03 1.65-7.3 1.4-7.64 1.12-8.03.84-8.48.54-3.93.08-.22-10 3.73-.07 8.07-.5 7.6-.8 7.22-1.07 6.9-1.32 6.62-1.55 6.42-1.8 6.26-2.02 6.13-2.28 6.05-2.54 6.03-2.84 6.04-3.16 6.1-3.53 6.26-3.96 6.47-4.5 6.8-5.16 7.3-6.04 8.1-7.3 9.43-9.25 23.73-26.96h13.32zm197.9-138.83l-3.72.08-8.06.5-7.6.8-7.23 1.07-6.9 1.32-6.63 1.55-6.42 1.78-6.25 2.03-6.13 2.3-6.06 2.54-6.02 2.84-6.04 3.15-6.1 3.53-6.25 3.97-6.47 4.5-6.8 5.16-7.3 6.03-8.1 7.3-9.5 9.3-12.68 13.57-11.42 12.97h-13.32l17.34-19.7 12.94-13.82 9.8-9.6 8.4-7.6 7.63-6.3 7.13-5.42 6.8-4.73 6.6-4.2 6.48-3.73 6.4-3.35 6.42-3.02 6.44-2.7 6.52-2.43 6.65-2.16 6.84-1.9 7.04-1.65 7.3-1.4 7.64-1.12 8.02-.84 8.48-.54 3.93-.08z" fill="#3fb8b9"/><path d="M866.56 751.17l-5.03.1-.2-10 5.23-.1zM529.22 953.03h-6.48l.8-1.53.55-3.46-.4-2.87-.87-2.14h6.4z" fill="#3fb8b9"/><use xlink:href="#s" transform="matrix(1,0,0,1,645.0282016509758,837.5740431366851) translate(0 12.444444444444446)"/><path d="M523.08 948.03c0 5.52-4.48 10-10 10s-10-4.48-10-10c0-5.53 4.48-10 10-10s10 4.47 10 10z" stroke="#3fb8b9" stroke-width="2" fill="#3fb8b9"/><path d="M371.18 936.2l6.28.43 5.14.55 4.25.64 3.57.7 3.02.7 2.6.75 2.23.73 1.95.74 1.72.72 1.52.73 1.36.7 1.2.7 1.06.68 3.12 2 3.52 2.02 3.37 1.7 3.27 1.47 3.23 1.24 3.22 1.05 3.25.87 3.3.7 3.43.56 3.6.4 3.82.2h4.15l4.6-.2 5.22-.54 6.16-.95 7.67-1.6 10.5-2.76 15.77-5.05 1.83 5.7-15.9 5.1-10.83 2.84-7.98 1.66-6.47 1-5.54.55-4.9.24-4.46-.02-4.13-.23-3.9-.42-3.72-.6-3.62-.77-3.55-.95-3.5-1.14-3.52-1.35-3.56-1.57-3.65-1.85-3.78-2.17-3.26-2.07-.93-.6-1-.58-1.13-.6-1.3-.6L398 947l-1.73-.64-2-.65-2.34-.66-2.78-.66-3.3-.64-4.02-.6-4.9-.54-6.02-.4-7.52-.18-9.5.17-1.06.06v-6l.84-.06 9.74-.18zm-67.58 11.82l-15.3 2.85-19.23 4.43-14.9 4.08-7.28 2.32-1.83-5.72 7.38-2.35 15.15-4.15 19.5-4.48 16.5-3.1z" fill="#3fb8b9"/><path d="M502.45 945.17l-.38 2.87.48 2.98-2.5.8-1.83-5.7 4.42-1.43zM247 961.6l-3.35 1.15-.52-2.98-1.3-2.6-.1-.1 3.32-1.15z" fill="#3fb8b9"/><use xlink:href="#t" transform="matrix(1,0,0,1,303.60129658628307,931.9606358020903) translate(0 12.444444444444446)"/><path d="M242.17 960.1c1.8 5.2-.97 10.9-6.2 12.7-5.2 1.8-10.9-.96-12.7-6.18-1.8-5.22.96-10.9 6.18-12.7 5.22-1.82 10.92.95 12.72 6.17z" stroke="#3fb8b9" stroke-width="2" fill="#3fb8b9"/><path d="M380.42 1027.37l-28.18 20.22-9.93 6.15-10.3 5.7-12.34 6.02-16.5 7.06-20.6 7.63-2.1-5.63 20.47-7.58 16.24-6.93 12.06-5.9 10.05-5.55 9.63-5.98 25.4-18.22h9.96zm119.87-75.5l-6.84 2.53-9.8 4.1-10.1 4.72-10.5 5.47-11.15 6.4-12.13 7.67-14.05 9.73-17.37 13.2h-9.88l1.5-1.16 22.22-16.9 14.25-9.88 12.36-7.8 11.37-6.53 10.74-5.6 10.34-4.82 10.03-4.18 6.95-2.57z" fill="#3fb8b9"/><path d="M502.45 945.17l-.38 2.87.48 3-2.33.87-2.08-5.62 4.54-1.68zM282.62 1080.13l-3.4 1.26-.52-3-1.3-2.6-.1-.1 3.24-1.2z" fill="#3fb8b9"/><use xlink:href="#u" transform="matrix(1,0,0,1,322.186247451024,1005.712578622468) translate(0 12.444444444444446)"/><use xlink:href="#v" transform="matrix(1,0,0,1,322.186247451024,1005.712578622468) translate(79.37654320987656 12.444444444444446)"/><use xlink:href="#w" transform="matrix(1,0,0,1,322.186247451024,1005.712578622468) translate(96.66049382716051 12.444444444444446)"/><use xlink:href="#x" transform="matrix(1,0,0,1,470.5453253067076,958.1367226591915) translate(0 12.444444444444446)"/><use xlink:href="#y" transform="matrix(1,0,0,1,470.5453253067076,958.1367226591915) translate(48.39506172839506 12.444444444444446)"/><use xlink:href="#z" transform="matrix(1,0,0,1,470.5453253067076,958.1367226591915) translate(70 12.444444444444446)"/><use xlink:href="#A" transform="matrix(1,0,0,1,470.5453253067076,958.1367226591915) translate(114.85185185185185 12.444444444444446)"/><path d="M277.74 1078.72c1.8 5.22-.96 10.9-6.18 12.72-5.22 1.8-10.92-.97-12.72-6.2-1.8-5.2.96-10.9 6.18-12.7 5.22-1.8 10.92.96 12.72 6.18z" stroke="#3fb8b9" stroke-width="2" fill="#3fb8b9"/><path d="M741.74 668.33l9.06 11.46 7.65 8.86 6.8 7.24 6.2 6.08 5.8 5.22 5.48 4.55 5.28 4 5.1 3.56 5 3.17 4.9 2.84 4.87 2.55 4.84 2.28 4.87 2.04 4.9 1.82 4.96 1.6 5.05 1.42 5.18 1.2 5.33 1.03 5.5.8 5.74.6 6 .4 1.42.02-.2 10-1.64-.04-6.42-.4-6.15-.65-5.93-.87-5.74-1.1-5.6-1.3-5.44-1.52-5.36-1.74-5.3-1.97-5.23-2.2-5.23-2.46-5.23-2.73-5.28-3.04-5.34-3.4-5.46-3.78-5.6-4.26-5.82-4.83-6.1-5.5-6.5-6.38-7.1-7.55-7.9-9.2-9.43-11.9-45-66.4h12.07zM546.17 490.3l6.42.4 6.15.65 5.93.87 5.74 1.1 5.58 1.3 5.46 1.53 5.36 1.74 5.3 1.96 5.23 2.2 5.22 2.46 5.24 2.74 5.28 3.04 5.34 3.4 5.45 3.78 5.6 4.26 5.82 4.82 6.1 5.5 6.5 6.38 7.08 7.54 7.93 9.2L672.3 567l12.56 17.35 3.25 4.8h-12.13l-11.67-16.1-9.1-11.53-7.66-8.88-6.78-7.23-6.2-6.08-5.8-5.22-5.5-4.55-5.27-4-5.12-3.56-5-3.16-4.9-2.84-4.86-2.54-4.84-2.28-4.86-2.04-4.9-1.82-4.95-1.62-5.06-1.4-5.16-1.22-5.33-1.02-5.5-.8-5.74-.6-6-.4-1.42-.02.2-10z" fill="#eb6b6b"/><path d="M544.67 490.26l-.2 10-6.36-.13.78-1.5.56-3.46-.38-2.87-.9-2.17zM866.56 741.17v10h-5.13v-10z" fill="#eb6b6b"/><g><use xlink:href="#B" transform="matrix(1,0,0,1,577.8913028591465,589.1716543454625) translate(0.0049999999999954525 12.444444444444446)"/><use xlink:href="#C" transform="matrix(1,0,0,1,577.8913028591465,589.1716543454625) translate(57.04203703703703 12.444444444444446)"/><use xlink:href="#D" transform="matrix(1,0,0,1,577.8913028591465,589.1716543454625) translate(115.72104938271605 12.444444444444446)"/><use xlink:href="#E" transform="matrix(1,0,0,1,577.8913028591465,589.1716543454625) translate(150.24574074074076 12.444444444444446)"/></g><path d="M1429.53 954.9l-6.17 8.24-4.62 5.13-3.96 3.7-3.62 2.8-3.42 2.2-3.32 1.75-3.3 1.38-3.32 1.05-3.43.77-3.6.47-.7.03-.25-6 .44-.02 3.06-.4 2.92-.64 2.82-.9 2.8-1.18 2.86-1.5 2.97-1.9 3.2-2.5 3.56-3.32 4.26-4.73 5.87-7.84 13.93-21.93h7.12zm72.47-59.47l-3.97.14-6.2.73-5.34 1.07-4.76 1.36-4.35 1.65-4.1 1.95-3.97 2.3-3.93 2.75-4.04 3.33-.2.2h-8.57l.1-.1 4.65-4.55 4.42-3.66 4.34-3.03 4.4-2.55 4.53-2.16 4.8-1.82 5.24-1.5 5.82-1.18 6.67-.77 4.2-.17z" fill="#ffbd50"/><path d="M1390.16 982.42l-3.7.16.5-3.02-.48-2.98 3.42-.15zM1504.9 892.32l.47 2.98-3.44.13-.22-6 3.68-.13z" fill="#ffbd50"/><g><use xlink:href="#F" transform="matrix(1,0,0,1,1432.1228867809803,910.9043077697543) translate(0 12.444444444444446)"/></g><g><use xlink:href="#G" transform="matrix(1,0,0,1,1297.5691353403586,950.5207344838261) translate(0 12.444444444444446)"/><use xlink:href="#H" transform="matrix(1,0,0,1,1297.5691353403586,950.5207344838261) translate(66.41358024691358 12.444444444444446)"/></g><path d="M1525.8 892.32c0 5.52-4.46 10-9.95 10-5.5 0-9.95-4.48-9.95-10s4.46-10 9.95-10c5.5 0 9.94 4.48 9.94 10z" stroke="#ffbd50" stroke-width="2" fill="#ffbd50"/><path d="M744.68 493.16c0-4.42 3.58-8 8-8h435.56c4.42 0 8 3.58 8 8v26.14c0 4.42-3.58 8-8 8H752.68c-4.42 0-8-3.58-8-8z" stroke="#000" stroke-opacity="0" stroke-width="2" fill="#fff" fill-opacity="0"/><g><use xlink:href="#I" transform="matrix(1,0,0,1,748.6808510638298,489.157167451496) translate(23.83592592592595 23.657777777777778)"/><use xlink:href="#J" transform="matrix(1,0,0,1,748.6808510638298,489.157167451496) translate(137.39271604938273 23.657777777777778)"/><use xlink:href="#K" transform="matrix(1,0,0,1,748.6808510638298,489.157167451496) translate(217.3704938271605 23.657777777777778)"/><use xlink:href="#L" transform="matrix(1,0,0,1,748.6808510638298,489.157167451496) translate(287.22358024691357 23.657777777777778)"/></g><path d="M801.86 526.06h340.3M801.9 526.06h-1.04M1142.12 526.06h1.03" stroke="#b2b2b2" stroke-width="2" fill="none"/><defs><path fill="#fff" d="M194-120c59 52 2 134-86 124-53-6-90-18-98-63l31-7c8 30 29 43 70 43 46 0 84-17 71-62-32-43-135-20-137-98-3-89 178-90 191-16l-30 9c-8-48-127-53-127 5 0 53 81 35 115 65" id="M"/><path fill="#fff" d="M11 0l48-248h184l-5 28H87l-15 79h140l-5 27H67L50-27h158l-5 27H11" id="N"/><path fill="#fff" d="M173 0L80-213 41 0H11l48-248h37l94 214 40-214h30L212 0h-39" id="O"/><g id="a"><use transform="matrix(0.04320987654320988,0,0,0.04320987654320988,0,0)" xlink:href="#M"/><use transform="matrix(0.04320987654320988,0,0,0.04320987654320988,10.370370370370372,0)" xlink:href="#M"/><use transform="matrix(0.04320987654320988,0,0,0.04320987654320988,20.740740740740744,0)" xlink:href="#N"/><use transform="matrix(0.04320987654320988,0,0,0.04320987654320988,31.111111111111114,0)" xlink:href="#O"/><use transform="matrix(0.04320987654320988,0,0,0.04320987654320988,42.302469135802475,0)" xlink:href="#M"/><use transform="matrix(0.04320987654320988,0,0,0.04320987654320988,52.67283950617284,0)" xlink:href="#N"/></g><path fill="#fff" d="M222 0l43-216c-8 16-17 34-26 49L143 0h-22L81-216 41 0H11l48-248h42l38 208 116-208h45L252 0h-30" id="P"/><path fill="#fff" d="M165-48c-4 18 1 34 23 27l-3 20c-29 8-62 0-52-35h-2C116-14 99 4 63 4 30 4 8-16 8-49c0-68 71-67 138-67 10-26 0-56-31-54-26 1-42 9-47 31l-32-5c8-67 160-71 144 15-5 28-9 54-15 81zM42-50c3 52 80 24 89-6 7-12 7-24 11-38-47 1-103-4-100 44" id="Q"/><path fill="#fff" d="M50-231l6-30h32l-6 30H50zM6 0l37-190h31L37 0H6" id="R"/><path fill="#fff" d="M67-158c22-48 132-52 116 29L158 0h-32l25-140c3-38-53-32-70-12C52-117 51-52 38 0H6l36-190h30" id="S"/><g id="b"><use transform="matrix(0.04320987654320988,0,0,0.04320987654320988,0,0)" xlink:href="#P"/><use transform="matrix(0.04320987654320988,0,0,0.04320987654320988,12.919753086419755,0)" xlink:href="#Q"/><use transform="matrix(0.04320987654320988,0,0,0.04320987654320988,21.56172839506173,0)" xlink:href="#R"/><use transform="matrix(0.04320987654320988,0,0,0.04320987654320988,24.97530864197531,0)" xlink:href="#S"/></g><path fill="#fff" d="M238-179c0 84-86 86-175 82L45 0H11l48-248c82 0 179-12 179 69zm-34 1c0-53-64-42-116-43l-19 98c63 0 135 9 135-55" id="T"/><path fill="#fff" d="M103-194c29 0 47 14 56 36 2-11 5-23 8-32h30L160-5C157 61 82 97 21 62 9 55 4 45 1 30l28-7c7 42 83 31 92-3 4-16 9-38 13-55-13 20-29 36-62 36-40 0-60-25-60-64 0-71 23-131 91-131zm4 24c-53 0-58 54-61 104-2 27 10 44 36 44 49 0 65-50 67-102 1-29-15-46-42-46" id="U"/><path fill="#fff" d="M111-194c62-3 86 47 72 106H45c-7 38 6 69 45 68 27-1 43-14 53-32l24 11C152-15 129 4 87 4 38 3 12-23 12-71c0-70 32-119 99-123zm44 81c14-66-71-72-95-28-4 8-8 17-11 28h106" id="V"/><g id="c"><use transform="matrix(0.04320987654320988,0,0,0.04320987654320988,0,0)" xlink:href="#T"/><use transform="matrix(0.04320987654320988,0,0,0.04320987654320988,10.370370370370372,0)" xlink:href="#Q"/><use transform="matrix(0.04320987654320988,0,0,0.04320987654320988,19.01234567901235,0)" xlink:href="#U"/><use transform="matrix(0.04320987654320988,0,0,0.04320987654320988,27.654320987654323,0)" xlink:href="#V"/></g><path fill="#666" d="M151-220L108 0H75l42-220H32l6-28h203l-5 28h-85" id="W"/><path fill="#666" d="M66-151c12-25 30-51 66-40l-6 26C45-176 58-65 38 0H6l36-190h30" id="X"/><path fill="#666" d="M111-194c62-3 86 47 72 106H45c-7 38 6 69 45 68 27-1 43-14 53-32l24 11C152-15 129 4 87 4 38 3 12-23 12-71c0-70 32-119 99-123zm44 81c14-66-71-72-95-28-4 8-8 17-11 28h106" id="Y"/><path fill="#666" d="M67-158c22-48 132-52 116 29L158 0h-32l25-140c3-38-53-32-70-12C52-117 51-52 38 0H6l36-190h30" id="Z"/><path fill="#666" d="M133-28C103 26-5 8 13-77c13-62 24-115 90-117 29-1 46 15 56 35l19-102h32L160 0h-30zM45-64c-2 27 10 43 35 43 54-1 69-50 69-103 0-29-15-46-42-46-53-1-58 58-62 106" id="aa"/><path fill="#666" d="M50-231l6-30h32l-6 30H50zM6 0l37-190h31L37 0H6" id="ab"/><path fill="#666" d="M103-194c29 0 47 14 56 36 2-11 5-23 8-32h30L160-5C157 61 82 97 21 62 9 55 4 45 1 30l28-7c7 42 83 31 92-3 4-16 9-38 13-55-13 20-29 36-62 36-40 0-60-25-60-64 0-71 23-131 91-131zm4 24c-53 0-58 54-61 104-2 27 10 44 36 44 49 0 65-50 67-102 1-29-15-46-42-46" id="ac"/><g id="d"><use transform="matrix(0.04320987654320988,0,0,0.04320987654320988,0,0)" xlink:href="#W"/><use transform="matrix(0.04320987654320988,0,0,0.04320987654320988,8.296296296296298,0)" xlink:href="#X"/><use transform="matrix(0.04320987654320988,0,0,0.04320987654320988,13.438271604938272,0)" xlink:href="#Y"/><use transform="matrix(0.04320987654320988,0,0,0.04320987654320988,22.080246913580247,0)" xlink:href="#Z"/><use transform="matrix(0.04320987654320988,0,0,0.04320987654320988,30.72222222222222,0)" xlink:href="#aa"/><use transform="matrix(0.04320987654320988,0,0,0.04320987654320988,39.364197530864196,0)" xlink:href="#ab"/><use transform="matrix(0.04320987654320988,0,0,0.04320987654320988,42.77777777777778,0)" xlink:href="#Z"/><use transform="matrix(0.04320987654320988,0,0,0.04320987654320988,51.419753086419746,0)" xlink:href="#ac"/></g><path fill="#666" d="M125-24c46 0 70-25 89-51l25 16C214-24 183 4 123 4 8 4-5-146 60-208c32-50 158-61 191-5 5 7 9 14 11 22l-32 10c-9-28-33-43-69-43-74 0-108 51-108 125 0 46 24 75 72 75" id="ad"/><path fill="#666" d="M165-48c-4 18 1 34 23 27l-3 20c-29 8-62 0-52-35h-2C116-14 99 4 63 4 30 4 8-16 8-49c0-68 71-67 138-67 10-26 0-56-31-54-26 1-42 9-47 31l-32-5c8-67 160-71 144 15-5 28-9 54-15 81zM42-50c3 52 80 24 89-6 7-12 7-24 11-38-47 1-103-4-100 44" id="ae"/><path fill="#666" d="M30-147c31-64 166-65 159 27C183-49 158 1 86 4 9 8 1-88 30-147zM88-20c53 0 68-48 68-100 0-31-11-51-44-50-52 1-68 46-68 97 0 32 13 53 44 53" id="af"/><path fill="#666" d="M67 3c-93-2-31-127-26-193h32L48-50c-3 39 53 32 70 12 30-34 30-101 43-152h32L157 0h-30c1-10 6-24 4-33-14 20-29 37-64 36" id="ag"/><path fill="#666" d="M55-144c13 50 104 24 104 88C159 21 15 23 1-39l26-10c6 40 102 42 102-4-13-50-104-23-104-87 0-71 143-71 148-8l-29 4c-5-35-85-37-89 0" id="ah"/><path fill="#666" d="M6 0l50-261h32L37 0H6" id="ai"/><g id="e"><use transform="matrix(0.04320987654320988,0,0,0.04320987654320988,0,0)" xlink:href="#ad"/><use transform="matrix(0.04320987654320988,0,0,0.04320987654320988,11.19135802469136,0)" xlink:href="#ae"/><use transform="matrix(0.04320987654320988,0,0,0.04320987654320988,19.833333333333336,0)" xlink:href="#X"/><use transform="matrix(0.04320987654320988,0,0,0.04320987654320988,24.97530864197531,0)" xlink:href="#af"/><use transform="matrix(0.04320987654320988,0,0,0.04320987654320988,33.617283950617285,0)" xlink:href="#ag"/><use transform="matrix(0.04320987654320988,0,0,0.04320987654320988,42.25925925925926,0)" xlink:href="#ah"/><use transform="matrix(0.04320987654320988,0,0,0.04320987654320988,50.037037037037045,0)" xlink:href="#Y"/><use transform="matrix(0.04320987654320988,0,0,0.04320987654320988,58.679012345679006,0)" xlink:href="#ai"/></g><path fill="#666" d="M119 0H84L31-248h34l41 218 126-218h36" id="aj"/><path fill="#666" d="M188 0h-37l-8-164L71 0H34L18-190h31l8 164 75-164h34l8 164 74-164h31" id="ak"/><g id="f"><use transform="matrix(0.04320987654320988,0,0,0.04320987654320988,0,0)" xlink:href="#aj"/><use transform="matrix(0.04320987654320988,0,0,0.04320987654320988,10.067901234567902,0)" xlink:href="#ab"/><use transform="matrix(0.04320987654320988,0,0,0.04320987654320988,13.481481481481483,0)" xlink:href="#Y"/><use transform="matrix(0.04320987654320988,0,0,0.04320987654320988,22.12345679012346,0)" xlink:href="#ak"/></g><path fill="#666" d="M219-77C219 17 104-2 11 0l48-248c73 2 169-15 169 57 0 38-24 54-60 60 29 5 51 21 51 54zm-26-111c0-44-62-31-105-33l-16 79c55 0 121 9 121-46zm-7 110c-1-49-69-36-119-38L50-27c61-1 137 12 136-51" id="al"/><g id="g"><use transform="matrix(0.04320987654320988,0,0,0.04320987654320988,0,0)" xlink:href="#al"/><use transform="matrix(0.04320987654320988,0,0,0.04320987654320988,10.370370370370372,0)" xlink:href="#X"/><use transform="matrix(0.04320987654320988,0,0,0.04320987654320988,15.512345679012347,0)" xlink:href="#ae"/><use transform="matrix(0.04320987654320988,0,0,0.04320987654320988,24.154320987654323,0)" xlink:href="#Z"/><use transform="matrix(0.04320987654320988,0,0,0.04320987654320988,32.7962962962963,0)" xlink:href="#aa"/></g><path fill="#666" d="M14 0l48-248h34L48 0H14" id="am"/><path fill="#666" d="M51-54c-9 22 5 41 31 30L79-1C43 14 10-4 19-52l22-115H19l5-23h22l19-43h21l-9 43h35l-4 23H73" id="an"/><path fill="#666" d="M248-111c6-24 9-61-24-58-72 9-57 108-77 169h-31l26-142c3-37-50-30-64-10C52-115 50-51 37 0H6l36-190h30c-1 10-6 24-4 32 13-43 101-52 105 5 13-22 29-41 61-41 90 0 28 129 23 194h-31" id="ao"/><g id="h"><use transform="matrix(0.04320987654320988,0,0,0.04320987654320988,0,0)" xlink:href="#am"/><use transform="matrix(0.04320987654320988,0,0,0.04320987654320988,4.320987654320988,0)" xlink:href="#an"/><use transform="matrix(0.04320987654320988,0,0,0.04320987654320988,8.641975308641976,0)" xlink:href="#Y"/><use transform="matrix(0.04320987654320988,0,0,0.04320987654320988,17.283950617283953,0)" xlink:href="#ao"/></g><path fill="#666" d="M173 0L80-213 41 0H11l48-248h37l94 214 40-214h30L212 0h-39" id="ap"/><g id="i"><use transform="matrix(0.04320987654320988,0,0,0.04320987654320988,0,0)" xlink:href="#ap"/><use transform="matrix(0.04320987654320988,0,0,0.04320987654320988,11.19135802469136,0)" xlink:href="#Y"/><use transform="matrix(0.04320987654320988,0,0,0.04320987654320988,19.833333333333336,0)" xlink:href="#ak"/></g><g id="j"><use transform="matrix(0.04320987654320988,0,0,0.04320987654320988,0,0)" xlink:href="#am"/><use transform="matrix(0.04320987654320988,0,0,0.04320987654320988,4.320987654320988,0)" xlink:href="#an"/><use transform="matrix(0.04320987654320988,0,0,0.04320987654320988,8.641975308641976,0)" xlink:href="#Y"/><use transform="matrix(0.04320987654320988,0,0,0.04320987654320988,17.283950617283953,0)" xlink:href="#ao"/><use transform="matrix(0.04320987654320988,0,0,0.04320987654320988,30.203703703703713,0)" xlink:href="#ah"/></g><path fill="#666" d="M238-179c0 84-86 86-175 82L45 0H11l48-248c82 0 179-12 179 69zm-34 1c0-53-64-42-116-43l-19 98c63 0 135 9 135-55" id="aq"/><g id="k"><use transform="matrix(0.04320987654320988,0,0,0.04320987654320988,0,0)" xlink:href="#aq"/><use transform="matrix(0.04320987654320988,0,0,0.04320987654320988,10.370370370370372,0)" xlink:href="#ae"/><use transform="matrix(0.04320987654320988,0,0,0.04320987654320988,19.01234567901235,0)" xlink:href="#Z"/><use transform="matrix(0.04320987654320988,0,0,0.04320987654320988,27.654320987654323,0)" xlink:href="#an"/><use transform="matrix(0.04320987654320988,0,0,0.04320987654320988,31.97530864197531,0)" xlink:href="#ah"/></g><path fill="#666" d="M194-120c59 52 2 134-86 124-53-6-90-18-98-63l31-7c8 30 29 43 70 43 46 0 84-17 71-62-32-43-135-20-137-98-3-89 178-90 191-16l-30 9c-8-48-127-53-127 5 0 53 81 35 115 65" id="ar"/><path fill="#666" d="M67-158c15-20 31-36 64-36 94 0 33 127 27 194h-32l25-140c3-38-53-32-70-12C52-117 51-51 37 0H6l51-261h31" id="as"/><g id="l"><use transform="matrix(0.04320987654320988,0,0,0.04320987654320988,0,0)" xlink:href="#ar"/><use transform="matrix(0.04320987654320988,0,0,0.04320987654320988,10.370370370370372,0)" xlink:href="#as"/><use transform="matrix(0.04320987654320988,0,0,0.04320987654320988,19.01234567901235,0)" xlink:href="#af"/><use transform="matrix(0.04320987654320988,0,0,0.04320987654320988,27.654320987654323,0)" xlink:href="#Y"/><use transform="matrix(0.04320987654320988,0,0,0.04320987654320988,36.2962962962963,0)" xlink:href="#ah"/></g><path fill="#666" d="M87-220l-18 92h140l-5 28H64L45 0H11l48-248h178l-5 28H87" id="at"/><g id="m"><use transform="matrix(0.04320987654320988,0,0,0.04320987654320988,0,0)" xlink:href="#at"/><use transform="matrix(0.04320987654320988,0,0,0.04320987654320988,9.462962962962964,0)" xlink:href="#ae"/><use transform="matrix(0.04320987654320988,0,0,0.04320987654320988,18.10493827160494,0)" xlink:href="#ai"/><use transform="matrix(0.04320987654320988,0,0,0.04320987654320988,21.51851851851852,0)" xlink:href="#ai"/></g><path fill="#666" d="M249-183c0 48-29 72-75 77L221 0h-36l-43-103H65L45 0H11l48-248c83 2 190-17 190 65zm-34 3c0-55-74-39-127-41l-18 92c63-1 145 13 145-51" id="au"/><path fill="#666" d="M44-68c0 29 11 47 38 47 30 0 42-19 51-41l28 9C148-21 126 4 82 4 31 4 10-29 12-85c3-77 74-140 146-93 12 8 15 23 18 40l-31 5c-1-22-13-36-36-36-52 0-65 49-65 101" id="av"/><g id="n"><use transform="matrix(0.04320987654320988,0,0,0.04320987654320988,0,0)" xlink:href="#au"/><use transform="matrix(0.04320987654320988,0,0,0.04320987654320988,11.19135802469136,0)" xlink:href="#ae"/><use transform="matrix(0.04320987654320988,0,0,0.04320987654320988,19.833333333333336,0)" xlink:href="#ab"/><use transform="matrix(0.04320987654320988,0,0,0.04320987654320988,23.246913580246915,0)" xlink:href="#Z"/><use transform="matrix(0.04320987654320988,0,0,0.04320987654320988,31.888888888888893,0)" xlink:href="#av"/><use transform="matrix(0.04320987654320988,0,0,0.04320987654320988,39.66666666666667,0)" xlink:href="#af"/><use transform="matrix(0.04320987654320988,0,0,0.04320987654320988,48.308641975308646,0)" xlink:href="#ae"/><use transform="matrix(0.04320987654320988,0,0,0.04320987654320988,56.95061728395062,0)" xlink:href="#an"/><use transform="matrix(0.04320987654320988,0,0,0.04320987654320988,61.27160493827161,0)" xlink:href="#ah"/></g><g id="o"><use transform="matrix(0.04320987654320988,0,0,0.04320987654320988,0,0)" xlink:href="#ar"/><use transform="matrix(0.04320987654320988,0,0,0.04320987654320988,10.370370370370372,0)" xlink:href="#ag"/><use transform="matrix(0.04320987654320988,0,0,0.04320987654320988,19.01234567901235,0)" xlink:href="#ao"/><use transform="matrix(0.04320987654320988,0,0,0.04320987654320988,31.9320987654321,0)" xlink:href="#ao"/><use transform="matrix(0.04320987654320988,0,0,0.04320987654320988,44.851851851851855,0)" xlink:href="#Y"/><use transform="matrix(0.04320987654320988,0,0,0.04320987654320988,53.49382716049383,0)" xlink:href="#X"/></g><path fill="#666" d="M127 0L80-88 50-66 37 0H6l51-261h31L57-100l99-90h39l-93 82L161 0h-34" id="aw"/><g id="p"><use transform="matrix(0.04320987654320988,0,0,0.04320987654320988,0,0)" xlink:href="#al"/><use transform="matrix(0.04320987654320988,0,0,0.04320987654320988,10.370370370370372,0)" xlink:href="#am"/><use transform="matrix(0.04320987654320988,0,0,0.04320987654320988,14.691358024691363,0)" xlink:href="#aw"/><use transform="matrix(0.04320987654320988,0,0,0.04320987654320988,22.46913580246914,0)" xlink:href="#ab"/><use transform="matrix(0.04320987654320988,0,0,0.04320987654320988,25.882716049382722,0)" xlink:href="#Z"/><use transform="matrix(0.04320987654320988,0,0,0.04320987654320988,34.5246913580247,0)" xlink:href="#ab"/><use transform="matrix(0.04320987654320988,0,0,0.04320987654320988,37.93827160493828,0)" xlink:href="#ah"/></g><path fill="#666" d="M247 0h-39l-15-214-24 57L95 0H56L31-248h35L82-30l101-218h33l16 218 101-218h35" id="ax"/><g id="q"><use transform="matrix(0.04320987654320988,0,0,0.04320987654320988,0,0)" xlink:href="#ax"/><use transform="matrix(0.04320987654320988,0,0,0.04320987654320988,14.51851851851852,0)" xlink:href="#ab"/><use transform="matrix(0.04320987654320988,0,0,0.04320987654320988,17.9320987654321,0)" xlink:href="#Z"/><use transform="matrix(0.04320987654320988,0,0,0.04320987654320988,26.574074074074076,0)" xlink:href="#an"/><use transform="matrix(0.04320987654320988,0,0,0.04320987654320988,30.895061728395063,0)" xlink:href="#Y"/><use transform="matrix(0.04320987654320988,0,0,0.04320987654320988,39.53703703703704,0)" xlink:href="#X"/></g><path fill="#666" d="M29-66c0 49 71 55 82 11 13-52 22-111 33-165H93l5-28h85L149-74C151 11 7 37-1-60" id="ay"/><g id="r"><use transform="matrix(0.04320987654320988,0,0,0.04320987654320988,0,0)" xlink:href="#ay"/><use transform="matrix(0.04320987654320988,0,0,0.04320987654320988,7.777777777777779,0)" xlink:href="#ae"/><use transform="matrix(0.04320987654320988,0,0,0.04320987654320988,16.419753086419753,0)" xlink:href="#av"/><use transform="matrix(0.04320987654320988,0,0,0.04320987654320988,24.19753086419753,0)" xlink:href="#aw"/><use transform="matrix(0.04320987654320988,0,0,0.04320987654320988,31.97530864197531,0)" xlink:href="#Y"/><use transform="matrix(0.04320987654320988,0,0,0.04320987654320988,40.617283950617285,0)" xlink:href="#an"/><use transform="matrix(0.04320987654320988,0,0,0.04320987654320988,44.93827160493828,0)" xlink:href="#ah"/></g><g id="s"><use transform="matrix(0.04320987654320988,0,0,0.04320987654320988,0,0)" xlink:href="#au"/><use transform="matrix(0.04320987654320988,0,0,0.04320987654320988,11.19135802469136,0)" xlink:href="#Y"/><use transform="matrix(0.04320987654320988,0,0,0.04320987654320988,19.833333333333336,0)" xlink:href="#av"/><use transform="matrix(0.04320987654320988,0,0,0.04320987654320988,27.611111111111114,0)" xlink:href="#av"/><use transform="matrix(0.04320987654320988,0,0,0.04320987654320988,35.38888888888889,0)" xlink:href="#af"/><use transform="matrix(0.04320987654320988,0,0,0.04320987654320988,44.03086419753087,0)" xlink:href="#ao"/><use transform="matrix(0.04320987654320988,0,0,0.04320987654320988,56.95061728395062,0)" xlink:href="#Y"/><use transform="matrix(0.04320987654320988,0,0,0.04320987654320988,65.5925925925926,0)" xlink:href="#Z"/><use transform="matrix(0.04320987654320988,0,0,0.04320987654320988,74.23456790123457,0)" xlink:href="#aa"/><use transform="matrix(0.04320987654320988,0,0,0.04320987654320988,82.87654320987654,0)" xlink:href="#Y"/><use transform="matrix(0.04320987654320988,0,0,0.04320987654320988,91.51851851851853,0)" xlink:href="#aa"/></g><g id="t"><use transform="matrix(0.04320987654320988,0,0,0.04320987654320988,0,0)" xlink:href="#al"/><use transform="matrix(0.04320987654320988,0,0,0.04320987654320988,10.370370370370372,0)" xlink:href="#X"/><use transform="matrix(0.04320987654320988,0,0,0.04320987654320988,15.512345679012347,0)" xlink:href="#ae"/><use transform="matrix(0.04320987654320988,0,0,0.04320987654320988,24.154320987654323,0)" xlink:href="#Z"/><use transform="matrix(0.04320987654320988,0,0,0.04320987654320988,32.7962962962963,0)" xlink:href="#aa"/><use transform="matrix(0.04320987654320988,0,0,0.04320987654320988,41.43827160493827,0)" xlink:href="#ah"/></g><g id="u"><use transform="matrix(0.04320987654320988,0,0,0.04320987654320988,0,0)" xlink:href="#ad"/><use transform="matrix(0.04320987654320988,0,0,0.04320987654320988,11.19135802469136,0)" xlink:href="#ae"/><use transform="matrix(0.04320987654320988,0,0,0.04320987654320988,19.833333333333336,0)" xlink:href="#an"/><use transform="matrix(0.04320987654320988,0,0,0.04320987654320988,24.154320987654323,0)" xlink:href="#Y"/><use transform="matrix(0.04320987654320988,0,0,0.04320987654320988,32.7962962962963,0)" xlink:href="#ac"/><use transform="matrix(0.04320987654320988,0,0,0.04320987654320988,41.43827160493827,0)" xlink:href="#af"/><use transform="matrix(0.04320987654320988,0,0,0.04320987654320988,50.08024691358024,0)" xlink:href="#X"/><use transform="matrix(0.04320987654320988,0,0,0.04320987654320988,55.22222222222222,0)" xlink:href="#ab"/><use transform="matrix(0.04320987654320988,0,0,0.04320987654320988,58.63580246913581,0)" xlink:href="#Y"/><use transform="matrix(0.04320987654320988,0,0,0.04320987654320988,67.27777777777779,0)" xlink:href="#ah"/></g><path fill="#666" d="M76-167L44 0H12l33-167H18l4-23h27c3-47 25-81 82-69l-4 24c-35-8-44 15-46 45h37l-5 23H76" id="az"/><g id="v"><use transform="matrix(0.04320987654320988,0,0,0.04320987654320988,0,0)" xlink:href="#af"/><use transform="matrix(0.04320987654320988,0,0,0.04320987654320988,8.641975308641976,0)" xlink:href="#az"/></g><g id="w"><use transform="matrix(0.04320987654320988,0,0,0.04320987654320988,0,0)" xlink:href="#am"/><use transform="matrix(0.04320987654320988,0,0,0.04320987654320988,4.320987654320988,0)" xlink:href="#W"/><use transform="matrix(0.04320987654320988,0,0,0.04320987654320988,12.358024691358025,0)" xlink:href="#Y"/><use transform="matrix(0.04320987654320988,0,0,0.04320987654320988,21,0)" xlink:href="#ao"/><use transform="matrix(0.04320987654320988,0,0,0.04320987654320988,33.91975308641975,0)" xlink:href="#ah"/></g><path fill="#666" d="M160-131c35 5 61 23 61 61C221 17 115-2 30 0v-248c76 3 177-17 177 60 0 33-19 50-47 57zm-97-11c50-1 110 9 110-42 0-47-63-36-110-37v79zm0 115c55-2 124 14 124-45 0-56-70-42-124-44v89" id="aA"/><path fill="#666" d="M141-36C126-15 110 5 73 4 37 3 15-17 15-53c-1-64 63-63 125-63 3-35-9-54-41-54-24 1-41 7-42 31l-33-3c5-37 33-52 76-52 45 0 72 20 72 64v82c-1 20 7 32 28 27v20c-31 9-61-2-59-35zM48-53c0 20 12 33 32 33 41-3 63-29 60-74-43 2-92-5-92 41" id="aB"/><path fill="#666" d="M135-143c-3-34-86-38-87 0 15 53 115 12 119 90S17 21 10-45l28-5c4 36 97 45 98 0-10-56-113-15-118-90-4-57 82-63 122-42 12 7 21 19 24 35" id="aC"/><path fill="#666" d="M100-194c63 0 86 42 84 106H49c0 40 14 67 53 68 26 1 43-12 49-29l28 8c-11 28-37 45-77 45C44 4 14-33 15-96c1-61 26-98 85-98zm52 81c6-60-76-77-97-28-3 7-6 17-6 28h103" id="aD"/><path fill="#666" d="M85-194c31 0 48 13 60 33l-1-100h32l1 261h-30c-2-10 0-23-3-31C134-8 116 4 85 4 32 4 16-35 15-94c0-66 23-100 70-100zm9 24c-40 0-46 34-46 75 0 40 6 74 45 74 42 0 51-32 51-76 0-42-9-74-50-73" id="aE"/><g id="x"><use transform="matrix(0.04320987654320988,0,0,0.04320987654320988,0,0)" xlink:href="#aA"/><use transform="matrix(0.04320987654320988,0,0,0.04320987654320988,10.370370370370372,0)" xlink:href="#aB"/><use transform="matrix(0.04320987654320988,0,0,0.04320987654320988,19.01234567901235,0)" xlink:href="#aC"/><use transform="matrix(0.04320987654320988,0,0,0.04320987654320988,26.790123456790127,0)" xlink:href="#aD"/><use transform="matrix(0.04320987654320988,0,0,0.04320987654320988,35.4320987654321,0)" xlink:href="#aE"/></g><path fill="#666" d="M100-194c62-1 85 37 85 99 1 63-27 99-86 99S16-35 15-95c0-66 28-99 85-99zM99-20c44 1 53-31 53-75 0-43-8-75-51-75s-53 32-53 75 10 74 51 75" id="aF"/><path fill="#666" d="M117-194c89-4 53 116 60 194h-32v-121c0-31-8-49-39-48C34-167 62-67 57 0H25l-1-190h30c1 10-1 24 2 32 11-22 29-35 61-36" id="aG"/><g id="y"><use transform="matrix(0.04320987654320988,0,0,0.04320987654320988,0,0)" xlink:href="#aF"/><use transform="matrix(0.04320987654320988,0,0,0.04320987654320988,8.641975308641976,0)" xlink:href="#aG"/></g><path fill="#666" d="M232-93c-1 65-40 97-104 97C67 4 28-28 28-90v-158h33c8 89-33 224 67 224 102 0 64-133 71-224h33v155" id="aH"/><path fill="#666" d="M114-163C36-179 61-72 57 0H25l-1-190h30c1 12-1 29 2 39 6-27 23-49 58-41v29" id="aI"/><g id="z"><use transform="matrix(0.04320987654320988,0,0,0.04320987654320988,0,0)" xlink:href="#aH"/><use transform="matrix(0.04320987654320988,0,0,0.04320987654320988,11.19135802469136,0)" xlink:href="#aC"/><use transform="matrix(0.04320987654320988,0,0,0.04320987654320988,18.96913580246914,0)" xlink:href="#aD"/><use transform="matrix(0.04320987654320988,0,0,0.04320987654320988,27.611111111111114,0)" xlink:href="#aI"/><use transform="matrix(0.04320987654320988,0,0,0.04320987654320988,32.75308641975309,0)" xlink:href="#aC"/></g><path fill="#666" d="M106-169C34-169 62-67 57 0H25v-261h32l-1 103c12-21 28-36 61-36 89 0 53 116 60 194h-32v-121c2-32-8-49-39-48" id="aJ"/><path fill="#666" d="M24-231v-30h32v30H24zM24 0v-190h32V0H24" id="aK"/><path fill="#666" d="M59-47c-2 24 18 29 38 22v24C64 9 27 4 27-40v-127H5v-23h24l9-43h21v43h35v23H59v120" id="aL"/><path fill="#666" d="M179-190L93 31C79 59 56 82 12 73V49c39 6 53-20 64-50L1-190h34L92-34l54-156h33" id="aM"/><g id="A"><use transform="matrix(0.04320987654320988,0,0,0.04320987654320988,0,0)" xlink:href="#aJ"/><use transform="matrix(0.04320987654320988,0,0,0.04320987654320988,8.641975308641976,0)" xlink:href="#aK"/><use transform="matrix(0.04320987654320988,0,0,0.04320987654320988,12.055555555555557,0)" xlink:href="#aC"/><use transform="matrix(0.04320987654320988,0,0,0.04320987654320988,19.833333333333336,0)" xlink:href="#aL"/><use transform="matrix(0.04320987654320988,0,0,0.04320987654320988,24.154320987654323,0)" xlink:href="#aF"/><use transform="matrix(0.04320987654320988,0,0,0.04320987654320988,32.7962962962963,0)" xlink:href="#aI"/><use transform="matrix(0.04320987654320988,0,0,0.04320987654320988,37.93827160493827,0)" xlink:href="#aM"/></g><g id="B"><use transform="matrix(0.04320987654320988,0,0,0.04320987654320988,0,0)" xlink:href="#ar"/><use transform="matrix(0.04320987654320988,0,0,0.04320987654320988,10.370370370370372,0)" xlink:href="#Y"/><use transform="matrix(0.04320987654320988,0,0,0.04320987654320988,19.01234567901235,0)" xlink:href="#ae"/><use transform="matrix(0.04320987654320988,0,0,0.04320987654320988,27.654320987654323,0)" xlink:href="#ah"/><use transform="matrix(0.04320987654320988,0,0,0.04320987654320988,35.4320987654321,0)" xlink:href="#af"/><use transform="matrix(0.04320987654320988,0,0,0.04320987654320988,44.074074074074076,0)" xlink:href="#Z"/></g><path fill="#666" d="M67-162c32-53 139-36 121 50C175-51 163 2 97 4 68 4 52-11 42-31 38 6 28 39 22 75H-9l50-265h29c-1 10 0 20-3 28zm89 36c0-26-10-43-35-43-54 0-67 50-69 103-1 29 14 45 42 46 53 0 62-58 62-106" id="aN"/><g id="C"><use transform="matrix(0.04320987654320988,0,0,0.04320987654320988,0,0)" xlink:href="#ar"/><use transform="matrix(0.04320987654320988,0,0,0.04320987654320988,10.370370370370372,0)" xlink:href="#aN"/><use transform="matrix(0.04320987654320988,0,0,0.04320987654320988,19.01234567901235,0)" xlink:href="#Y"/><use transform="matrix(0.04320987654320988,0,0,0.04320987654320988,27.654320987654323,0)" xlink:href="#av"/><use transform="matrix(0.04320987654320988,0,0,0.04320987654320988,35.4320987654321,0)" xlink:href="#ab"/><use transform="matrix(0.04320987654320988,0,0,0.04320987654320988,38.845679012345684,0)" xlink:href="#az"/><use transform="matrix(0.04320987654320988,0,0,0.04320987654320988,43.16666666666667,0)" xlink:href="#ab"/><use transform="matrix(0.04320987654320988,0,0,0.04320987654320988,46.580246913580254,0)" xlink:href="#av"/></g><g id="D"><use transform="matrix(0.04320987654320988,0,0,0.04320987654320988,0,0)" xlink:href="#am"/><use transform="matrix(0.04320987654320988,0,0,0.04320987654320988,4.320987654320988,0)" xlink:href="#an"/><use transform="matrix(0.04320987654320988,0,0,0.04320987654320988,8.641975308641976,0)" xlink:href="#Y"/><use transform="matrix(0.04320987654320988,0,0,0.04320987654320988,17.283950617283953,0)" xlink:href="#ao"/></g><g id="E"><use transform="matrix(0.04320987654320988,0,0,0.04320987654320988,0,0)" xlink:href="#aq"/><use transform="matrix(0.04320987654320988,0,0,0.04320987654320988,10.370370370370372,0)" xlink:href="#X"/><use transform="matrix(0.04320987654320988,0,0,0.04320987654320988,15.512345679012347,0)" xlink:href="#af"/><use transform="matrix(0.04320987654320988,0,0,0.04320987654320988,24.154320987654323,0)" xlink:href="#ao"/><use transform="matrix(0.04320987654320988,0,0,0.04320987654320988,37.074074074074076,0)" xlink:href="#af"/><use transform="matrix(0.04320987654320988,0,0,0.04320987654320988,45.71604938271605,0)" xlink:href="#an"/><use transform="matrix(0.04320987654320988,0,0,0.04320987654320988,50.037037037037045,0)" xlink:href="#ab"/><use transform="matrix(0.04320987654320988,0,0,0.04320987654320988,53.45061728395062,0)" xlink:href="#af"/><use transform="matrix(0.04320987654320988,0,0,0.04320987654320988,62.0925925925926,0)" xlink:href="#Z"/></g><g id="F"><use transform="matrix(0.04320987654320988,0,0,0.04320987654320988,0,0)" xlink:href="#W"/><use transform="matrix(0.04320987654320988,0,0,0.04320987654320988,8.037037037037038,0)" xlink:href="#af"/><use transform="matrix(0.04320987654320988,0,0,0.04320987654320988,16.679012345679013,0)" xlink:href="#aN"/><use transform="matrix(0.04320987654320988,0,0,0.04320987654320988,25.320987654320984,0)" xlink:href="#ah"/></g><path fill="#666" d="M30-248c118-7 216 8 213 122C240-48 200 0 122 0H30v-248zM63-27c89 8 146-16 146-99s-60-101-146-95v194" id="aO"/><path fill="#666" d="M177-190C167-65 218 103 67 71c-23-6-38-20-44-43l32-5c15 47 100 32 89-28v-30C133-14 115 1 83 1 29 1 15-40 15-95c0-56 16-97 71-98 29-1 48 16 59 35 1-10 0-23 2-32h30zM94-22c36 0 50-32 50-73 0-42-14-75-50-75-39 0-46 34-46 75s6 73 46 73" id="aP"/><g id="G"><use transform="matrix(0.04320987654320988,0,0,0.04320987654320988,0,0)" xlink:href="#aO"/><use transform="matrix(0.04320987654320988,0,0,0.04320987654320988,11.19135802469136,0)" xlink:href="#aD"/><use transform="matrix(0.04320987654320988,0,0,0.04320987654320988,19.833333333333336,0)" xlink:href="#aC"/><use transform="matrix(0.04320987654320988,0,0,0.04320987654320988,27.611111111111114,0)" xlink:href="#aK"/><use transform="matrix(0.04320987654320988,0,0,0.04320987654320988,31.024691358024693,0)" xlink:href="#aP"/><use transform="matrix(0.04320987654320988,0,0,0.04320987654320988,39.66666666666667,0)" xlink:href="#aG"/><use transform="matrix(0.04320987654320988,0,0,0.04320987654320988,48.308641975308646,0)" xlink:href="#aD"/><use transform="matrix(0.04320987654320988,0,0,0.04320987654320988,56.95061728395062,0)" xlink:href="#aI"/></g><g id="H"><use transform="matrix(0.04320987654320988,0,0,0.04320987654320988,0,0)" xlink:href="#aA"/><use transform="matrix(0.04320987654320988,0,0,0.04320987654320988,10.370370370370372,0)" xlink:href="#aI"/><use transform="matrix(0.04320987654320988,0,0,0.04320987654320988,15.512345679012347,0)" xlink:href="#aB"/><use transform="matrix(0.04320987654320988,0,0,0.04320987654320988,24.154320987654323,0)" xlink:href="#aG"/><use transform="matrix(0.04320987654320988,0,0,0.04320987654320988,32.7962962962963,0)" xlink:href="#aE"/><use transform="matrix(0.04320987654320988,0,0,0.04320987654320988,41.43827160493827,0)" xlink:href="#aC"/></g><path d="M169-182c-1-43-94-46-97-3 18 66 151 10 154 114 3 95-165 93-204 36-6-8-10-19-12-30l50-8c3 46 112 56 116 5-17-69-150-10-154-114-4-87 153-88 188-35 5 8 8 18 10 28" id="aQ"/><path d="M24 0v-248h195v40H76v63h132v40H76v65h150V0H24" id="aR"/><path d="M175 0L67-191c6 58 2 128 3 191H24v-248h59L193-55c-6-58-2-129-3-193h46V0h-61" id="aS"/><g id="I"><use transform="matrix(0.0728395061728395,0,0,0.0728395061728395,0,0)" xlink:href="#aQ"/><use transform="matrix(0.0728395061728395,0,0,0.0728395061728395,17.48148148148148,0)" xlink:href="#aQ"/><use transform="matrix(0.0728395061728395,0,0,0.0728395061728395,34.96296296296296,0)" xlink:href="#aR"/><use transform="matrix(0.0728395061728395,0,0,0.0728395061728395,52.44444444444444,0)" xlink:href="#aS"/><use transform="matrix(0.0728395061728395,0,0,0.0728395061728395,71.30987654320987,0)" xlink:href="#aQ"/><use transform="matrix(0.0728395061728395,0,0,0.0728395061728395,88.79135802469136,0)" xlink:href="#aR"/></g><path d="M186 0v-106H76V0H24v-248h52v99h110v-99h50V0h-50" id="aT"/><path d="M110-194c64 0 96 36 96 99 0 64-35 99-97 99-61 0-95-36-95-99 0-62 34-99 96-99zm-1 164c35 0 45-28 45-65 0-40-10-65-43-65-34 0-45 26-45 65 0 36 10 65 43 65" id="aU"/><path d="M220-157c-53 9-28 100-34 157h-49v-107c1-27-5-49-29-50C55-147 81-57 75 0H25l-1-190h47c2 12-1 28 3 38 10-53 101-56 108 0 13-22 24-43 59-42 82 1 51 116 57 194h-49v-107c-1-25-5-48-29-50" id="aV"/><path d="M185-48c-13 30-37 53-82 52C43 2 14-33 14-96s30-98 90-98c62 0 83 45 84 108H66c0 31 8 55 39 56 18 0 30-7 34-22zm-45-69c5-46-57-63-70-21-2 6-4 13-4 21h74" id="aW"/><g id="J"><use transform="matrix(0.0728395061728395,0,0,0.0728395061728395,0,0)" xlink:href="#aT"/><use transform="matrix(0.0728395061728395,0,0,0.0728395061728395,18.86543209876543,0)" xlink:href="#aU"/><use transform="matrix(0.0728395061728395,0,0,0.0728395061728395,34.81728395061728,0)" xlink:href="#aV"/><use transform="matrix(0.0728395061728395,0,0,0.0728395061728395,58.12592592592593,0)" xlink:href="#aW"/></g><path d="M24-248c93 1 206-16 204 79-1 75-69 88-152 82V0H24v-248zm52 121c47 0 100 7 100-41 0-47-54-39-100-39v80" id="aX"/><path d="M133-34C117-15 103 5 69 4 32 3 11-16 11-54c-1-60 55-63 116-61 1-26-3-47-28-47-18 1-26 9-28 27l-52-2c7-38 36-58 82-57s74 22 75 68l1 82c-1 14 12 18 25 15v27c-30 8-71 5-69-32zm-48 3c29 0 43-24 42-57-32 0-66-3-65 30 0 17 8 27 23 27" id="aY"/><path d="M195-6C206 82 75 100 31 46c-4-6-6-13-8-21l49-6c3 16 16 24 34 25 40 0 42-37 40-79-11 22-30 35-61 35-53 0-70-43-70-97 0-56 18-96 73-97 30 0 46 14 59 34l2-30h47zm-90-29c32 0 41-27 41-63 0-35-9-62-40-62-32 0-39 29-40 63 0 36 9 62 39 62" id="aZ"/><g id="K"><use transform="matrix(0.0728395061728395,0,0,0.0728395061728395,0,0)" xlink:href="#aX"/><use transform="matrix(0.0728395061728395,0,0,0.0728395061728395,17.48148148148148,0)" xlink:href="#aY"/><use transform="matrix(0.0728395061728395,0,0,0.0728395061728395,32.04938271604938,0)" xlink:href="#aZ"/><use transform="matrix(0.0728395061728395,0,0,0.0728395061728395,48.00123456790123,0)" xlink:href="#aW"/></g><path d="M182-130c37 4 62 22 62 59C244 23 116-4 24 0v-248c84 5 203-23 205 63 0 31-19 50-47 55zM76-148c40-3 101 13 101-30 0-44-60-28-101-31v61zm0 110c48-3 116 14 116-37 0-48-69-32-116-35v72" id="ba"/><path d="M135-150c-39-12-60 13-60 57V0H25l-1-190h47c2 13-1 29 3 40 6-28 27-53 61-41v41" id="bb"/><path d="M25-224v-37h50v37H25zM25 0v-190h50V0H25" id="bc"/><path d="M135-194c87-1 58 113 63 194h-50c-7-57 23-157-34-157-59 0-34 97-39 157H25l-1-190h47c2 12-1 28 3 38 12-26 28-41 61-42" id="bd"/><path d="M137-138c1-29-70-34-71-4 15 46 118 7 119 86 1 83-164 76-172 9l43-7c4 19 20 25 44 25 33 8 57-30 24-41C81-84 22-81 20-136c-2-80 154-74 161-7" id="be"/><path d="M115-3C79 11 28 4 28-45v-112H4v-33h27l15-45h31v45h36v33H77v99c-1 23 16 31 38 25v30" id="bf"/><g id="L"><use transform="matrix(0.0728395061728395,0,0,0.0728395061728395,0,0)" xlink:href="#ba"/><use transform="matrix(0.0728395061728395,0,0,0.0728395061728395,18.86543209876543,0)" xlink:href="#bb"/><use transform="matrix(0.0728395061728395,0,0,0.0728395061728395,29.062962962962963,0)" xlink:href="#aY"/><use transform="matrix(0.0728395061728395,0,0,0.0728395061728395,43.63086419753086,0)" xlink:href="#bc"/><use transform="matrix(0.0728395061728395,0,0,0.0728395061728395,50.91481481481481,0)" xlink:href="#bd"/><use transform="matrix(0.0728395061728395,0,0,0.0728395061728395,66.86666666666666,0)" xlink:href="#be"/><use transform="matrix(0.0728395061728395,0,0,0.0728395061728395,81.43456790123457,0)" xlink:href="#bf"/><use transform="matrix(0.0728395061728395,0,0,0.0728395061728395,90.10246913580247,0)" xlink:href="#aU"/><use transform="matrix(0.0728395061728395,0,0,0.0728395061728395,106.05432098765432,0)" xlink:href="#bb"/><use transform="matrix(0.0728395061728395,0,0,0.0728395061728395,116.25185185185185,0)" xlink:href="#aV"/></g></defs></g></svg>