<svg xmlns="http://www.w3.org/2000/svg" xmlns:xlink="http://www.w3.org/1999/xlink" xmlns:lucid="lucid" width="1520" height="760"><g transform="translate(-20 -40)" lucid:page-tab-id="0_0"><path d="M40 60h160v160H40z" stroke="#000" stroke-width="2" fill="#c7e8ac"/><use xlink:href="#a" transform="matrix(1,0,0,1,45,65) translate(15.951000000000008 51.9)"/><use xlink:href="#b" transform="matrix(1,0,0,1,45,65) translate(54.165000000000006 51.9)"/><use xlink:href="#c" transform="matrix(1,0,0,1,45,65) translate(115.005 51.9)"/><use xlink:href="#d" transform="matrix(1,0,0,1,45,65) translate(33.492000000000004 69.9)"/><use xlink:href="#e" transform="matrix(1,0,0,1,45,65) translate(75 87.9)"/><use xlink:href="#f" transform="matrix(1,0,0,1,45,65) translate(75 109.5)"/><path d="M240 240h160v160H240z" stroke="#000" stroke-width="2" fill="#5abaa7"/><use xlink:href="#g" transform="matrix(1,0,0,1,245,245) translate(11.927999999999997 51.9)"/><use xlink:href="#h" transform="matrix(1,0,0,1,245,245) translate(83.334 51.9)"/><use xlink:href="#i" transform="matrix(1,0,0,1,245,245) translate(101.44200000000001 51.9)"/><use xlink:href="#j" transform="matrix(1,0,0,1,245,245) translate(11.89200000000001 69.9)"/><use xlink:href="#k" transform="matrix(1,0,0,1,245,245) translate(80.328 69.9)"/><use xlink:href="#l" transform="matrix(1,0,0,1,245,245) translate(31.638000000000005 87.9)"/><use xlink:href="#m" transform="matrix(1,0,0,1,245,245) translate(75 105.9)"/><path d="M440 440h160v160H440z" stroke="#000" stroke-width="2" fill="#83bbe5"/><use xlink:href="#n" transform="matrix(1,0,0,1,445,445) translate(7.320000000000007 70.65)"/><use xlink:href="#o" transform="matrix(1,0,0,1,445,445) translate(64.902 70.65)"/><use xlink:href="#p" transform="matrix(1,0,0,1,445,445) translate(100.218 70.65)"/><use xlink:href="#m" transform="matrix(1,0,0,1,445,445) translate(75 88.65)"/><path d="M700 620h160v160H700z" stroke="#000" stroke-width="2" fill="#c1e4f7"/><use xlink:href="#q" transform="matrix(1,0,0,1,705,625) translate(14.412000000000006 70.65)"/><use xlink:href="#r" transform="matrix(1,0,0,1,705,625) translate(95.376 70.65)"/><use xlink:href="#m" transform="matrix(1,0,0,1,705,625) translate(75 88.65)"/><path d="M980 440h160v160H980z" stroke="#000" stroke-width="2" fill="#ffeca9"/><use xlink:href="#s" transform="matrix(1,0,0,1,985,445) translate(8.183999999999997 61.275)"/><use xlink:href="#t" transform="matrix(1,0,0,1,985,445) translate(60.726 61.275)"/><use xlink:href="#u" transform="matrix(1,0,0,1,985,445) translate(94.134 61.275)"/><use xlink:href="#v" transform="matrix(1,0,0,1,985,445) translate(47.739000000000004 79.275)"/><use xlink:href="#m" transform="matrix(1,0,0,1,985,445) translate(75 97.275)"/><path d="M1160 240h160v160h-160z" stroke="#000" stroke-width="2" fill="#ffc374"/><use xlink:href="#w" transform="matrix(1,0,0,1,1165,245) translate(19.16400000000001 70.65)"/><use xlink:href="#x" transform="matrix(1,0,0,1,1165,245) translate(55.52400000000001 70.65)"/><use xlink:href="#m" transform="matrix(1,0,0,1,1165,245) translate(75 88.65)"/><path d="M1360 60h160v160h-160z" stroke="#000" stroke-width="2" fill="#ff8f80"/><g><use xlink:href="#y" transform="matrix(1,0,0,1,1365,65) translate(24.09599999999999 61.275)"/><use xlink:href="#z" transform="matrix(1,0,0,1,1365,65) translate(96.492 61.275)"/><use xlink:href="#A" transform="matrix(1,0,0,1,1365,65) translate(45.705000000000005 79.275)"/><use xlink:href="#f" transform="matrix(1,0,0,1,1365,65) translate(75 97.275)"/></g><path d="M120 222v98h100.5" stroke="#000" stroke-width="2" fill="none"/><path d="M121 222.03h-2V221h2z"/><path d="M235.76 320l-14.26 4.64v-9.28z" stroke="#000" stroke-width="2"/><path d="M320 402v118h100.5" stroke="#000" stroke-width="2" fill="none"/><path d="M321 402.03h-2V401h2z"/><path d="M435.76 520l-14.26 4.64v-9.28z" stroke="#000" stroke-width="2"/><path d="M520 602v98h160.5" stroke="#000" stroke-width="2" fill="none"/><path d="M521 602.03h-2V601h2z"/><path d="M695.76 700l-14.26 4.64v-9.28z" stroke="#000" stroke-width="2"/><path d="M862 700h198v-80.5" stroke="#000" stroke-width="2" fill="none"/><path d="M862.03 701H861v-2h1.03z"/><path d="M1060 604.24l4.64 14.26h-9.28z" stroke="#000" stroke-width="2"/><path d="M1142 520h96.93V419.5" stroke="#000" stroke-width="2" fill="none"/><path d="M1142.03 521H1141v-2h1.03z"/><path d="M1238.93 404.24l4.63 14.26h-9.27z" stroke="#000" stroke-width="2"/><path d="M1322 320h118v-80.5" stroke="#000" stroke-width="2" fill="none"/><path d="M1322.03 321H1321v-2h1.03z"/><path d="M1440 224.24l4.64 14.26h-9.28z" stroke="#000" stroke-width="2"/><path d="M580 80h380v394H580z" stroke="#000" stroke-opacity="0" stroke-width="2" fill="#fff" fill-opacity="0"/><g><use xlink:href="#B" transform="matrix(1,0,0,1,585,85) translate(22.888888888888914 82)"/><use xlink:href="#C" transform="matrix(1,0,0,1,585,85) translate(52.80000000000001 178)"/><use xlink:href="#D" transform="matrix(1,0,0,1,585,85) translate(180.08 178)"/><use xlink:href="#E" transform="matrix(1,0,0,1,585,85) translate(36.839999999999975 258)"/><use xlink:href="#F" transform="matrix(1,0,0,1,585,85) translate(185 338)"/></g><defs><path d="M342-65c-120 0-192-69-192-189v-469H64v468C71-86 172 10 341 10c170 0 278-95 278-265v-428c1-23-21-44-43-44-24 0-43 20-43 44v429c-4 120-72 189-191 189" id="G"/><path d="M226-67c-73 0-105-36-149-66L23-76C65-26 132 8 220 8c107 0 197-48 197-155 0-147-175-146-265-213-55-41 4-107 69-107 64 0 95 40 145 52 42 0 49-57 16-79-38-26-97-48-158-48-99 0-181 47-181 146 0 143 186 129 265 203 57 54-9 126-82 126" id="H"/><path d="M399-88c-49 16-121 34-173 8-54-27-92-77-95-153h324c37-1 53-8 53-47 0-148-80-261-229-261-157 0-242 117-242 273C37-84 158 41 354 2c21-4 41-14 64-23zM129-299c15-90 46-171 148-171 94 0 133 80 142 171H129" id="I"/><path d="M107-540c-22-1-43 19-43 42V2l85-1c5-117-12-260 11-359 15-67 75-83 125-113 28-27-1-76-38-72-55 5-82 48-100 91 1-17 3-33 3-51 0-22-23-37-43-37" id="J"/><g id="a"><use transform="matrix(0.018,0,0,0.018,0,0)" xlink:href="#G"/><use transform="matrix(0.018,0,0,0.018,11.537999999999998,0)" xlink:href="#H"/><use transform="matrix(0.018,0,0,0.018,19.565999999999995,0)" xlink:href="#I"/><use transform="matrix(0.018,0,0,0.018,28.709999999999994,0)" xlink:href="#J"/></g><path d="M232-71c-83 0-139-46-207-69L0-55C71-31 152 9 240 9c137 0 232-93 232-230 0-162-167-179-282-237-32-16-62-43-60-90 3-66 56-98 122-101 59-3 86 44 135 44 39 0 50-55 17-78-36-25-93-46-150-46-124 0-217 68-217 192 0 187 221 159 317 251 17 16 26 38 26 66 0 90-58 149-148 149" id="K"/><path d="M275-66c-87 0-125-49-126-134v-323l-85 1v324C63-63 141 9 275 9s211-72 211-207v-300c1-23-19-44-42-44-22 0-43 21-42 43v299c-1 85-40 134-127 134" id="L"/><path d="M386-376c19-57 78-148-4-165-22 0-33 14-39 31L218-134 79-541l-80 26L173-24c5 30 46 44 72 24 53-102 102-258 141-376" id="M"/><path d="M390-392c19-55 69-140-9-150-22-3-35 18-41 35L218-133 84-534 2-508 174-17c-22 58-60 132-71 198-6 33 47 55 69 29 79-187 150-405 218-602" id="N"/><g id="b"><use transform="matrix(0.018,0,0,0.018,0,0)" xlink:href="#K"/><use transform="matrix(0.018,0,0,0.018,8.783999999999999,0)" xlink:href="#L"/><use transform="matrix(0.018,0,0,0.018,17.567999999999998,0)" xlink:href="#J"/><use transform="matrix(0.018,0,0,0.018,24.012000000000004,0)" xlink:href="#M"/><use transform="matrix(0.018,0,0,0.018,31.212000000000003,0)" xlink:href="#I"/><use transform="matrix(0.018,0,0,0.018,40.428,0)" xlink:href="#N"/><use transform="matrix(0.018,0,0,0.018,48.221999999999994,0)" xlink:href="#H"/></g><path d="M273-542C117-542 37-423 37-268c0 158 80 279 237 279 156 0 235-122 235-278s-80-275-236-275zm-2 477c-106 0-144-97-144-202s40-200 145-200c106 0 148 92 148 199 0 109-40 203-149 203" id="O"/><path d="M108-543c-23 0-45 20-44 43V1h84v-341c5-76 49-127 125-127s127 52 127 129v307c-1 22 19 42 41 42 23 0 44-20 43-43v-307c-4-125-70-202-195-202-61 0-115 30-141 70 2-39-2-72-40-72" id="P"/><g id="c"><use transform="matrix(0.018,0,0,0.018,0,0)" xlink:href="#O"/><use transform="matrix(0.018,0,0,0.018,9.18,0)" xlink:href="#P"/></g><path d="M286-720c-75-3-151 7-222-2v687C63-12 85 9 108 9s43-21 42-44v-235h137c139-8 232-83 232-224 0-142-91-220-233-226zm146 225c0 89-59 147-148 147H152v-295h131c90 6 149 59 149 148" id="Q"/><path d="M227-779c-89-10-143 35-144 112v133c-38-1-83-5-83 36 0 44 43 42 84 39v672h85v-672c42 2 102 9 102-37s-59-39-102-38v-138c1-58 108-1 108-68 0-26-28-37-50-39" id="R"/><path d="M282-542C120-542 37-427 37-265 37-105 118 8 277 8c63 0 137-11 144-71 2-19-19-40-39-38-37 4-64 31-106 31-104 0-148-95-148-199 0-108 45-191 154-195 44-2 83 25 114 40l41-70c-45-25-87-48-155-48" id="S"/><g id="d"><use transform="matrix(0.018,0,0,0.018,0,0)" xlink:href="#Q"/><use transform="matrix(0.018,0,0,0.018,9.665999999999999,0)" xlink:href="#J"/><use transform="matrix(0.018,0,0,0.018,13.985999999999999,0)" xlink:href="#I"/><use transform="matrix(0.018,0,0,0.018,22.949999999999996,0)" xlink:href="#R"/><use transform="matrix(0.018,0,0,0.018,26.873999999999995,0)" xlink:href="#I"/><use transform="matrix(0.018,0,0,0.018,36.017999999999994,0)" xlink:href="#J"/><use transform="matrix(0.018,0,0,0.018,40.337999999999994,0)" xlink:href="#I"/><use transform="matrix(0.018,0,0,0.018,49.482,0)" xlink:href="#P"/><use transform="matrix(0.018,0,0,0.018,58.697999999999986,0)" xlink:href="#S"/><use transform="matrix(0.018,0,0,0.018,65.71799999999999,0)" xlink:href="#I"/><use transform="matrix(0.018,0,0,0.018,74.98799999999997,0)" xlink:href="#H"/></g><path d="M357-731C138-731 37-570 37-353 37-111 192 49 452 0c46-10 82-34 114-60 38-32-5-100-50-65-38 29-87 56-156 54-162-5-232-127-232-289 0-158 65-284 223-289 85-3 124 39 168 81l50-45c-38-70-111-118-212-118" id="T"/><path d="M107-542c-22 0-44 21-43 43V0h85v-353c5-70 46-116 116-116 71 0 118 47 118 117V0h83v-352c5-70 47-117 117-117s115 47 115 117v318c-1 22 20 43 42 43 23 0 43-21 42-43v-321c2-114-76-187-189-186-76 1-135 37-162 91-22-54-80-93-151-93-57 0-109 28-133 66 1-36-4-65-40-65" id="U"/><path d="M104-542c-22 0-41 23-40 44v710h84V-66c30 44 84 76 152 76 156 0 229-126 229-282 0-151-75-271-226-271-71 0-127 35-156 82 2-42 2-81-43-81zM291-67c-107 0-143-88-147-195-5-120 44-206 151-206 106 0 145 97 145 203 0 107-43 198-149 198" id="V"/><path d="M463-542c-41 0-45 31-44 71-32-41-84-71-151-71-154 0-232 120-232 274C36-112 112 9 268 9c71 0 123-33 150-82V4h85v-504c1-21-18-42-40-42zM273-64c-109 0-147-95-147-205 0-109 42-200 152-200 108 0 143 87 143 194 0 116-32 211-148 211" id="W"/><g id="g"><use transform="matrix(0.018,0,0,0.018,0,0)" xlink:href="#T"/><use transform="matrix(0.018,0,0,0.018,10.241999999999999,0)" xlink:href="#O"/><use transform="matrix(0.018,0,0,0.018,19.421999999999997,0)" xlink:href="#U"/><use transform="matrix(0.018,0,0,0.018,33.53399999999999,0)" xlink:href="#V"/><use transform="matrix(0.018,0,0,0.018,43.721999999999994,0)" xlink:href="#W"/><use transform="matrix(0.018,0,0,0.018,52.812,0)" xlink:href="#J"/><use transform="matrix(0.018,0,0,0.018,57.132,0)" xlink:href="#I"/></g><path d="M126-700c-65 0-35 103-42 166-39-2-81-3-81 38s43 38 82 37V0h84v-459c39 1 85 4 85-37 0-42-46-39-86-38-5-64 24-166-42-166" id="X"/><g id="h"><use transform="matrix(0.018,0,0,0.018,0,0)" xlink:href="#X"/><use transform="matrix(0.018,0,0,0.018,3.6719999999999997,0)" xlink:href="#O"/></g><path d="M107-777c-23 0-44 21-43 44V2h84v-342c5-76 50-127 126-127s126 52 126 129v307c-1 22 19 42 41 42 23 0 44-20 43-43v-306c-6-123-69-203-193-203-63 0-115 30-142 70v-263c1-22-19-43-42-43" id="Y"/><g id="i"><use transform="matrix(0.018,0,0,0.018,0,0)" xlink:href="#O"/><use transform="matrix(0.018,0,0,0.018,8.892,0)" xlink:href="#X"/><use transform="matrix(0.018,0,0,0.018,13.356,0)" xlink:href="#Y"/><use transform="matrix(0.018,0,0,0.018,22.571999999999996,0)" xlink:href="#I"/><use transform="matrix(0.018,0,0,0.018,31.715999999999994,0)" xlink:href="#J"/></g><path d="M426-691c-89-48-242-20-362-31v680C63-14 86 0 112 0h179c215-8 314-153 314-368 0-158-72-266-179-323zm86 323c0 163-63 285-226 290H150v-564h138c154 8 224 120 224 274" id="Z"/><path d="M149-500c3-54-84-55-84 0V1h84v-501zm-43-196c-20 0-36 16-36 36-1 45 72 46 72-1 0-19-18-35-36-35" id="aa"/><path d="M461-542c-43 0-43 38-41 79-29-45-85-78-153-78-158 0-230 129-230 286 0 153 75 269 227 269 73 0 124-33 154-82 14 150-77 247-229 207-2 25-7 54-4 80 18 7 41 7 64 7 153 0 252-96 252-249v-476c1-21-18-43-40-43zm-42 284c-5 102-37 194-139 194-113 0-154-91-154-203 0-109 43-197 152-197 106 0 147 88 141 206" id="ab"/><g id="j"><use transform="matrix(0.018,0,0,0.018,0,0)" xlink:href="#Z"/><use transform="matrix(0.018,0,0,0.018,11.556,0)" xlink:href="#I"/><use transform="matrix(0.018,0,0,0.018,20.826000000000004,0)" xlink:href="#H"/><use transform="matrix(0.018,0,0,0.018,28.332,0)" xlink:href="#aa"/><use transform="matrix(0.018,0,0,0.018,31.518,0)" xlink:href="#ab"/><use transform="matrix(0.018,0,0,0.018,40.572,0)" xlink:href="#P"/><use transform="matrix(0.018,0,0,0.018,49.788,0)" xlink:href="#I"/><use transform="matrix(0.018,0,0,0.018,58.931999999999995,0)" xlink:href="#J"/></g><path d="M106-780c-23 0-43 21-42 44V2l84-1v-737c1-23-19-44-42-44" id="ac"/><g id="k"><use transform="matrix(0.018,0,0,0.018,0,0)" xlink:href="#T"/><use transform="matrix(0.018,0,0,0.018,10.44,0)" xlink:href="#ac"/><use transform="matrix(0.018,0,0,0.018,13.608,0)" xlink:href="#O"/><use transform="matrix(0.018,0,0,0.018,22.5,0)" xlink:href="#X"/><use transform="matrix(0.018,0,0,0.018,26.964,0)" xlink:href="#Y"/><use transform="matrix(0.018,0,0,0.018,35.675999999999995,0)" xlink:href="#aa"/><use transform="matrix(0.018,0,0,0.018,38.39399999999999,0)" xlink:href="#P"/><use transform="matrix(0.018,0,0,0.018,47.609999999999985,0)" xlink:href="#ab"/></g><g id="l"><use transform="matrix(0.018,0,0,0.018,0,0)" xlink:href="#T"/><use transform="matrix(0.018,0,0,0.018,10.241999999999999,0)" xlink:href="#O"/><use transform="matrix(0.018,0,0,0.018,19.421999999999997,0)" xlink:href="#U"/><use transform="matrix(0.018,0,0,0.018,33.53399999999999,0)" xlink:href="#V"/><use transform="matrix(0.018,0,0,0.018,43.721999999999994,0)" xlink:href="#I"/><use transform="matrix(0.018,0,0,0.018,52.61399999999999,0)" xlink:href="#X"/><use transform="matrix(0.018,0,0,0.018,57.07799999999999,0)" xlink:href="#aa"/><use transform="matrix(0.018,0,0,0.018,60.929999999999986,0)" xlink:href="#X"/><use transform="matrix(0.018,0,0,0.018,64.60199999999999,0)" xlink:href="#O"/><use transform="matrix(0.018,0,0,0.018,73.782,0)" xlink:href="#J"/><use transform="matrix(0.018,0,0,0.018,78.696,0)" xlink:href="#H"/></g><path d="M108-728c-23 0-45 21-44 44V0h86v-684c1-23-19-44-42-44zm-2-98c-20 0-36 16-36 36-1 45 72 46 72-1 0-19-18-35-36-35" id="ad"/><path d="M462 9c22 0 43-20 42-42v-732h-85v304c-26-48-78-81-147-81-158 0-235 120-235 277C37-115 112 8 262 8c72 0 126-35 156-84-1 44-1 85 44 85zm-43-264c0 104-44 184-148 184-106 0-145-92-145-198s44-194 150-194c112 0 143 96 143 208" id="ae"/><g id="n"><use transform="matrix(0.018,0,0,0.018,0,0)" xlink:href="#ad"/><use transform="matrix(0.018,0,0,0.018,3.186,0)" xlink:href="#ae"/><use transform="matrix(0.018,0,0,0.018,12.761999999999999,0)" xlink:href="#I"/><use transform="matrix(0.018,0,0,0.018,21.906,0)" xlink:href="#P"/><use transform="matrix(0.018,0,0,0.018,30.942,0)" xlink:href="#X"/><use transform="matrix(0.018,0,0,0.018,35.406,0)" xlink:href="#aa"/><use transform="matrix(0.018,0,0,0.018,39.257999999999996,0)" xlink:href="#R"/><use transform="matrix(0.018,0,0,0.018,45.19799999999999,0)" xlink:href="#N"/></g><g id="o"><use transform="matrix(0.018,0,0,0.018,0,0)" xlink:href="#Q"/><use transform="matrix(0.018,0,0,0.018,9.072,0)" xlink:href="#W"/><use transform="matrix(0.018,0,0,0.018,18.144,0)" xlink:href="#aa"/><use transform="matrix(0.018,0,0,0.018,20.862,0)" xlink:href="#P"/></g><g id="p"><use transform="matrix(0.018,0,0,0.018,0,0)" xlink:href="#Q"/><use transform="matrix(0.018,0,0,0.018,9.053999999999998,0)" xlink:href="#O"/><use transform="matrix(0.018,0,0,0.018,18.216,0)" xlink:href="#aa"/><use transform="matrix(0.018,0,0,0.018,20.934,0)" xlink:href="#P"/><use transform="matrix(0.018,0,0,0.018,29.97,0)" xlink:href="#X"/><use transform="matrix(0.018,0,0,0.018,34.434,0)" xlink:href="#H"/></g><path d="M110-720c-27 0-47 14-46 42V0h236c133-6 218-81 218-213 0-102-61-163-157-176 58-22 99-70 99-145 0-118-78-186-197-186H110zm262 190c0 104-102 125-221 116v-228h100c70 5 121 42 121 112zm56 319c0 83-57 134-140 134H150v-268h138c83 5 140 51 140 134" id="af"/><g id="q"><use transform="matrix(0.018,0,0,0.018,0,0)" xlink:href="#af"/><use transform="matrix(0.018,0,0,0.018,9.341999999999999,0)" xlink:href="#J"/><use transform="matrix(0.018,0,0,0.018,13.751999999999999,0)" xlink:href="#W"/><use transform="matrix(0.018,0,0,0.018,22.823999999999998,0)" xlink:href="#aa"/><use transform="matrix(0.018,0,0,0.018,25.541999999999998,0)" xlink:href="#P"/><use transform="matrix(0.018,0,0,0.018,34.937999999999995,0)" xlink:href="#H"/><use transform="matrix(0.018,0,0,0.018,42.965999999999994,0)" xlink:href="#X"/><use transform="matrix(0.018,0,0,0.018,46.63799999999999,0)" xlink:href="#O"/><use transform="matrix(0.018,0,0,0.018,55.818,0)" xlink:href="#J"/><use transform="matrix(0.018,0,0,0.018,61.146,0)" xlink:href="#U"/></g><g id="r"><use transform="matrix(0.018,0,0,0.018,0,0)" xlink:href="#ad"/><use transform="matrix(0.018,0,0,0.018,3.186,0)" xlink:href="#ae"/><use transform="matrix(0.018,0,0,0.018,12.761999999999999,0)" xlink:href="#I"/><use transform="matrix(0.018,0,0,0.018,22.445999999999998,0)" xlink:href="#W"/><use transform="matrix(0.018,0,0,0.018,32.184,0)" xlink:href="#H"/></g><g id="s"><use transform="matrix(0.018,0,0,0.018,0,0)" xlink:href="#T"/><use transform="matrix(0.018,0,0,0.018,10.44,0)" xlink:href="#J"/><use transform="matrix(0.018,0,0,0.018,14.759999999999998,0)" xlink:href="#I"/><use transform="matrix(0.018,0,0,0.018,24.444,0)" xlink:href="#W"/><use transform="matrix(0.018,0,0,0.018,34.65,0)" xlink:href="#X"/><use transform="matrix(0.018,0,0,0.018,38.267999999999994,0)" xlink:href="#I"/></g><path d="M108-729c-24 0-45 21-44 45v634c0 27 14 51 44 51l263-1-1-80H150v-605c1-23-19-44-42-44" id="ag"/><path d="M750-484c23-54-65-83-83-27L546-127 428-499h-94L215-127 86-541 3-514 163-37c3 36 52 62 83 33 7-8 13-18 17-30l118-369L498-34c8 22 19 43 49 43 33 1 43-22 51-46" id="ah"/><g id="t"><use transform="matrix(0.018,0,0,0.018,0,0)" xlink:href="#ag"/><use transform="matrix(0.018,0,0,0.018,5.9399999999999995,0)" xlink:href="#O"/><use transform="matrix(0.018,0,0,0.018,15.12,0)" xlink:href="#ah"/></g><path d="M113-721c-26 0-49 18-49 45V0h87v-319h192c22 1 41-18 41-40 0-21-21-40-41-39H153v-244h237v-79H113" id="ai"/><g id="u"><use transform="matrix(0.018,0,0,0.018,0,0)" xlink:href="#ai"/><use transform="matrix(0.018,0,0,0.018,6.911999999999999,0)" xlink:href="#aa"/><use transform="matrix(0.018,0,0,0.018,10.097999999999999,0)" xlink:href="#ae"/><use transform="matrix(0.018,0,0,0.018,19.674,0)" xlink:href="#I"/><use transform="matrix(0.018,0,0,0.018,28.817999999999998,0)" xlink:href="#ac"/><use transform="matrix(0.018,0,0,0.018,31.499999999999996,0)" xlink:href="#aa"/><use transform="matrix(0.018,0,0,0.018,35.352,0)" xlink:href="#X"/><use transform="matrix(0.018,0,0,0.018,39.888,0)" xlink:href="#N"/></g><g id="v"><use transform="matrix(0.018,0,0,0.018,0,0)" xlink:href="#U"/><use transform="matrix(0.018,0,0,0.018,14.579999999999998,0)" xlink:href="#O"/><use transform="matrix(0.018,0,0,0.018,24.426,0)" xlink:href="#ae"/><use transform="matrix(0.018,0,0,0.018,34.001999999999995,0)" xlink:href="#I"/><use transform="matrix(0.018,0,0,0.018,43.145999999999994,0)" xlink:href="#ac"/><use transform="matrix(0.018,0,0,0.018,46.494,0)" xlink:href="#H"/></g><g id="w"><use transform="matrix(0.018,0,0,0.018,0,0)" xlink:href="#ai"/><use transform="matrix(0.018,0,0,0.018,6.911999999999999,0)" xlink:href="#aa"/><use transform="matrix(0.018,0,0,0.018,9.629999999999999,0)" xlink:href="#P"/><use transform="matrix(0.018,0,0,0.018,18.863999999999997,0)" xlink:href="#W"/><use transform="matrix(0.018,0,0,0.018,27.953999999999997,0)" xlink:href="#ac"/></g><g id="x"><use transform="matrix(0.018,0,0,0.018,0,0)" xlink:href="#Q"/><use transform="matrix(0.018,0,0,0.018,9.665999999999999,0)" xlink:href="#J"/><use transform="matrix(0.018,0,0,0.018,14.04,0)" xlink:href="#O"/><use transform="matrix(0.018,0,0,0.018,22.932,0)" xlink:href="#X"/><use transform="matrix(0.018,0,0,0.018,26.603999999999996,0)" xlink:href="#O"/><use transform="matrix(0.018,0,0,0.018,35.495999999999995,0)" xlink:href="#X"/><use transform="matrix(0.018,0,0,0.018,40.032,0)" xlink:href="#N"/><use transform="matrix(0.018,0,0,0.018,47.82599999999999,0)" xlink:href="#V"/><use transform="matrix(0.018,0,0,0.018,58.013999999999996,0)" xlink:href="#I"/><use transform="matrix(0.018,0,0,0.018,67.28399999999999,0)" xlink:href="#H"/></g><path d="M403-370c4 64 107 31 168 39-5 146-57 263-203 263-169 0-239-124-239-292 0-163 70-287 232-293 91-3 130 43 186 77l50-64c-58-40-127-88-219-88-226 0-341 149-341 374C37-134 149 10 370 10c197 0 289-141 289-339 0-55-11-82-69-82H445c-22-1-43 19-42 41" id="aj"/><g id="y"><use transform="matrix(0.018,0,0,0.018,0,0)" xlink:href="#aj"/><use transform="matrix(0.018,0,0,0.018,12.383999999999999,0)" xlink:href="#I"/><use transform="matrix(0.018,0,0,0.018,21.528,0)" xlink:href="#P"/><use transform="matrix(0.018,0,0,0.018,30.744000000000003,0)" xlink:href="#I"/><use transform="matrix(0.018,0,0,0.018,39.888,0)" xlink:href="#J"/><use transform="matrix(0.018,0,0,0.018,44.298,0)" xlink:href="#W"/><use transform="matrix(0.018,0,0,0.018,54.504000000000005,0)" xlink:href="#X"/><use transform="matrix(0.018,0,0,0.018,58.12200000000001,0)" xlink:href="#I"/></g><g id="z"><use transform="matrix(0.018,0,0,0.018,0,0)" xlink:href="#R"/><use transform="matrix(0.018,0,0,0.018,4.553999999999999,0)" xlink:href="#aa"/><use transform="matrix(0.018,0,0,0.018,7.271999999999999,0)" xlink:href="#P"/><use transform="matrix(0.018,0,0,0.018,16.506,0)" xlink:href="#W"/><use transform="matrix(0.018,0,0,0.018,25.595999999999997,0)" xlink:href="#ac"/></g><g id="A"><use transform="matrix(0.018,0,0,0.018,0,0)" xlink:href="#X"/><use transform="matrix(0.018,0,0,0.018,4.4639999999999995,0)" xlink:href="#Y"/><use transform="matrix(0.018,0,0,0.018,13.68,0)" xlink:href="#O"/><use transform="matrix(0.018,0,0,0.018,22.86,0)" xlink:href="#L"/><use transform="matrix(0.018,0,0,0.018,32.111999999999995,0)" xlink:href="#ab"/><use transform="matrix(0.018,0,0,0.018,41.166,0)" xlink:href="#Y"/><use transform="matrix(0.018,0,0,0.018,50.56199999999999,0)" xlink:href="#H"/></g><path d="M185-189c-5-48-123-54-124 2 14 75 158 14 163 119 3 78-121 87-175 55-17-10-28-26-33-46l33-7c5 56 141 63 141-1 0-78-155-14-162-118-5-82 145-84 179-34 5 7 8 16 11 25" id="ak"/><path d="M30 0v-248h187v28H63v79h144v27H63v87h162V0H30" id="al"/><path d="M190 0L58-211 59 0H30v-248h39L202-35l-2-213h31V0h-41" id="am"/><g id="B"><use transform="matrix(0.2222222222222222,0,0,0.2222222222222222,0,0)" xlink:href="#ak"/><use transform="matrix(0.2222222222222222,0,0,0.2222222222222222,53.33333333333333,0)" xlink:href="#ak"/><use transform="matrix(0.2222222222222222,0,0,0.2222222222222222,106.66666666666666,0)" xlink:href="#al"/><use transform="matrix(0.2222222222222222,0,0,0.2222222222222222,160,0)" xlink:href="#am"/><use transform="matrix(0.2222222222222222,0,0,0.2222222222222222,217.55555555555554,0)" xlink:href="#ak"/><use transform="matrix(0.2222222222222222,0,0,0.2222222222222222,270.88888888888886,0)" xlink:href="#al"/></g><path d="M117-616C49-536 12-364 57-224 99-95 186 9 351 9c211 0 314-158 314-369 0-162-68-279-177-338-75-41-197-41-272 0-39 21-71 49-99 82zM348-66c-158 0-216-136-216-294s58-293 216-293c165 0 223 136 223 302 0 158-64 285-223 285" id="an"/><g id="C"><use transform="matrix(0.08,0,0,0.08,0,0)" xlink:href="#aa"/><use transform="matrix(0.08,0,0,0.08,14.16,0)" xlink:href="#an"/><use transform="matrix(0.08,0,0,0.08,67.84,0)" xlink:href="#K"/></g><path d="M15-55C-15 0 70 39 92-20l51-135h332l63 165 86-25-251-659c-14-32-23-54-67-54-36-1-52 28-61 54zm152-176l142-393 141 393H167" id="ao"/><g id="D"><use transform="matrix(0.08,0,0,0.08,0,0)" xlink:href="#ao"/><use transform="matrix(0.08,0,0,0.08,49.44,0)" xlink:href="#V"/><use transform="matrix(0.08,0,0,0.08,91.84,0)" xlink:href="#V"/></g><path d="M279-720c-74-3-144 5-215-2v687c-1 24 20 45 44 45 22 0 44-21 43-43v-285L459 24l65-54-272-289c141 9 249-52 249-188 0-135-88-208-222-213zm133 211c0 74-49 122-123 122H151v-253h125c80 5 136 50 136 131" id="ap"/><g id="E"><use transform="matrix(0.08,0,0,0.08,0,0)" xlink:href="#ap"/><use transform="matrix(0.08,0,0,0.08,37.92,0)" xlink:href="#I"/><use transform="matrix(0.08,0,0,0.08,80.96000000000001,0)" xlink:href="#ae"/><use transform="matrix(0.08,0,0,0.08,123.52,0)" xlink:href="#I"/><use transform="matrix(0.08,0,0,0.08,164.72,0)" xlink:href="#H"/><use transform="matrix(0.08,0,0,0.08,198.08,0)" xlink:href="#aa"/><use transform="matrix(0.08,0,0,0.08,212.24,0)" xlink:href="#ab"/><use transform="matrix(0.08,0,0,0.08,252.48000000000002,0)" xlink:href="#P"/></g></defs></g></svg>