<svg width="640" height="394" viewBox="0 0 640 394" fill="none" xmlns="http://www.w3.org/2000/svg">
<path d="M219.824 53.648V71H217.496V53.648H219.824ZM230.425 60.68C231.353 60.68 232.121 60.96 232.729 61.52C233.337 62.064 233.649 62.776 233.665 63.656V71H231.409V64.424C231.377 63.864 231.209 63.424 230.905 63.104C230.601 62.784 230.145 62.616 229.537 62.6C228.657 62.6 227.929 62.952 227.353 63.656C226.777 64.36 226.489 65.256 226.489 66.344V71H224.257V61.064H226.273L226.417 62.984C226.769 62.264 227.297 61.704 228.001 61.304C228.705 60.888 229.513 60.68 230.425 60.68ZM238.338 63.056H236.634V61.04H238.338V56.864C238.338 55.424 238.666 54.32 239.322 53.552C239.978 52.784 240.938 52.4 242.202 52.4C242.554 52.4 242.93 52.456 243.33 52.568C243.73 52.664 244.082 52.808 244.386 53L243.426 54.632C243.186 54.376 242.85 54.248 242.418 54.248C241.81 54.248 241.346 54.456 241.026 54.872C240.722 55.288 240.57 55.96 240.57 56.888V61.04H243.738V63.056H240.57V71H238.338V63.056ZM245.213 65.936C245.213 64.96 245.445 64.072 245.909 63.272C246.389 62.456 247.045 61.816 247.877 61.352C248.725 60.888 249.677 60.656 250.733 60.656C251.789 60.656 252.725 60.888 253.541 61.352C254.373 61.816 255.013 62.448 255.461 63.248C255.925 64.048 256.157 64.944 256.157 65.936C256.157 66.928 255.925 67.832 255.461 68.648C255.013 69.448 254.373 70.08 253.541 70.544C252.709 71.008 251.757 71.24 250.685 71.24C249.645 71.24 248.709 71.024 247.877 70.592C247.045 70.144 246.389 69.52 245.909 68.72C245.445 67.92 245.213 66.992 245.213 65.936ZM247.469 65.96C247.469 66.584 247.605 67.16 247.877 67.688C248.165 68.216 248.549 68.632 249.029 68.936C249.525 69.24 250.069 69.392 250.661 69.392C251.589 69.392 252.357 69.064 252.965 68.408C253.573 67.752 253.877 66.936 253.877 65.96C253.877 64.984 253.573 64.168 252.965 63.512C252.357 62.84 251.589 62.504 250.661 62.504C250.053 62.504 249.509 62.664 249.029 62.984C248.549 63.288 248.165 63.704 247.877 64.232C247.605 64.76 247.469 65.336 247.469 65.96ZM261.315 63.416C261.571 62.872 261.931 62.392 262.395 61.976C262.875 61.56 263.379 61.24 263.907 61.016C264.435 60.792 264.899 60.672 265.299 60.656L265.203 62.888C264.483 62.856 263.827 63 263.235 63.32C262.659 63.64 262.203 64.088 261.867 64.664C261.547 65.224 261.387 65.824 261.387 66.464V71H259.155V61.064H261.147L261.315 63.416ZM280.922 60.656C281.882 60.656 282.642 60.928 283.202 61.472C283.778 62.016 284.082 62.736 284.114 63.632V71H281.882V64.448C281.834 63.28 281.306 62.664 280.298 62.6C279.722 62.6 279.202 62.776 278.738 63.128C278.29 63.464 277.938 63.912 277.682 64.472C277.426 65.032 277.29 65.632 277.274 66.272V71H275.018V64.448C274.97 63.28 274.426 62.664 273.386 62.6C272.826 62.6 272.314 62.776 271.85 63.128C271.402 63.464 271.05 63.92 270.794 64.496C270.538 65.056 270.41 65.656 270.41 66.296V71H268.178V61.064H270.194L270.362 62.936C270.746 62.216 271.266 61.656 271.922 61.256C272.594 60.856 273.354 60.656 274.202 60.656C275.002 60.656 275.674 60.848 276.218 61.232C276.762 61.6 277.114 62.112 277.274 62.768C277.69 62.112 278.218 61.6 278.858 61.232C279.498 60.848 280.186 60.656 280.922 60.656ZM298.183 61.064V71H295.951V69.368C295.599 69.832 295.087 70.264 294.415 70.664C293.743 71.048 292.983 71.24 292.135 71.24C291.191 71.24 290.335 71.04 289.567 70.64C288.815 70.224 288.215 69.624 287.767 68.84C287.335 68.056 287.119 67.12 287.119 66.032C287.119 64.944 287.343 64 287.791 63.2C288.255 62.384 288.871 61.76 289.639 61.328C290.423 60.88 291.287 60.656 292.231 60.656C293.079 60.656 293.815 60.84 294.439 61.208C295.063 61.576 295.567 62.056 295.951 62.648L296.119 61.064H298.183ZM292.735 69.392C293.551 69.392 294.247 69.168 294.823 68.72C295.415 68.256 295.791 67.632 295.951 66.848V64.88C295.759 64.176 295.359 63.608 294.751 63.176C294.143 62.728 293.447 62.504 292.663 62.504C292.071 62.504 291.519 62.648 291.007 62.936C290.511 63.224 290.111 63.632 289.807 64.16C289.519 64.672 289.375 65.256 289.375 65.912C289.375 66.552 289.527 67.136 289.831 67.664C290.135 68.192 290.543 68.616 291.055 68.936C291.567 69.24 292.127 69.392 292.735 69.392ZM305.285 56.696V61.088H307.997V62.864H305.285V71H303.029V62.864H301.205V61.088H303.029V56.696H305.285ZM312.949 61.064V71H310.717V61.064H312.949ZM310.549 57.488C310.549 57.136 310.685 56.84 310.957 56.6C311.229 56.36 311.541 56.24 311.893 56.24C312.245 56.24 312.549 56.36 312.805 56.6C313.077 56.84 313.213 57.136 313.213 57.488C313.213 57.84 313.077 58.136 312.805 58.376C312.549 58.616 312.245 58.736 311.893 58.736C311.541 58.736 311.229 58.616 310.957 58.376C310.685 58.136 310.549 57.84 310.549 57.488ZM315.971 65.936C315.971 64.96 316.203 64.072 316.667 63.272C317.147 62.456 317.803 61.816 318.635 61.352C319.483 60.888 320.435 60.656 321.491 60.656C322.547 60.656 323.483 60.888 324.299 61.352C325.131 61.816 325.771 62.448 326.219 63.248C326.683 64.048 326.915 64.944 326.915 65.936C326.915 66.928 326.683 67.832 326.219 68.648C325.771 69.448 325.131 70.08 324.299 70.544C323.467 71.008 322.515 71.24 321.443 71.24C320.403 71.24 319.467 71.024 318.635 70.592C317.803 70.144 317.147 69.52 316.667 68.72C316.203 67.92 315.971 66.992 315.971 65.936ZM318.227 65.96C318.227 66.584 318.363 67.16 318.635 67.688C318.923 68.216 319.307 68.632 319.787 68.936C320.283 69.24 320.827 69.392 321.419 69.392C322.347 69.392 323.115 69.064 323.723 68.408C324.331 67.752 324.635 66.936 324.635 65.96C324.635 64.984 324.331 64.168 323.723 63.512C323.115 62.84 322.347 62.504 321.419 62.504C320.811 62.504 320.267 62.664 319.787 62.984C319.307 63.288 318.923 63.704 318.635 64.232C318.363 64.76 318.227 65.336 318.227 65.96ZM336.081 60.68C337.009 60.68 337.777 60.96 338.385 61.52C338.993 62.064 339.305 62.776 339.321 63.656V71H337.065V64.424C337.033 63.864 336.865 63.424 336.561 63.104C336.257 62.784 335.801 62.616 335.193 62.6C334.313 62.6 333.585 62.952 333.009 63.656C332.433 64.36 332.145 65.256 332.145 66.344V71H329.913V61.064H331.929L332.073 62.984C332.425 62.264 332.953 61.704 333.657 61.304C334.361 60.888 335.169 60.68 336.081 60.68ZM360.42 66.44H353.748L351.9 71H349.596L357.18 52.928H357.324L364.908 71H362.22L360.42 66.44ZM359.628 64.424L357.156 58.088L354.588 64.424H359.628ZM369.76 63.416C370.016 62.872 370.376 62.392 370.84 61.976C371.32 61.56 371.824 61.24 372.352 61.016C372.88 60.792 373.344 60.672 373.744 60.656L373.648 62.888C372.928 62.856 372.272 63 371.68 63.32C371.104 63.64 370.648 64.088 370.312 64.664C369.992 65.224 369.832 65.824 369.832 66.464V71H367.6V61.064H369.592L369.76 63.416ZM384.266 70.064C383.818 70.432 383.282 70.72 382.658 70.928C382.05 71.136 381.426 71.24 380.786 71.24C379.714 71.24 378.762 71.024 377.93 70.592C377.114 70.16 376.474 69.552 376.01 68.768C375.562 67.968 375.338 67.048 375.338 66.008C375.338 64.984 375.578 64.08 376.058 63.296C376.538 62.496 377.178 61.88 377.978 61.448C378.778 61.016 379.642 60.8 380.57 60.8C382.09 60.8 383.346 61.216 384.338 62.048L383.21 63.512C382.89 63.272 382.522 63.072 382.106 62.912C381.69 62.736 381.242 62.648 380.762 62.648C380.17 62.648 379.626 62.8 379.13 63.104C378.65 63.392 378.266 63.792 377.978 64.304C377.706 64.816 377.57 65.384 377.57 66.008C377.57 66.632 377.714 67.2 378.002 67.712C378.306 68.224 378.714 68.632 379.226 68.936C379.738 69.24 380.322 69.392 380.978 69.392C381.794 69.392 382.506 69.152 383.114 68.672L384.266 70.064ZM393.315 60.68C394.243 60.68 395.011 60.96 395.619 61.52C396.227 62.064 396.539 62.776 396.555 63.656V71H394.299V64.424C394.267 63.864 394.099 63.424 393.795 63.104C393.491 62.784 393.035 62.616 392.427 62.6C391.851 62.6 391.331 62.76 390.867 63.08C390.403 63.4 390.035 63.848 389.763 64.424C389.507 65 389.379 65.64 389.379 66.344V71H387.147V52.4H389.331V62.864C389.699 62.208 390.227 61.68 390.915 61.28C391.619 60.88 392.419 60.68 393.315 60.68ZM402.645 61.064V71H400.413V61.064H402.645ZM400.245 57.488C400.245 57.136 400.381 56.84 400.653 56.6C400.925 56.36 401.237 56.24 401.589 56.24C401.941 56.24 402.245 56.36 402.501 56.6C402.773 56.84 402.909 57.136 402.909 57.488C402.909 57.84 402.773 58.136 402.501 58.376C402.245 58.616 401.941 58.736 401.589 58.736C401.237 58.736 400.925 58.616 400.653 58.376C400.381 58.136 400.245 57.84 400.245 57.488ZM409.746 56.696V61.088H412.458V62.864H409.746V71H407.49V62.864H405.666V61.088H407.49V56.696H409.746ZM419.834 69.32C420.666 69.32 421.474 69.032 422.258 68.456L423.29 70.112C422.762 70.464 422.186 70.744 421.562 70.952C420.954 71.144 420.362 71.24 419.786 71.24C418.682 71.24 417.714 71.016 416.882 70.568C416.066 70.104 415.434 69.472 414.986 68.672C414.538 67.872 414.314 66.968 414.314 65.96C414.314 64.984 414.554 64.096 415.034 63.296C415.53 62.48 416.202 61.84 417.05 61.376C417.898 60.896 418.826 60.656 419.834 60.656C421.13 60.656 422.21 61.04 423.074 61.808C423.954 62.56 424.554 63.616 424.874 64.976L417.002 67.736C417.29 68.232 417.674 68.624 418.154 68.912C418.65 69.184 419.21 69.32 419.834 69.32ZM419.666 62.432C418.754 62.432 418.002 62.752 417.41 63.392C416.818 64.032 416.522 64.848 416.522 65.84C416.522 66.08 416.53 66.264 416.546 66.392L422.33 64.256C422.09 63.712 421.746 63.272 421.298 62.936C420.866 62.6 420.322 62.432 419.666 62.432ZM435.711 70.064C435.263 70.432 434.727 70.72 434.103 70.928C433.495 71.136 432.871 71.24 432.231 71.24C431.159 71.24 430.207 71.024 429.375 70.592C428.559 70.16 427.919 69.552 427.455 68.768C427.007 67.968 426.783 67.048 426.783 66.008C426.783 64.984 427.023 64.08 427.503 63.296C427.983 62.496 428.623 61.88 429.423 61.448C430.223 61.016 431.087 60.8 432.015 60.8C433.535 60.8 434.791 61.216 435.783 62.048L434.655 63.512C434.335 63.272 433.967 63.072 433.551 62.912C433.135 62.736 432.687 62.648 432.207 62.648C431.615 62.648 431.071 62.8 430.575 63.104C430.095 63.392 429.711 63.792 429.423 64.304C429.151 64.816 429.015 65.384 429.015 66.008C429.015 66.632 429.159 67.2 429.447 67.712C429.751 68.224 430.159 68.632 430.671 68.936C431.183 69.24 431.767 69.392 432.423 69.392C433.239 69.392 433.951 69.152 434.559 68.672L435.711 70.064ZM441.808 56.696V61.088H444.52V62.864H441.808V71H439.552V62.864H437.728V61.088H439.552V56.696H441.808ZM456.481 61.064V71H454.465L454.321 69.104C453.985 69.776 453.465 70.328 452.761 70.76C452.057 71.176 451.273 71.384 450.409 71.384C449.497 71.384 448.745 71.112 448.153 70.568C447.577 70.008 447.273 69.288 447.241 68.408V61.064H449.473V67.616C449.505 68.176 449.665 68.624 449.953 68.96C450.257 69.28 450.705 69.448 451.297 69.464C451.841 69.464 452.337 69.304 452.785 68.984C453.233 68.648 453.585 68.192 453.841 67.616C454.113 67.04 454.249 66.4 454.249 65.696V61.064H456.481ZM462.526 63.416C462.782 62.872 463.142 62.392 463.606 61.976C464.086 61.56 464.59 61.24 465.118 61.016C465.646 60.792 466.11 60.672 466.51 60.656L466.414 62.888C465.694 62.856 465.038 63 464.446 63.32C463.87 63.64 463.414 64.088 463.078 64.664C462.758 65.224 462.598 65.824 462.598 66.464V71H460.366V61.064H462.358L462.526 63.416ZM473.623 69.32C474.455 69.32 475.263 69.032 476.047 68.456L477.079 70.112C476.551 70.464 475.975 70.744 475.351 70.952C474.743 71.144 474.151 71.24 473.575 71.24C472.471 71.24 471.503 71.016 470.671 70.568C469.855 70.104 469.223 69.472 468.775 68.672C468.327 67.872 468.103 66.968 468.103 65.96C468.103 64.984 468.343 64.096 468.823 63.296C469.319 62.48 469.991 61.84 470.839 61.376C471.687 60.896 472.615 60.656 473.623 60.656C474.919 60.656 475.999 61.04 476.863 61.808C477.743 62.56 478.343 63.616 478.663 64.976L470.791 67.736C471.079 68.232 471.463 68.624 471.943 68.912C472.439 69.184 472.999 69.32 473.623 69.32ZM473.455 62.432C472.543 62.432 471.791 62.752 471.199 63.392C470.607 64.032 470.311 64.848 470.311 65.84C470.311 66.08 470.319 66.264 470.335 66.392L476.119 64.256C475.879 63.712 475.535 63.272 475.087 62.936C474.655 62.6 474.111 62.432 473.455 62.432Z" fill="black"/>
<path d="M37.416 345.336C37.416 343.752 37.816 342.28 38.616 340.92C39.416 339.56 40.488 338.48 41.832 337.68C43.192 336.864 44.672 336.456 46.272 336.456C47.856 336.456 49.328 336.864 50.688 337.68C52.048 338.48 53.128 339.56 53.928 340.92C54.744 342.28 55.152 343.752 55.152 345.336C55.152 346.936 54.752 348.416 53.952 349.776C53.152 351.136 52.064 352.216 50.688 353.016C49.328 353.8 47.856 354.192 46.272 354.192C44.672 354.192 43.192 353.8 41.832 353.016C40.472 352.232 39.392 351.168 38.592 349.824C37.808 348.464 37.416 346.968 37.416 345.336ZM39.816 345.36C39.816 346.544 40.104 347.64 40.68 348.648C41.256 349.656 42.04 350.456 43.032 351.048C44.04 351.64 45.136 351.936 46.32 351.936C47.504 351.936 48.584 351.648 49.56 351.072C50.552 350.48 51.328 349.68 51.888 348.672C52.464 347.648 52.752 346.536 52.752 345.336C52.752 344.136 52.464 343.024 51.888 342C51.312 340.976 50.528 340.168 49.536 339.576C48.544 338.984 47.456 338.688 46.272 338.688C45.088 338.688 44 338.992 43.008 339.6C42.016 340.192 41.232 341 40.656 342.024C40.096 343.048 39.816 344.16 39.816 345.36ZM67.9781 344.064L62.6741 354.288H62.5541L57.0341 344.064H59.6981L62.6981 350.4L65.4821 344.064H67.9781ZM74.8031 352.32C75.6351 352.32 76.4431 352.032 77.2271 351.456L78.2591 353.112C77.7311 353.464 77.1551 353.744 76.5311 353.952C75.9231 354.144 75.3311 354.24 74.7551 354.24C73.6511 354.24 72.6831 354.016 71.8511 353.568C71.0351 353.104 70.4031 352.472 69.9551 351.672C69.5071 350.872 69.2831 349.968 69.2831 348.96C69.2831 347.984 69.5231 347.096 70.0031 346.296C70.4991 345.48 71.1711 344.84 72.0191 344.376C72.8671 343.896 73.7951 343.656 74.8031 343.656C76.0991 343.656 77.1791 344.04 78.0431 344.808C78.9231 345.56 79.5231 346.616 79.8431 347.976L71.9711 350.736C72.2591 351.232 72.6431 351.624 73.1231 351.912C73.6191 352.184 74.1791 352.32 74.8031 352.32ZM74.6351 345.432C73.7231 345.432 72.9711 345.752 72.3791 346.392C71.7871 347.032 71.4911 347.848 71.4911 348.84C71.4911 349.08 71.4991 349.264 71.5151 349.392L77.2991 347.256C77.0591 346.712 76.7151 346.272 76.2671 345.936C75.8351 345.6 75.2911 345.432 74.6351 345.432ZM84.7759 346.416C85.0319 345.872 85.3919 345.392 85.8559 344.976C86.3359 344.56 86.8399 344.24 87.3679 344.016C87.8959 343.792 88.3599 343.672 88.7599 343.656L88.6639 345.888C87.9439 345.856 87.2879 346 86.6959 346.32C86.1199 346.64 85.6639 347.088 85.3279 347.664C85.0079 348.224 84.8479 348.824 84.8479 349.464V354H82.6159V344.064H84.6079L84.7759 346.416ZM101.605 344.064V354H99.3729V352.368C99.0209 352.832 98.5089 353.264 97.8369 353.664C97.1649 354.048 96.4049 354.24 95.5569 354.24C94.6129 354.24 93.7569 354.04 92.9889 353.64C92.2369 353.224 91.6369 352.624 91.1889 351.84C90.7569 351.056 90.5409 350.12 90.5409 349.032C90.5409 347.944 90.7649 347 91.2129 346.2C91.6769 345.384 92.2929 344.76 93.0609 344.328C93.8449 343.88 94.7089 343.656 95.6529 343.656C96.5009 343.656 97.2369 343.84 97.8609 344.208C98.4849 344.576 98.9889 345.056 99.3729 345.648L99.5409 344.064H101.605ZM96.1569 352.392C96.9729 352.392 97.6689 352.168 98.2449 351.72C98.8369 351.256 99.2129 350.632 99.3729 349.848V347.88C99.1809 347.176 98.7809 346.608 98.1729 346.176C97.5649 345.728 96.8689 345.504 96.0849 345.504C95.4929 345.504 94.9409 345.648 94.4289 345.936C93.9329 346.224 93.5329 346.632 93.2289 347.16C92.9409 347.672 92.7969 348.256 92.7969 348.912C92.7969 349.552 92.9489 350.136 93.2529 350.664C93.5569 351.192 93.9649 351.616 94.4769 351.936C94.9889 352.24 95.5489 352.392 96.1569 352.392ZM107.723 335.4V354H105.491V335.4H107.723ZM113.84 335.4V354H111.608V335.4H113.84ZM138.615 352.704C138.055 353.072 137.343 353.416 136.479 353.736C135.631 354.04 134.703 354.192 133.695 354.192C131.919 354.192 130.351 353.8 128.991 353.016C127.647 352.232 126.607 351.176 125.871 349.848C125.151 348.52 124.791 347.056 124.791 345.456C124.791 343.744 125.159 342.208 125.895 340.848C126.631 339.472 127.647 338.4 128.943 337.632C130.255 336.848 131.735 336.456 133.383 336.456C134.359 336.456 135.271 336.584 136.119 336.84C136.967 337.096 137.727 337.432 138.399 337.848L137.463 340.032C136.135 339.136 134.799 338.688 133.455 338.688C132.335 338.688 131.295 338.984 130.335 339.576C129.391 340.168 128.631 340.976 128.055 342C127.495 343.008 127.215 344.12 127.215 345.336C127.215 346.584 127.471 347.712 127.983 348.72C128.511 349.728 129.255 350.52 130.215 351.096C131.191 351.656 132.311 351.936 133.575 351.936C135.127 351.936 136.479 351.496 137.631 350.616L138.615 352.704ZM141.119 348.936C141.119 347.96 141.351 347.072 141.815 346.272C142.295 345.456 142.951 344.816 143.783 344.352C144.631 343.888 145.583 343.656 146.639 343.656C147.695 343.656 148.631 343.888 149.447 344.352C150.279 344.816 150.919 345.448 151.367 346.248C151.831 347.048 152.063 347.944 152.063 348.936C152.063 349.928 151.831 350.832 151.367 351.648C150.919 352.448 150.279 353.08 149.447 353.544C148.615 354.008 147.663 354.24 146.591 354.24C145.551 354.24 144.615 354.024 143.783 353.592C142.951 353.144 142.295 352.52 141.815 351.72C141.351 350.92 141.119 349.992 141.119 348.936ZM143.375 348.96C143.375 349.584 143.511 350.16 143.783 350.688C144.071 351.216 144.455 351.632 144.935 351.936C145.431 352.24 145.975 352.392 146.567 352.392C147.495 352.392 148.263 352.064 148.871 351.408C149.479 350.752 149.783 349.936 149.783 348.96C149.783 347.984 149.479 347.168 148.871 346.512C148.263 345.84 147.495 345.504 146.567 345.504C145.959 345.504 145.415 345.664 144.935 345.984C144.455 346.288 144.071 346.704 143.783 347.232C143.511 347.76 143.375 348.336 143.375 348.96ZM161.229 343.68C162.157 343.68 162.925 343.96 163.533 344.52C164.141 345.064 164.453 345.776 164.469 346.656V354H162.213V347.424C162.181 346.864 162.013 346.424 161.709 346.104C161.405 345.784 160.949 345.616 160.341 345.6C159.461 345.6 158.733 345.952 158.157 346.656C157.581 347.36 157.293 348.256 157.293 349.344V354H155.061V344.064H157.077L157.221 345.984C157.573 345.264 158.101 344.704 158.805 344.304C159.509 343.888 160.317 343.68 161.229 343.68ZM171.135 354.216C170.399 354.216 169.695 354.088 169.023 353.832C168.367 353.576 167.831 353.2 167.415 352.704L168.375 351.408C168.775 351.792 169.191 352.088 169.623 352.296C170.071 352.504 170.511 352.608 170.943 352.608C171.471 352.608 171.903 352.504 172.239 352.296C172.575 352.088 172.743 351.768 172.743 351.336C172.743 351 172.639 350.728 172.431 350.52C172.223 350.312 171.983 350.16 171.711 350.064C171.455 349.968 171.015 349.824 170.391 349.632C168.695 349.088 167.847 348.12 167.847 346.728C167.847 345.896 168.151 345.184 168.759 344.592C169.383 344 170.247 343.704 171.351 343.704C172.055 343.704 172.679 343.792 173.223 343.968C173.767 344.144 174.271 344.424 174.735 344.808L173.847 346.176C173.591 345.904 173.263 345.688 172.863 345.528C172.479 345.368 172.111 345.28 171.759 345.264C171.311 345.264 170.927 345.376 170.607 345.6C170.287 345.808 170.127 346.096 170.127 346.464C170.127 346.768 170.231 347.024 170.439 347.232C170.647 347.424 170.863 347.568 171.087 347.664C171.311 347.744 171.751 347.888 172.407 348.096C173.223 348.368 173.855 348.72 174.303 349.152C174.767 349.584 174.999 350.168 174.999 350.904C174.999 351.864 174.663 352.656 173.991 353.28C173.319 353.904 172.367 354.216 171.135 354.216ZM180.356 344.064V354H178.124V344.064H180.356ZM177.956 340.488C177.956 340.136 178.092 339.84 178.364 339.6C178.636 339.36 178.948 339.24 179.3 339.24C179.652 339.24 179.956 339.36 180.212 339.6C180.484 339.84 180.62 340.136 180.62 340.488C180.62 340.84 180.484 341.136 180.212 341.376C179.956 341.616 179.652 341.736 179.3 341.736C178.948 341.736 178.636 341.616 178.364 341.376C178.092 341.136 177.956 340.84 177.956 340.488ZM187.049 354.216C186.313 354.216 185.609 354.088 184.937 353.832C184.281 353.576 183.745 353.2 183.329 352.704L184.289 351.408C184.689 351.792 185.105 352.088 185.537 352.296C185.985 352.504 186.425 352.608 186.857 352.608C187.385 352.608 187.817 352.504 188.153 352.296C188.489 352.088 188.657 351.768 188.657 351.336C188.657 351 188.553 350.728 188.345 350.52C188.137 350.312 187.897 350.16 187.625 350.064C187.369 349.968 186.929 349.824 186.305 349.632C184.609 349.088 183.761 348.12 183.761 346.728C183.761 345.896 184.065 345.184 184.673 344.592C185.297 344 186.161 343.704 187.265 343.704C187.969 343.704 188.593 343.792 189.137 343.968C189.681 344.144 190.185 344.424 190.649 344.808L189.761 346.176C189.505 345.904 189.177 345.688 188.777 345.528C188.393 345.368 188.025 345.28 187.673 345.264C187.225 345.264 186.841 345.376 186.521 345.6C186.201 345.808 186.041 346.096 186.041 346.464C186.041 346.768 186.145 347.024 186.353 347.232C186.561 347.424 186.777 347.568 187.001 347.664C187.225 347.744 187.665 347.888 188.321 348.096C189.137 348.368 189.769 348.72 190.217 349.152C190.681 349.584 190.913 350.168 190.913 350.904C190.913 351.864 190.577 352.656 189.905 353.28C189.233 353.904 188.281 354.216 187.049 354.216ZM197.254 339.696V344.088H199.966V345.864H197.254V354H194.998V345.864H193.174V344.088H194.998V339.696H197.254ZM207.342 352.32C208.174 352.32 208.982 352.032 209.766 351.456L210.798 353.112C210.27 353.464 209.694 353.744 209.07 353.952C208.462 354.144 207.87 354.24 207.294 354.24C206.19 354.24 205.222 354.016 204.39 353.568C203.574 353.104 202.942 352.472 202.494 351.672C202.046 350.872 201.822 349.968 201.822 348.96C201.822 347.984 202.062 347.096 202.542 346.296C203.038 345.48 203.71 344.84 204.558 344.376C205.406 343.896 206.334 343.656 207.342 343.656C208.638 343.656 209.718 344.04 210.582 344.808C211.462 345.56 212.062 346.616 212.382 347.976L204.51 350.736C204.798 351.232 205.182 351.624 205.662 351.912C206.158 352.184 206.718 352.32 207.342 352.32ZM207.174 345.432C206.262 345.432 205.51 345.752 204.918 346.392C204.326 347.032 204.03 347.848 204.03 348.84C204.03 349.08 204.038 349.264 204.054 349.392L209.838 347.256C209.598 346.712 209.254 346.272 208.806 345.936C208.374 345.6 207.83 345.432 207.174 345.432ZM221.323 343.68C222.251 343.68 223.019 343.96 223.627 344.52C224.235 345.064 224.547 345.776 224.563 346.656V354H222.307V347.424C222.275 346.864 222.107 346.424 221.803 346.104C221.499 345.784 221.043 345.616 220.435 345.6C219.555 345.6 218.827 345.952 218.251 346.656C217.675 347.36 217.387 348.256 217.387 349.344V354H215.155V344.064H217.171L217.315 345.984C217.667 345.264 218.195 344.704 218.899 344.304C219.603 343.888 220.411 343.68 221.323 343.68ZM236.485 353.064C236.037 353.432 235.501 353.72 234.877 353.928C234.269 354.136 233.645 354.24 233.005 354.24C231.933 354.24 230.981 354.024 230.149 353.592C229.333 353.16 228.693 352.552 228.229 351.768C227.781 350.968 227.557 350.048 227.557 349.008C227.557 347.984 227.797 347.08 228.277 346.296C228.757 345.496 229.397 344.88 230.197 344.448C230.997 344.016 231.861 343.8 232.789 343.8C234.309 343.8 235.565 344.216 236.557 345.048L235.429 346.512C235.109 346.272 234.741 346.072 234.325 345.912C233.909 345.736 233.461 345.648 232.981 345.648C232.389 345.648 231.845 345.8 231.349 346.104C230.869 346.392 230.485 346.792 230.197 347.304C229.925 347.816 229.789 348.384 229.789 349.008C229.789 349.632 229.933 350.2 230.221 350.712C230.525 351.224 230.933 351.632 231.445 351.936C231.957 352.24 232.541 352.392 233.197 352.392C234.013 352.392 234.725 352.152 235.333 351.672L236.485 353.064ZM248.822 344.064L242.414 358.776H240.206L242.486 353.664L237.878 344.064H240.398L243.614 351.144L246.758 344.064H248.822Z" fill="black"/>
<path d="M511.048 354L506.968 347.592C506.84 347.608 506.648 347.616 506.392 347.616H503.824V354H501.496V336.648H506.128C507.312 336.648 508.368 336.856 509.296 337.272C510.224 337.688 510.952 338.304 511.48 339.12C512.008 339.92 512.272 340.888 512.272 342.024C512.272 343.096 512.032 344.08 511.552 344.976C511.088 345.872 510.368 346.552 509.392 347.016L513.76 354H511.048ZM506.344 345.36C507.592 345.36 508.488 345.032 509.032 344.376C509.592 343.72 509.872 342.968 509.872 342.12C509.872 341.608 509.752 341.104 509.512 340.608C509.288 340.112 508.92 339.704 508.408 339.384C507.912 339.048 507.28 338.88 506.512 338.88H503.824V345.36H506.344ZM521.139 352.32C521.971 352.32 522.779 352.032 523.563 351.456L524.595 353.112C524.067 353.464 523.491 353.744 522.867 353.952C522.259 354.144 521.667 354.24 521.091 354.24C519.987 354.24 519.019 354.016 518.187 353.568C517.371 353.104 516.739 352.472 516.291 351.672C515.843 350.872 515.619 349.968 515.619 348.96C515.619 347.984 515.859 347.096 516.339 346.296C516.835 345.48 517.507 344.84 518.355 344.376C519.203 343.896 520.131 343.656 521.139 343.656C522.435 343.656 523.515 344.04 524.379 344.808C525.259 345.56 525.859 346.616 526.179 347.976L518.307 350.736C518.595 351.232 518.979 351.624 519.459 351.912C519.955 352.184 520.515 352.32 521.139 352.32ZM520.971 345.432C520.059 345.432 519.307 345.752 518.715 346.392C518.123 347.032 517.827 347.848 517.827 348.84C517.827 349.08 517.835 349.264 517.851 349.392L523.635 347.256C523.395 346.712 523.051 346.272 522.603 345.936C522.171 345.6 521.627 345.432 520.971 345.432ZM539.32 335.4V354H537.064V352.44C536.584 353 535.992 353.44 535.288 353.76C534.6 354.08 533.84 354.24 533.008 354.24C532.08 354.24 531.24 354.016 530.488 353.568C529.736 353.12 529.144 352.496 528.712 351.696C528.296 350.88 528.088 349.944 528.088 348.888C528.088 347.816 528.312 346.888 528.76 346.104C529.208 345.304 529.824 344.696 530.608 344.28C531.392 343.864 532.28 343.656 533.272 343.656C534.024 343.656 534.744 343.816 535.432 344.136C536.136 344.44 536.688 344.864 537.088 345.408V335.4H539.32ZM533.704 352.32C534.568 352.32 535.296 352.088 535.888 351.624C536.496 351.16 536.888 350.536 537.064 349.752V347.88C536.872 347.16 536.464 346.576 535.84 346.128C535.216 345.664 534.504 345.432 533.704 345.432C533.096 345.432 532.536 345.584 532.024 345.888C531.512 346.176 531.104 346.584 530.8 347.112C530.496 347.624 530.344 348.208 530.344 348.864C530.344 349.504 530.496 350.088 530.8 350.616C531.104 351.144 531.512 351.56 532.024 351.864C532.536 352.168 533.096 352.32 533.704 352.32ZM552.418 344.064V354H550.402L550.258 352.104C549.922 352.776 549.402 353.328 548.698 353.76C547.994 354.176 547.21 354.384 546.346 354.384C545.434 354.384 544.682 354.112 544.09 353.568C543.514 353.008 543.21 352.288 543.178 351.408V344.064H545.41V350.616C545.442 351.176 545.602 351.624 545.89 351.96C546.194 352.28 546.642 352.448 547.234 352.464C547.778 352.464 548.274 352.304 548.722 351.984C549.17 351.648 549.522 351.192 549.778 350.616C550.05 350.04 550.186 349.4 550.186 348.696V344.064H552.418ZM562.471 343.68C563.399 343.68 564.167 343.96 564.775 344.52C565.383 345.064 565.695 345.776 565.711 346.656V354H563.455V347.424C563.423 346.864 563.255 346.424 562.951 346.104C562.647 345.784 562.191 345.616 561.583 345.6C560.703 345.6 559.975 345.952 559.399 346.656C558.823 347.36 558.535 348.256 558.535 349.344V354H556.303V344.064H558.319L558.463 345.984C558.815 345.264 559.343 344.704 560.047 344.304C560.751 343.888 561.559 343.68 562.471 343.68ZM579.937 335.4V354H577.681V352.44C577.201 353 576.609 353.44 575.905 353.76C575.217 354.08 574.457 354.24 573.625 354.24C572.697 354.24 571.857 354.016 571.105 353.568C570.353 353.12 569.761 352.496 569.329 351.696C568.913 350.88 568.705 349.944 568.705 348.888C568.705 347.816 568.929 346.888 569.377 346.104C569.825 345.304 570.441 344.696 571.225 344.28C572.009 343.864 572.897 343.656 573.889 343.656C574.641 343.656 575.361 343.816 576.049 344.136C576.753 344.44 577.305 344.864 577.705 345.408V335.4H579.937ZM574.321 352.32C575.185 352.32 575.913 352.088 576.505 351.624C577.113 351.16 577.505 350.536 577.681 349.752V347.88C577.489 347.16 577.081 346.576 576.457 346.128C575.833 345.664 575.121 345.432 574.321 345.432C573.713 345.432 573.153 345.584 572.641 345.888C572.129 346.176 571.721 346.584 571.417 347.112C571.113 347.624 570.961 348.208 570.961 348.864C570.961 349.504 571.113 350.088 571.417 350.616C571.721 351.144 572.129 351.56 572.641 351.864C573.153 352.168 573.713 352.32 574.321 352.32ZM593.996 344.064V354H591.764V352.368C591.412 352.832 590.9 353.264 590.228 353.664C589.556 354.048 588.796 354.24 587.948 354.24C587.004 354.24 586.148 354.04 585.38 353.64C584.628 353.224 584.028 352.624 583.58 351.84C583.148 351.056 582.932 350.12 582.932 349.032C582.932 347.944 583.156 347 583.604 346.2C584.068 345.384 584.684 344.76 585.452 344.328C586.236 343.88 587.1 343.656 588.044 343.656C588.892 343.656 589.628 343.84 590.252 344.208C590.876 344.576 591.38 345.056 591.764 345.648L591.932 344.064H593.996ZM588.548 352.392C589.364 352.392 590.06 352.168 590.636 351.72C591.228 351.256 591.604 350.632 591.764 349.848V347.88C591.572 347.176 591.172 346.608 590.564 346.176C589.956 345.728 589.26 345.504 588.476 345.504C587.884 345.504 587.332 345.648 586.82 345.936C586.324 346.224 585.924 346.632 585.62 347.16C585.332 347.672 585.188 348.256 585.188 348.912C585.188 349.552 585.34 350.136 585.644 350.664C585.948 351.192 586.356 351.616 586.868 351.936C587.38 352.24 587.94 352.392 588.548 352.392ZM604.05 343.68C604.978 343.68 605.746 343.96 606.354 344.52C606.962 345.064 607.274 345.776 607.29 346.656V354H605.034V347.424C605.002 346.864 604.834 346.424 604.53 346.104C604.226 345.784 603.77 345.616 603.162 345.6C602.282 345.6 601.554 345.952 600.978 346.656C600.402 347.36 600.114 348.256 600.114 349.344V354H597.882V344.064H599.898L600.042 345.984C600.394 345.264 600.922 344.704 601.626 344.304C602.33 343.888 603.138 343.68 604.05 343.68ZM619.211 353.064C618.763 353.432 618.227 353.72 617.603 353.928C616.995 354.136 616.371 354.24 615.731 354.24C614.659 354.24 613.707 354.024 612.875 353.592C612.059 353.16 611.419 352.552 610.955 351.768C610.507 350.968 610.283 350.048 610.283 349.008C610.283 347.984 610.523 347.08 611.003 346.296C611.483 345.496 612.123 344.88 612.923 344.448C613.723 344.016 614.587 343.8 615.515 343.8C617.035 343.8 618.291 344.216 619.283 345.048L618.155 346.512C617.835 346.272 617.467 346.072 617.051 345.912C616.635 345.736 616.187 345.648 615.707 345.648C615.115 345.648 614.571 345.8 614.075 346.104C613.595 346.392 613.211 346.792 612.923 347.304C612.651 347.816 612.515 348.384 612.515 349.008C612.515 349.632 612.659 350.2 612.947 350.712C613.251 351.224 613.659 351.632 614.171 351.936C614.683 352.24 615.267 352.392 615.923 352.392C616.739 352.392 617.451 352.152 618.059 351.672L619.211 353.064ZM631.548 344.064L625.14 358.776H622.932L625.212 353.664L620.604 344.064H623.124L626.34 351.144L629.484 344.064H631.548Z" fill="black"/>
<path d="M250.99 112.858C250.911 112.311 250.404 111.932 249.858 112.01L240.949 113.291C240.403 113.369 240.023 113.876 240.102 114.423C240.18 114.97 240.687 115.349 241.234 115.27L249.152 114.132L250.291 122.051C250.369 122.597 250.876 122.977 251.423 122.898C251.97 122.82 252.349 122.313 252.27 121.766L250.99 112.858ZM113.801 296.599L250.801 113.599L249.199 112.401L112.199 295.401L113.801 296.599Z" fill="#8987F9"/>
<path d="M452.258 112.034C451.724 111.891 451.176 112.208 451.034 112.742L448.712 121.437C448.569 121.971 448.886 122.519 449.42 122.661C449.953 122.804 450.501 122.487 450.644 121.953L452.708 114.224L460.437 116.288C460.971 116.431 461.519 116.114 461.661 115.58C461.804 115.047 461.487 114.499 460.953 114.356L452.258 112.034ZM570.866 316.499L452.866 112.499L451.134 113.501L569.134 317.501L570.866 316.499Z" fill="#8987F9"/>
<path d="M282.291 348.79C281.901 349.18 281.901 349.814 282.291 350.204L288.655 356.568C289.046 356.959 289.679 356.959 290.07 356.568C290.46 356.178 290.46 355.544 290.07 355.154L284.413 349.497L290.07 343.84C290.46 343.45 290.46 342.817 290.07 342.426C289.679 342.035 289.046 342.035 288.655 342.426L282.291 348.79ZM452.001 348.497H282.999V350.497H452.001V348.497Z" fill="#8987F9"/>
</svg>
