<svg width="16" height="17" viewBox="0 0 16 17" fill="none" xmlns="http://www.w3.org/2000/svg">
<path d="M12.6667 2.5C13.0203 2.5 13.3594 2.64048 13.6095 2.89052C13.8595 3.14057 14 3.47971 14 3.83333V13.1667C14 13.5203 13.8595 13.8594 13.6095 14.1095C13.3594 14.3595 13.0203 14.5 12.6667 14.5H3.33333C2.97971 14.5 2.64057 14.3595 2.39052 14.1095C2.14048 13.8594 2 13.5203 2 13.1667V3.83333C2 3.47971 2.14048 3.14057 2.39052 2.89052C2.64057 2.64048 2.97971 2.5 3.33333 2.5H12.6667ZM12.3333 12.8333V9.3C12.3333 8.7236 12.1044 8.1708 11.6968 7.76322C11.2892 7.35564 10.7364 7.12667 10.16 7.12667C9.59333 7.12667 8.93333 7.47333 8.61333 7.99333V7.25333H6.75333V12.8333H8.61333V9.54667C8.61333 9.03333 9.02667 8.61333 9.54 8.61333C9.78754 8.61333 10.0249 8.71167 10.2 8.8867C10.375 9.06173 10.4733 9.29913 10.4733 9.54667V12.8333H12.3333ZM4.58667 6.20667C4.88371 6.20667 5.16859 6.08867 5.37863 5.87863C5.58867 5.66859 5.70667 5.38371 5.70667 5.08667C5.70667 4.46667 5.20667 3.96 4.58667 3.96C4.28786 3.96 4.00128 4.0787 3.78999 4.28999C3.5787 4.50128 3.46 4.78786 3.46 5.08667C3.46 5.70667 3.96667 6.20667 4.58667 6.20667ZM5.51333 12.8333V7.25333H3.66667V12.8333H5.51333Z" fill="white"/>
</svg>
