<svg xmlns="http://www.w3.org/2000/svg" xmlns:xlink="http://www.w3.org/1999/xlink" xmlns:lucid="lucid" width="1665" height="314"><g transform="translate(-67 -486)" lucid:page-tab-id="0_0"><path d="M407.22 548c0-4.42 3.58-8 8-8h911.52c4.42 0 8 3.58 8 8v32c0 4.43-3.58 8-8 8H415.22c-4.42 0-8-3.57-8-8z" stroke="#000" stroke-opacity="0" stroke-width="2" fill="#fff" fill-opacity="0"/><use xlink:href="#a" transform="matrix(1,0,0,1,411.21851982988215,544) translate(277.3779012345679 28.062222222222225)"/><use xlink:href="#b" transform="matrix(1,0,0,1,411.21851982988215,544) translate(454.97049382716045 28.062222222222225)"/><use xlink:href="#c" transform="matrix(1,0,0,1,411.21851982988215,544) translate(523.847037037037 28.062222222222225)"/><path d="M690.7 586.44l367.04-3.2M690.73 586.44h-1.03M1057.7 583.25h1.04" stroke="#b2b2b2" stroke-width="2" fill="none"/><path d="M407.22 592.58c0-4.4 3.58-8 8-8h912.56c4.42 0 8 3.6 8 8v2.85c0 4.42-3.58 8-8 8H415.22c-4.42 0-8-3.58-8-8z" stroke="#000" stroke-opacity="0" stroke-width="2" fill="#fff" fill-opacity="0"/><use xlink:href="#d" transform="matrix(1,0,0,1,411.21851982988255,588.5842786451161) translate(217.0816049382716 27.568888888888893)"/><use xlink:href="#e" transform="matrix(1,0,0,1,411.21851982988255,588.5842786451161) translate(341.35320987654325 27.568888888888893)"/><use xlink:href="#f" transform="matrix(1,0,0,1,411.21851982988255,588.5842786451161) translate(445.05691358024694 27.568888888888893)"/><use xlink:href="#g" transform="matrix(1,0,0,1,411.21851982988255,588.5842786451161) translate(470.37790123456796 27.568888888888893)"/><use xlink:href="#h" transform="matrix(1,0,0,1,411.21851982988255,588.5842786451161) translate(589.5507407407408 27.568888888888893)"/><use xlink:href="#i" transform="matrix(1,0,0,1,411.21851982988255,588.5842786451161) translate(641.4025925925926 27.568888888888893)"/><path d="M127.6 649.73c0-4.42 3.6-8 8-8h300.6c4.43 0 8 3.58 8 8v47.67c0 4.42-3.57 8-8 8H135.6c-4.4 0-8-3.58-8-8z" stroke="#000" stroke-opacity="0" fill="#d85656"/><use xlink:href="#j" transform="matrix(1,0,0,1,132.61233046380318,646.7317791901843) translate(65.89382716049383 20.977777777777778)"/><use xlink:href="#k" transform="matrix(1,0,0,1,132.61233046380318,646.7317791901843) translate(121.38765432098765 20.977777777777778)"/><use xlink:href="#l" transform="matrix(1,0,0,1,132.61233046380318,646.7317791901843) translate(147.9 50.84444444444445)"/><path d="M135.4 646.35c15.92 0 28.82 12.18 28.82 27.22 0 15.03-12.9 27.22-28.8 27.22s-28.8-12.2-28.8-27.23c0-15.04 12.9-27.22 28.8-27.22z" stroke="#d85656" stroke-width="10" fill="#fff"/><use xlink:href="#m" transform="matrix(1,0,0,1,106.61310175767267,646.3463886097974) translate(22.82716049382716 31.944444444444443)"/><path d="M432.83 650.92c0-4.42 3.58-8 8-8h300.6c4.42 0 8 3.58 8 8v45.3c0 4.4-3.58 8-8 8h-300.6c-4.42 0-8-3.6-8-8z" stroke="#000" stroke-opacity="0" fill="#225798"/><use xlink:href="#n" transform="matrix(1,0,0,1,437.826755612778,647.9155290821952) translate(94.93703703703704 20.977777777777778)"/><use xlink:href="#l" transform="matrix(1,0,0,1,437.826755612778,647.9155290821952) translate(147.9 50.84444444444445)"/><path d="M445 646.35c15.9 0 28.8 12.18 28.8 27.22 0 15.03-12.9 27.22-28.8 27.22s-28.8-12.2-28.8-27.23c0-15.04 12.9-27.22 28.8-27.22z" stroke="#225798" stroke-width="10" fill="#fff"/><use xlink:href="#o" transform="matrix(1,0,0,1,416.1901028139698,646.3463886097973) translate(22.82716049382716 31.944444444444443)"/><path d="M748.35 650.7c0-4.42 3.58-8 8-8h300.6c4.42 0 8 3.58 8 8v45.73c0 4.42-3.58 8-8 8h-300.6c-4.42 0-8-3.58-8-8z" stroke="#000" stroke-opacity="0" fill="#ff741d"/><use xlink:href="#p" transform="matrix(1,0,0,1,753.3497174044062,647.6992416103525) translate(35.400000000000006 31.6)"/><use xlink:href="#q" transform="matrix(1,0,0,1,753.3497174044062,647.6992416103525) translate(80.84444444444445 31.6)"/><use xlink:href="#r" transform="matrix(1,0,0,1,753.3497174044062,647.6992416103525) translate(156.23333333333335 31.6)"/><path d="M756.15 646.35c15.9 0 28.8 12.18 28.8 27.22 0 15.03-12.9 27.22-28.8 27.22s-28.8-12.2-28.8-27.23c0-15.04 12.9-27.22 28.8-27.22z" stroke="#ff741d" stroke-width="10" fill="#fff"/><use xlink:href="#s" transform="matrix(1,0,0,1,727.3491757100464,646.3463886097969) translate(22.82716049382716 31.944444444444443)"/><path d="M1061.1 650.7c0-4.42 3.57-8 8-8h300.6c4.4 0 8 3.58 8 8v45.73c0 4.42-3.6 8-8 8h-300.6c-4.43 0-8-3.58-8-8z" stroke="#000" stroke-opacity="0" fill="#4247a8"/><path d="M1068.9 646.35c15.9 0 28.8 12.18 28.8 27.22 0 15.03-12.9 27.22-28.8 27.22s-28.8-12.2-28.8-27.23c0-15.04 12.9-27.22 28.8-27.22z" stroke="#4247a8" stroke-width="10" fill="#fff"/><use xlink:href="#t" transform="matrix(1,0,0,1,1040.090320445902,646.3463886097973) translate(22.82716049382716 31.944444444444443)"/><path d="M1367.6 650.7c0-4.42 3.6-8 8-8h269.8c4.4 0 8 3.58 8 8v45.73c0 4.42-3.6 8-8 8h-269.8c-4.4 0-8-3.58-8-8z" stroke="#000" stroke-opacity="0" fill="#ffaf28"/><g><use xlink:href="#u" transform="matrix(1,0,0,1,1372.6136434520326,647.6992416103529) translate(44.1283950617284 32.044444444444444)"/><use xlink:href="#v" transform="matrix(1,0,0,1,1372.6136434520326,647.6992416103529) translate(142.70864197530864 32.044444444444444)"/></g><g><path d="M1375.4 646.35c15.92 0 28.82 12.18 28.82 27.22 0 15.03-12.9 27.22-28.8 27.22s-28.8-12.2-28.8-27.23c0-15.04 12.9-27.22 28.8-27.22z" stroke="#ffaf28" stroke-width="10" fill="#fff"/></g><g><use xlink:href="#w" transform="matrix(1,0,0,1,1346.6131017576727,646.3463886097977) translate(22.82716049382716 31.944444444444443)"/></g><path d="M159.9 721.5c0-2.76 2.23-5 5-5h242.03c2.77 0 5 2.24 5 5v33.83c0 2.77-2.23 5-5 5H164.9c-2.77 0-5-2.23-5-5z" fill="#fff" fill-opacity="0"/><g><use xlink:href="#x" transform="matrix(1,0,0,1,164.89247738202806,721.5023036618635) translate(16.090912562046597 25.193127147766322)"/><use xlink:href="#y" transform="matrix(1,0,0,1,164.89247738202806,721.5023036618635) translate(61.8335624284078 25.193127147766322)"/></g><path d="M780.63 721.76c0-2.76 2.24-5 5-5h242.04c2.76 0 5 2.24 5 5v33.83c0 2.76-2.24 5-5 5H785.63c-2.76 0-5-2.24-5-5z" fill="#fff" fill-opacity="0"/><g><use xlink:href="#x" transform="matrix(1,0,0,1,785.6298643226311,721.761900123584) translate(40.41317296678122 25.193127147766322)"/><use xlink:href="#z" transform="matrix(1,0,0,1,785.6298643226311,721.761900123584) translate(86.15582283314242 25.193127147766322)"/></g><path d="M1384.48 721.76c0-2.76 2.24-5 5-5h242.04c2.76 0 5 2.24 5 5v33.83c0 2.76-2.24 5-5 5h-242.04c-2.76 0-5-2.24-5-5z" fill="#fff" fill-opacity="0"/><g><use xlink:href="#A" transform="matrix(1,0,0,1,1389.4790971055836,721.761900123584) translate(56.44982817869416 25.193127147766322)"/></g><path d="M1075.78 645.94h260v66.54h-260z" fill="#fff" fill-opacity="0"/><g><use xlink:href="#B" transform="matrix(1,0,0,1,1080.782730240861,650.9446956028472) translate(52.918518518518525 20.977777777777778)"/><use xlink:href="#C" transform="matrix(1,0,0,1,1080.782730240861,650.9446956028472) translate(108.28888888888889 20.977777777777778)"/><use xlink:href="#D" transform="matrix(1,0,0,1,1080.782730240861,650.9446956028472) translate(67.12962962962963 47.644444444444446)"/></g><defs><path d="M175 0L67-191c6 58 2 128 3 191H24v-248h59L193-55c-6-58-2-129-3-193h46V0h-61" id="E"/><path d="M185-48c-13 30-37 53-82 52C43 2 14-33 14-96s30-98 90-98c62 0 83 45 84 108H66c0 31 8 55 39 56 18 0 30-7 34-22zm-45-69c5-46-57-63-70-21-2 6-4 13-4 21h74" id="F"/><path d="M115-3C79 11 28 4 28-45v-112H4v-33h27l15-45h31v45h36v33H77v99c-1 23 16 31 38 25v30" id="G"/><path d="M231 0h-52l-39-155L100 0H48L-1-190h46L77-45c9-52 24-97 36-145h53l37 145 32-145h46" id="H"/><path d="M110-194c64 0 96 36 96 99 0 64-35 99-97 99-61 0-95-36-95-99 0-62 34-99 96-99zm-1 164c35 0 45-28 45-65 0-40-10-65-43-65-34 0-45 26-45 65 0 36 10 65 43 65" id="I"/><path d="M135-150c-39-12-60 13-60 57V0H25l-1-190h47c2 13-1 29 3 40 6-28 27-53 61-41v41" id="J"/><path d="M147 0L96-86 75-71V0H25v-261h50v150l67-79h53l-66 74L201 0h-54" id="K"/><path d="M25-224v-37h50v37H25zM25 0v-190h50V0H25" id="L"/><path d="M135-194c87-1 58 113 63 194h-50c-7-57 23-157-34-157-59 0-34 97-39 157H25l-1-190h47c2 12-1 28 3 38 12-26 28-41 61-42" id="M"/><path d="M195-6C206 82 75 100 31 46c-4-6-6-13-8-21l49-6c3 16 16 24 34 25 40 0 42-37 40-79-11 22-30 35-61 35-53 0-70-43-70-97 0-56 18-96 73-97 30 0 46 14 59 34l2-30h47zm-90-29c32 0 41-27 41-63 0-35-9-62-40-62-32 0-39 29-40 63 0 36 9 62 39 62" id="N"/><g id="a"><use transform="matrix(0.08641975308641976,0,0,0.08641975308641976,0,0)" xlink:href="#E"/><use transform="matrix(0.08641975308641976,0,0,0.08641975308641976,22.38271604938272,0)" xlink:href="#F"/><use transform="matrix(0.08641975308641976,0,0,0.08641975308641976,39.66666666666667,0)" xlink:href="#G"/><use transform="matrix(0.08641975308641976,0,0,0.08641975308641976,49.95061728395062,0)" xlink:href="#H"/><use transform="matrix(0.08641975308641976,0,0,0.08641975308641976,74.14814814814815,0)" xlink:href="#I"/><use transform="matrix(0.08641975308641976,0,0,0.08641975308641976,93.07407407407409,0)" xlink:href="#J"/><use transform="matrix(0.08641975308641976,0,0,0.08641975308641976,105.17283950617283,0)" xlink:href="#K"/><use transform="matrix(0.08641975308641976,0,0,0.08641975308641976,122.45679012345678,0)" xlink:href="#L"/><use transform="matrix(0.08641975308641976,0,0,0.08641975308641976,131.09876543209876,0)" xlink:href="#M"/><use transform="matrix(0.08641975308641976,0,0,0.08641975308641976,150.02469135802468,0)" xlink:href="#N"/></g><path d="M199 0l-22-63H83L61 0H9l90-248h61L250 0h-51zm-33-102l-36-108c-10 38-24 72-36 108h72" id="O"/><path d="M135-194c53 0 70 44 70 98 0 56-19 98-73 100-31 1-45-17-59-34 3 33 2 69 2 105H25l-1-265h48c2 10 0 23 3 31 11-24 29-35 60-35zM114-30c33 0 39-31 40-66 0-38-9-64-40-64-56 0-55 130 0 130" id="P"/><g id="b"><use transform="matrix(0.08641975308641976,0,0,0.08641975308641976,0,0)" xlink:href="#O"/><use transform="matrix(0.08641975308641976,0,0,0.08641975308641976,22.38271604938272,0)" xlink:href="#P"/><use transform="matrix(0.08641975308641976,0,0,0.08641975308641976,41.308641975308646,0)" xlink:href="#P"/></g><path d="M136-208V0H84v-208H4v-40h212v40h-80" id="Q"/><path d="M220-157c-53 9-28 100-34 157h-49v-107c1-27-5-49-29-50C55-147 81-57 75 0H25l-1-190h47c2 12-1 28 3 38 10-53 101-56 108 0 13-22 24-43 59-42 82 1 51 116 57 194h-49v-107c-1-25-5-48-29-50" id="R"/><path d="M25 0v-261h50V0H25" id="S"/><g id="c"><use transform="matrix(0.08641975308641976,0,0,0.08641975308641976,0,0)" xlink:href="#Q"/><use transform="matrix(0.08641975308641976,0,0,0.08641975308641976,18.320987654320987,0)" xlink:href="#L"/><use transform="matrix(0.08641975308641976,0,0,0.08641975308641976,26.962962962962962,0)" xlink:href="#R"/><use transform="matrix(0.08641975308641976,0,0,0.08641975308641976,54.61728395061729,0)" xlink:href="#F"/><use transform="matrix(0.08641975308641976,0,0,0.08641975308641976,71.90123456790124,0)" xlink:href="#S"/><use transform="matrix(0.08641975308641976,0,0,0.08641975308641976,80.54320987654322,0)" xlink:href="#L"/><use transform="matrix(0.08641975308641976,0,0,0.08641975308641976,89.18518518518519,0)" xlink:href="#M"/><use transform="matrix(0.08641975308641976,0,0,0.08641975308641976,108.11111111111113,0)" xlink:href="#F"/></g><path d="M33 0v-248h34V0H33" id="T"/><path d="M185-189c-5-48-123-54-124 2 14 75 158 14 163 119 3 78-121 87-175 55-17-10-28-26-33-46l33-7c5 56 141 63 141-1 0-78-155-14-162-118-5-82 145-84 179-34 5 7 8 16 11 25" id="U"/><path d="M197 0v-115H63V0H30v-248h33v105h134v-105h34V0h-34" id="V"/><path d="M205 0l-28-72H64L36 0H1l101-248h38L239 0h-34zm-38-99l-47-123c-12 45-31 82-46 123h93" id="W"/><path d="M190 0L58-211 59 0H30v-248h39L202-35l-2-213h31V0h-41" id="X"/><g id="d"><use transform="matrix(0.08641975308641976,0,0,0.08641975308641976,0,0)" xlink:href="#T"/><use transform="matrix(0.08641975308641976,0,0,0.08641975308641976,8.641975308641976,0)" xlink:href="#U"/><use transform="matrix(0.08641975308641976,0,0,0.08641975308641976,29.382716049382726,0)" xlink:href="#V"/><use transform="matrix(0.08641975308641976,0,0,0.08641975308641976,51.765432098765444,0)" xlink:href="#W"/><use transform="matrix(0.08641975308641976,0,0,0.08641975308641976,72.50617283950619,0)" xlink:href="#W"/><use transform="matrix(0.08641975308641976,0,0,0.08641975308641976,93.24691358024694,0)" xlink:href="#X"/></g><path d="M160-131c35 5 61 23 61 61C221 17 115-2 30 0v-248c76 3 177-17 177 60 0 33-19 50-47 57zm-97-11c50-1 110 9 110-42 0-47-63-36-110-37v79zm0 115c55-2 124 14 124-45 0-56-70-42-124-44v89" id="Y"/><path d="M140-251c81 0 123 46 123 126C263-46 219 4 140 4 59 4 17-45 17-125s42-126 123-126zm0 227c63 0 89-41 89-101s-29-99-89-99c-61 0-89 39-89 99S79-25 140-24" id="Z"/><path d="M30 0v-248h187v28H63v79h144v27H63v87h162V0H30" id="aa"/><g id="e"><use transform="matrix(0.08641975308641976,0,0,0.08641975308641976,0,0)" xlink:href="#Y"/><use transform="matrix(0.08641975308641976,0,0,0.08641975308641976,20.740740740740744,0)" xlink:href="#Z"/><use transform="matrix(0.08641975308641976,0,0,0.08641975308641976,44.93827160493828,0)" xlink:href="#U"/><use transform="matrix(0.08641975308641976,0,0,0.08641975308641976,65.67901234567903,0)" xlink:href="#aa"/></g><path d="M32 76v-337h29V76H32" id="ab"/><use transform="matrix(0.08641975308641976,0,0,0.08641975308641976,0,0)" xlink:href="#ab" id="f"/><path d="M153-248C145-148 188 4 80 4 36 3 13-21 6-62l32-5c4 25 16 42 43 43 27 0 39-20 39-49v-147H72v-28h81" id="ac"/><path d="M141-36C126-15 110 5 73 4 37 3 15-17 15-53c-1-64 63-63 125-63 3-35-9-54-41-54-24 1-41 7-42 31l-33-3c5-37 33-52 76-52 45 0 72 20 72 64v82c-1 20 7 32 28 27v20c-31 9-61-2-59-35zM48-53c0 20 12 33 32 33 41-3 63-29 60-74-43 2-92-5-92 41" id="ad"/><path d="M117-194c89-4 53 116 60 194h-32v-121c0-31-8-49-39-48C34-167 62-67 57 0H25l-1-190h30c1 10-1 24 2 32 11-22 29-35 61-36" id="ae"/><path d="M84 4C-5 8 30-112 23-190h32v120c0 31 7 50 39 49 72-2 45-101 50-169h31l1 190h-30c-1-10 1-25-2-33-11 22-28 36-60 37" id="af"/><path d="M114-163C36-179 61-72 57 0H25l-1-190h30c1 12-1 29 2 39 6-27 23-49 58-41v29" id="ag"/><path d="M179-190L93 31C79 59 56 82 12 73V49c39 6 53-20 64-50L1-190h34L92-34l54-156h33" id="ah"/><g id="g"><use transform="matrix(0.08641975308641976,0,0,0.08641975308641976,0,0)" xlink:href="#ac"/><use transform="matrix(0.08641975308641976,0,0,0.08641975308641976,15.555555555555557,0)" xlink:href="#ad"/><use transform="matrix(0.08641975308641976,0,0,0.08641975308641976,32.839506172839506,0)" xlink:href="#ae"/><use transform="matrix(0.08641975308641976,0,0,0.08641975308641976,50.123456790123456,0)" xlink:href="#af"/><use transform="matrix(0.08641975308641976,0,0,0.08641975308641976,67.4074074074074,0)" xlink:href="#ad"/><use transform="matrix(0.08641975308641976,0,0,0.08641975308641976,84.69135802469135,0)" xlink:href="#ag"/><use transform="matrix(0.08641975308641976,0,0,0.08641975308641976,94.9753086419753,0)" xlink:href="#ah"/></g><path d="M101-251c82-7 93 87 43 132L82-64C71-53 59-42 53-27h129V0H18c2-99 128-94 128-182 0-28-16-43-45-43s-46 15-49 41l-32-3c6-41 34-60 81-64" id="ai"/><path d="M101-251c68 0 85 55 85 127S166 4 100 4C33 4 14-52 14-124c0-73 17-127 87-127zm-1 229c47 0 54-49 54-102s-4-102-53-102c-51 0-55 48-55 102 0 53 5 102 54 102" id="aj"/><path d="M68-38c1 34 0 65-14 84H32c9-13 17-26 17-46H33v-38h35" id="ak"/><g id="h"><use transform="matrix(0.08641975308641976,0,0,0.08641975308641976,0,0)" xlink:href="#ai"/><use transform="matrix(0.08641975308641976,0,0,0.08641975308641976,17.283950617283953,0)" xlink:href="#aj"/><use transform="matrix(0.08641975308641976,0,0,0.08641975308641976,34.567901234567906,0)" xlink:href="#ak"/></g><g id="i"><use transform="matrix(0.08641975308641976,0,0,0.08641975308641976,0,0)" xlink:href="#ai"/><use transform="matrix(0.08641975308641976,0,0,0.08641975308641976,17.283950617283953,0)" xlink:href="#aj"/><use transform="matrix(0.08641975308641976,0,0,0.08641975308641976,34.567901234567906,0)" xlink:href="#ai"/><use transform="matrix(0.08641975308641976,0,0,0.08641975308641976,51.851851851851855,0)" xlink:href="#aj"/></g><path fill="#fff" d="M76-105c-23 59 45 89 88 55 12-10 18-24 22-45l30-153h51C238-143 259 4 118 4 48 4 11-39 25-112l26-136h52" id="al"/><path fill="#fff" d="M144-137c-1-29-70-35-71-2 16 41 103 10 103 80C176 9 79 16 32-9 18-17 9-31 4-48l44-6c3 32 80 36 82 1-15-42-103-11-103-82 0-77 157-79 161-8" id="am"/><path fill="#fff" d="M114-194c63-2 87 48 72 110H63c-3 28 1 55 31 54 21-1 32-13 37-29l44 13C160-14 137 4 91 4 41 4 11-22 11-73c0-71 33-119 103-121zm30 77c14-47-50-61-67-22-3 6-6 13-8 22h75" id="an"/><path fill="#fff" d="M84-151c13-25 34-51 72-40l-8 41C67-170 71-64 56 0H6l36-190h47" id="ao"/><g id="j"><use transform="matrix(0.06172839506172839,0,0,0.06172839506172839,0,0)" xlink:href="#al"/><use transform="matrix(0.06172839506172839,0,0,0.06172839506172839,15.987654320987653,0)" xlink:href="#am"/><use transform="matrix(0.06172839506172839,0,0,0.06172839506172839,28.333333333333332,0)" xlink:href="#an"/><use transform="matrix(0.06172839506172839,0,0,0.06172839506172839,40.67901234567901,0)" xlink:href="#ao"/></g><path fill="#fff" d="M6 0l48-248h52L58 0H6" id="ap"/><path fill="#fff" d="M151-194c95 0 34 128 28 194h-49l25-134c0-29-45-25-59-9C67-111 69-48 56 0H6l36-190h47l-4 32c15-20 33-36 66-36" id="aq"/><path fill="#fff" d="M72-63c-8 23 5 39 32 30L98-1C54 14 12-6 23-64l18-93H15l7-33h28l24-45h31l-8 45h35l-6 33H90" id="ar"/><path fill="#fff" d="M109 0H50L19-190h51L86-37l77-153h54" id="as"/><path fill="#fff" d="M50-224l7-37h49l-7 37H50zM6 0l37-190h49L55 0H6" id="at"/><path fill="#fff" d="M212 0h-52l-8-156L82 0H30L17-190h46l2 145 66-145h53l8 145 60-145h47" id="au"/><g id="k"><use transform="matrix(0.06172839506172839,0,0,0.06172839506172839,0,0)" xlink:href="#ap"/><use transform="matrix(0.06172839506172839,0,0,0.06172839506172839,6.172839506172839,0)" xlink:href="#aq"/><use transform="matrix(0.06172839506172839,0,0,0.06172839506172839,19.691358024691358,0)" xlink:href="#ar"/><use transform="matrix(0.06172839506172839,0,0,0.06172839506172839,27.037037037037038,0)" xlink:href="#an"/><use transform="matrix(0.06172839506172839,0,0,0.06172839506172839,39.382716049382715,0)" xlink:href="#ao"/><use transform="matrix(0.06172839506172839,0,0,0.06172839506172839,48.02469135802469,0)" xlink:href="#as"/><use transform="matrix(0.06172839506172839,0,0,0.06172839506172839,60.37037037037037,0)" xlink:href="#at"/><use transform="matrix(0.06172839506172839,0,0,0.06172839506172839,66.5432098765432,0)" xlink:href="#an"/><use transform="matrix(0.06172839506172839,0,0,0.06172839506172839,78.88888888888889,0)" xlink:href="#au"/><use transform="matrix(0.06172839506172839,0,0,0.06172839506172839,96.17283950617283,0)" xlink:href="#am"/></g><path fill="#333" d="M23 0v-37h61v-169l-59 37v-38l62-41h46v211h57V0H23" id="av"/><use transform="matrix(0.06172839506172839,0,0,0.06172839506172839,0,0)" xlink:href="#av" id="m"/><path fill="#fff" d="M178-136c88 48 22 151-73 140C49-3 12-15 4-64l51-9c1 50 111 53 115 3-16-63-132-20-133-112 0-93 190-91 199-10l-50 12c-4-41-93-50-97-4 7 38 59 32 89 48" id="aw"/><path fill="#fff" d="M128 0L95-87 70-74 55 0H6l51-261h49L77-111l82-79h56l-83 74L180 0h-52" id="ax"/><path fill="#fff" d="M67-101c-8 29-7 73 27 71 23-2 32-16 39-37l48 9C170-19 141 4 91 4 36 4 7-28 12-86c6-75 61-124 140-103 26 7 40 29 43 59l-50 4c-1-20-9-34-29-34-35 0-41 29-49 59" id="ay"/><path fill="#fff" d="M150-105c8-23 8-54-22-51-68 7-54 98-72 156H6l50-261h50L85-158c15-20 33-36 66-36 95 0 34 128 28 194h-49" id="az"/><path fill="#fff" d="M45-171c29-32 103-29 114 14 2-11 5-23 8-33h47L176-2c-3 70-92 96-155 64C9 56 1 42-1 25l50-5c2 28 48 27 63 11 13-13 20-45 21-66-13 20-30 35-62 36-87 3-60-134-26-172zM94-35c41-3 55-43 55-86 0-24-12-39-35-39-43 0-51 48-51 90 0 22 9 37 31 35" id="aA"/><g id="n"><use transform="matrix(0.06172839506172839,0,0,0.06172839506172839,0,0)" xlink:href="#aw"/><use transform="matrix(0.06172839506172839,0,0,0.06172839506172839,14.814814814814813,0)" xlink:href="#ax"/><use transform="matrix(0.06172839506172839,0,0,0.06172839506172839,27.160493827160494,0)" xlink:href="#an"/><use transform="matrix(0.06172839506172839,0,0,0.06172839506172839,39.50617283950617,0)" xlink:href="#ar"/><use transform="matrix(0.06172839506172839,0,0,0.06172839506172839,46.85185185185185,0)" xlink:href="#ay"/><use transform="matrix(0.06172839506172839,0,0,0.06172839506172839,59.197530864197525,0)" xlink:href="#az"/><use transform="matrix(0.06172839506172839,0,0,0.06172839506172839,72.71604938271604,0)" xlink:href="#at"/><use transform="matrix(0.06172839506172839,0,0,0.06172839506172839,78.88888888888887,0)" xlink:href="#aq"/><use transform="matrix(0.06172839506172839,0,0,0.06172839506172839,92.40740740740739,0)" xlink:href="#aA"/></g><path fill="#333" d="M182-182c0 78-84 86-111 141h115V0H12c-6-101 99-100 120-180 1-22-12-31-33-32-23 0-32 14-35 34l-49-3c5-45 32-70 84-70 51 0 83 22 83 69" id="aB"/><use transform="matrix(0.06172839506172839,0,0,0.06172839506172839,0,0)" xlink:href="#aB" id="o"/><path fill="#fff" d="M6 0l48-248h52L66-40h133l-8 40H6" id="aC"/><path fill="#fff" d="M124-194c51 0 84 22 84 74C207-44 167 4 94 4 43 4 11-23 11-74c0-74 41-120 113-120zM99-30c46 0 58-42 58-86 0-27-11-44-37-44-44 0-55 40-57 84-1 27 10 45 36 46" id="aD"/><g id="p"><use transform="matrix(0.05555555555555555,0,0,0.05555555555555555,0,0)" xlink:href="#aC"/><use transform="matrix(0.05555555555555555,0,0,0.05555555555555555,12.166666666666666,0)" xlink:href="#aD"/><use transform="matrix(0.05555555555555555,0,0,0.05555555555555555,24.333333333333332,0)" xlink:href="#au"/></g><path fill="#fff" d="M98-208l-15 77h118l-8 40H76L58 0H6l48-248h174l-8 40H98" id="aE"/><path fill="#fff" d="M132-28C118-9 101 4 69 4 30 4 10-23 10-62c0-70 24-129 92-132 31-1 47 14 56 35l19-102h49L179 0h-49zM62-69c0 22 7 39 29 39 45-2 54-45 57-90 2-27-10-40-33-40-44 0-53 48-53 91" id="aF"/><path fill="#fff" d="M6 0l51-261h49L55 0H6" id="aG"/><path fill="#fff" d="M100 10C77 47 50 87-15 72l7-35c37 9 51-18 65-41L20-190h51L89-44l73-146h53" id="aH"/><g id="q"><use transform="matrix(0.05555555555555555,0,0,0.05555555555555555,0,0)" xlink:href="#aE"/><use transform="matrix(0.05555555555555555,0,0,0.05555555555555555,12.166666666666666,0)" xlink:href="#at"/><use transform="matrix(0.05555555555555555,0,0,0.05555555555555555,17.72222222222222,0)" xlink:href="#aF"/><use transform="matrix(0.05555555555555555,0,0,0.05555555555555555,29.888888888888886,0)" xlink:href="#an"/><use transform="matrix(0.05555555555555555,0,0,0.05555555555555555,41,0)" xlink:href="#aG"/><use transform="matrix(0.05555555555555555,0,0,0.05555555555555555,46.55555555555556,0)" xlink:href="#at"/><use transform="matrix(0.05555555555555555,0,0,0.05555555555555555,52.111111111111114,0)" xlink:href="#ar"/><use transform="matrix(0.05555555555555555,0,0,0.05555555555555555,58.72222222222223,0)" xlink:href="#aH"/></g><path fill="#fff" d="M241-173c-1 82-78 91-166 86L58 0H6l48-248c87 0 188-12 187 75zm-53 2c0-43-48-36-90-36l-15 80c50 0 105 7 105-44" id="aI"/><path fill="#fff" d="M156-122c2-23-7-37-28-37-47 0-58 44-58 89 0 24 12 40 36 40 43 0 47-49 50-92zM-8 75l50-265h48c0 10-3 24-3 30 22-50 127-45 121 29-6 73-21 135-92 135-29 0-46-14-55-35L41 75H-8" id="aJ"/><g id="r"><use transform="matrix(0.05555555555555555,0,0,0.05555555555555555,0,0)" xlink:href="#aI"/><use transform="matrix(0.05555555555555555,0,0,0.05555555555555555,13.333333333333332,0)" xlink:href="#ao"/><use transform="matrix(0.05555555555555555,0,0,0.05555555555555555,21.11111111111111,0)" xlink:href="#aD"/><use transform="matrix(0.05555555555555555,0,0,0.05555555555555555,33.27777777777778,0)" xlink:href="#ar"/><use transform="matrix(0.05555555555555555,0,0,0.05555555555555555,39.888888888888886,0)" xlink:href="#aD"/><use transform="matrix(0.05555555555555555,0,0,0.05555555555555555,52.05555555555555,0)" xlink:href="#ar"/><use transform="matrix(0.05555555555555555,0,0,0.05555555555555555,58.666666666666664,0)" xlink:href="#aH"/><use transform="matrix(0.05555555555555555,0,0,0.05555555555555555,69.77777777777777,0)" xlink:href="#aJ"/><use transform="matrix(0.05555555555555555,0,0,0.05555555555555555,81.94444444444444,0)" xlink:href="#an"/><use transform="matrix(0.05555555555555555,0,0,0.05555555555555555,93.05555555555556,0)" xlink:href="#am"/></g><path fill="#333" d="M128-127c34 4 56 21 59 58 7 91-148 94-172 28-4-9-6-17-7-26l51-5c1 24 16 35 40 36 23 0 39-12 38-36-1-31-31-36-65-34v-40c32 2 59-3 59-33 0-20-13-33-34-33s-33 13-35 32l-50-3c6-44 37-68 86-68 50 0 83 20 83 66 0 35-22 52-53 58" id="aK"/><use transform="matrix(0.06172839506172839,0,0,0.06172839506172839,0,0)" xlink:href="#aK" id="s"/><path fill="#333" d="M165-50V0h-47v-50H5v-38l105-160h55v161h33v37h-33zm-47-37l2-116L46-87h72" id="aL"/><use transform="matrix(0.06172839506172839,0,0,0.06172839506172839,0,0)" xlink:href="#aL" id="t"/><path fill="#fff" d="M166-52c-4 17 5 29 24 23l-3 27c-30 11-74 1-67-34C105-15 91 4 56 4 23 4 3-15 2-49c0-64 63-67 128-67 10-22 3-53-29-45-13 3-22 10-25 24l-46-5c5-64 156-77 153 0-1 33-11 60-17 90zM97-88c-44-9-64 57-19 57 31 0 42-28 47-57H97" id="aM"/><path fill="#fff" d="M87-160c15-17 32-34 63-34 99 1 59 172-1 192-36 12-78 0-87-29L54 0H6l52-261h49zm71 38c0-24-5-37-29-37-46 0-55 46-57 89-1 25 12 40 35 40 44 0 51-50 51-92" id="aN"/><g id="u"><use transform="matrix(0.06172839506172839,0,0,0.06172839506172839,0,0)" xlink:href="#al"/><use transform="matrix(0.06172839506172839,0,0,0.06172839506172839,15.987654320987653,0)" xlink:href="#am"/><use transform="matrix(0.06172839506172839,0,0,0.06172839506172839,28.333333333333332,0)" xlink:href="#aM"/><use transform="matrix(0.06172839506172839,0,0,0.06172839506172839,40.67901234567901,0)" xlink:href="#aN"/><use transform="matrix(0.06172839506172839,0,0,0.06172839506172839,54.19753086419753,0)" xlink:href="#at"/><use transform="matrix(0.06172839506172839,0,0,0.06172839506172839,60.370370370370374,0)" xlink:href="#aG"/><use transform="matrix(0.06172839506172839,0,0,0.06172839506172839,66.54320987654322,0)" xlink:href="#at"/><use transform="matrix(0.06172839506172839,0,0,0.06172839506172839,72.71604938271605,0)" xlink:href="#ar"/><use transform="matrix(0.06172839506172839,0,0,0.06172839506172839,80.06172839506173,0)" xlink:href="#aH"/></g><path fill="#fff" d="M157-208L117 0H65l40-208H25l8-40h212l-8 40h-80" id="aO"/><g id="v"><use transform="matrix(0.06172839506172839,0,0,0.06172839506172839,0,0)" xlink:href="#aO"/><use transform="matrix(0.06172839506172839,0,0,0.06172839506172839,12.716049382716047,0)" xlink:href="#an"/><use transform="matrix(0.06172839506172839,0,0,0.06172839506172839,25.061728395061728,0)" xlink:href="#am"/><use transform="matrix(0.06172839506172839,0,0,0.06172839506172839,37.407407407407405,0)" xlink:href="#ar"/><use transform="matrix(0.06172839506172839,0,0,0.06172839506172839,44.75308641975308,0)" xlink:href="#at"/><use transform="matrix(0.06172839506172839,0,0,0.06172839506172839,50.925925925925924,0)" xlink:href="#aq"/><use transform="matrix(0.06172839506172839,0,0,0.06172839506172839,64.44444444444444,0)" xlink:href="#aA"/></g><path fill="#333" d="M139-81c0-46-55-55-73-27H18l9-140h149v37H72l-4 63c44-38 133-4 122 66C201 21 21 35 11-62l49-4c5 18 15 30 39 30 26 0 40-18 40-45" id="aP"/><use transform="matrix(0.06172839506172839,0,0,0.06172839506172839,0,0)" xlink:href="#aP" id="w"/><path fill="#333" d="M76-105c-23 59 45 89 88 55 12-10 18-24 22-45l30-153h51C238-143 259 4 118 4 48 4 11-39 25-112l26-136h52" id="aQ"/><path fill="#333" d="M39-248h54l39 83 71-83h55L153-129 217 0h-54l-44-94L39 0h-56L98-129" id="aR"/><g id="x"><use transform="matrix(0.07636502481863307,0,0,0.07636502481863307,0,0)" xlink:href="#aQ"/><use transform="matrix(0.07636502481863307,0,0,0.07636502481863307,19.778541428025964,0)" xlink:href="#aR"/></g><path fill="#333" d="M258-177c0 46-32 67-71 75L235 0h-57l-41-94H76L58 0H6l48-248c89 2 204-19 204 71zm-53 3c0-46-63-30-107-33l-14 73c51-2 120 13 121-40" id="aS"/><path fill="#333" d="M6 0l48-248h195l-8 40H98l-12 63h132l-7 40H79L66-40h150l-8 40H6" id="aT"/><path fill="#333" d="M178-136c88 48 22 151-73 140C49-3 12-15 4-64l51-9c1 50 111 53 115 3-16-63-132-20-133-112 0-93 190-91 199-10l-50 12c-4-41-93-50-97-4 7 38 59 32 89 48" id="aU"/><path fill="#333" d="M183 0l-10-63H79L44 0H-7l138-248h61L234 0h-51zm-14-102l-15-108c-16 38-36 73-55 108h70" id="aV"/><path fill="#333" d="M161-211c-63 0-91 46-91 110 0 39 17 65 58 64 38-1 60-20 74-45l40 20C220-23 184 0 125 4 9 13-10-144 57-208c33-50 166-62 196-1 4 8 9 18 11 27l-48 12c-6-24-25-41-55-41" id="aW"/><path fill="#333" d="M168 0l21-106H79L58 0H6l48-248h52l-19 99h110l19-99h50L218 0h-50" id="aX"/><g id="y"><use transform="matrix(0.07636502481863307,0,0,0.07636502481863307,0,0)" xlink:href="#aS"/><use transform="matrix(0.07636502481863307,0,0,0.07636502481863307,19.778541428025964,0)" xlink:href="#aT"/><use transform="matrix(0.07636502481863307,0,0,0.07636502481863307,38.1061473844979,0)" xlink:href="#aU"/><use transform="matrix(0.07636502481863307,0,0,0.07636502481863307,56.43375334096984,0)" xlink:href="#aT"/><use transform="matrix(0.07636502481863307,0,0,0.07636502481863307,74.76135929744177,0)" xlink:href="#aV"/><use transform="matrix(0.07636502481863307,0,0,0.07636502481863307,94.53990072546773,0)" xlink:href="#aS"/><use transform="matrix(0.07636502481863307,0,0,0.07636502481863307,114.31844215349369,0)" xlink:href="#aW"/><use transform="matrix(0.07636502481863307,0,0,0.07636502481863307,134.09698358151965,0)" xlink:href="#aX"/></g><path fill="#333" d="M250-142C247-53 197 0 108 0H6l48-248c105-5 200 3 196 106zm-49 2c1-57-42-72-103-68L66-40c84 6 135-22 135-100" id="aY"/><path fill="#333" d="M6 0l48-248h52L58 0H6" id="aZ"/><path fill="#333" d="M70-104c-4 71 81 81 132 50l8-40h-60l7-37h108L246-31C216-10 181 3 130 3 60 2 18-32 18-102c-1-106 79-169 188-144 33 8 53 31 63 63l-50 14c-6-26-25-42-56-42-62 0-89 43-93 107" id="ba"/><path fill="#333" d="M155 0L90-199 52 0H6l48-248h62l66 201 38-201h46L218 0h-63" id="bb"/><g id="z"><use transform="matrix(0.07636502481863307,0,0,0.07636502481863307,0,0)" xlink:href="#aY"/><use transform="matrix(0.07636502481863307,0,0,0.07636502481863307,19.778541428025964,0)" xlink:href="#aT"/><use transform="matrix(0.07636502481863307,0,0,0.07636502481863307,38.1061473844979,0)" xlink:href="#aU"/><use transform="matrix(0.07636502481863307,0,0,0.07636502481863307,56.43375334096984,0)" xlink:href="#aZ"/><use transform="matrix(0.07636502481863307,0,0,0.07636502481863307,64.07025582283315,0)" xlink:href="#ba"/><use transform="matrix(0.07636502481863307,0,0,0.07636502481863307,85.4524627720504,0)" xlink:href="#bb"/></g><path fill="#333" d="M157-208L117 0H65l40-208H25l8-40h212l-8 40h-80" id="bc"/><g id="A"><use transform="matrix(0.07636502481863307,0,0,0.07636502481863307,0,0)" xlink:href="#bc"/><use transform="matrix(0.07636502481863307,0,0,0.07636502481863307,16.723940435280642,0)" xlink:href="#aT"/><use transform="matrix(0.07636502481863307,0,0,0.07636502481863307,35.05154639175258,0)" xlink:href="#aU"/><use transform="matrix(0.07636502481863307,0,0,0.07636502481863307,53.379152348224515,0)" xlink:href="#bc"/><use transform="matrix(0.07636502481863307,0,0,0.07636502481863307,70.10309278350516,0)" xlink:href="#aZ"/><use transform="matrix(0.07636502481863307,0,0,0.07636502481863307,77.73959526536846,0)" xlink:href="#bb"/><use transform="matrix(0.07636502481863307,0,0,0.07636502481863307,97.51813669339442,0)" xlink:href="#ba"/></g><path fill="#fff" d="M168 0l21-106H79L58 0H6l48-248h52l-19 99h110l19-99h50L218 0h-50" id="bd"/><g id="B"><use transform="matrix(0.06172839506172839,0,0,0.06172839506172839,0,0)" xlink:href="#bd"/><use transform="matrix(0.06172839506172839,0,0,0.06172839506172839,15.987654320987653,0)" xlink:href="#at"/><use transform="matrix(0.06172839506172839,0,0,0.06172839506172839,22.160493827160494,0)" xlink:href="#aA"/><use transform="matrix(0.06172839506172839,0,0,0.06172839506172839,35.67901234567901,0)" xlink:href="#az"/></g><g id="C"><use transform="matrix(0.06172839506172839,0,0,0.06172839506172839,0,0)" xlink:href="#aE"/><use transform="matrix(0.06172839506172839,0,0,0.06172839506172839,13.518518518518517,0)" xlink:href="#at"/><use transform="matrix(0.06172839506172839,0,0,0.06172839506172839,19.691358024691358,0)" xlink:href="#aF"/><use transform="matrix(0.06172839506172839,0,0,0.06172839506172839,33.20987654320987,0)" xlink:href="#an"/><use transform="matrix(0.06172839506172839,0,0,0.06172839506172839,45.55555555555555,0)" xlink:href="#aG"/><use transform="matrix(0.06172839506172839,0,0,0.06172839506172839,51.72839506172839,0)" xlink:href="#at"/><use transform="matrix(0.06172839506172839,0,0,0.06172839506172839,57.901234567901234,0)" xlink:href="#ar"/><use transform="matrix(0.06172839506172839,0,0,0.06172839506172839,65.24691358024691,0)" xlink:href="#aH"/></g><g id="D"><use transform="matrix(0.06172839506172839,0,0,0.06172839506172839,0,0)" xlink:href="#aI"/><use transform="matrix(0.06172839506172839,0,0,0.06172839506172839,14.814814814814813,0)" xlink:href="#ao"/><use transform="matrix(0.06172839506172839,0,0,0.06172839506172839,23.456790123456788,0)" xlink:href="#aD"/><use transform="matrix(0.06172839506172839,0,0,0.06172839506172839,36.9753086419753,0)" xlink:href="#ar"/><use transform="matrix(0.06172839506172839,0,0,0.06172839506172839,44.32098765432098,0)" xlink:href="#aD"/><use transform="matrix(0.06172839506172839,0,0,0.06172839506172839,57.8395061728395,0)" xlink:href="#ar"/><use transform="matrix(0.06172839506172839,0,0,0.06172839506172839,65.18518518518518,0)" xlink:href="#aH"/><use transform="matrix(0.06172839506172839,0,0,0.06172839506172839,77.53086419753086,0)" xlink:href="#aJ"/><use transform="matrix(0.06172839506172839,0,0,0.06172839506172839,91.04938271604938,0)" xlink:href="#an"/><use transform="matrix(0.06172839506172839,0,0,0.06172839506172839,103.39506172839506,0)" xlink:href="#am"/></g></defs></g></svg>